NotoSansMongolian.ufo
<glyph name="uni0025" format="2">
  <advance width="831" height="1000"/>
  <unicode hex="0025"/>
  <outline>
    <contour>
      <point x="195" y="276" type="curve"/>
      <point x="302" y="276"/>
      <point x="345" y="365"/>
      <point x="345" y="501" type="curve"/>
      <point x="345" y="637"/>
      <point x="296" y="724"/>
      <point x="195" y="724" type="curve"/>
      <point x="91" y="724"/>
      <point x="49" y="638"/>
      <point x="49" y="501" type="curve"/>
      <point x="49" y="365"/>
      <point x="97" y="276"/>
    </contour>
    <contour>
      <point x="652" y="714" type="line"/>
      <point x="256" y="0" type="line"/>
      <point x="179" y="0" type="line"/>
      <point x="575" y="714" type="line"/>
    </contour>
    <contour>
      <point x="195" y="339" type="curve"/>
      <point x="144" y="339"/>
      <point x="122" y="395"/>
      <point x="122" y="501" type="curve"/>
      <point x="122" y="608"/>
      <point x="144" y="662"/>
      <point x="195" y="662" type="curve"/>
      <point x="246" y="662"/>
      <point x="272" y="608"/>
      <point x="272" y="501" type="curve"/>
      <point x="272" y="393"/>
      <point x="246" y="339"/>
    </contour>
    <contour>
      <point x="632" y="-10" type="curve"/>
      <point x="739" y="-10"/>
      <point x="782" y="79"/>
      <point x="782" y="215" type="curve"/>
      <point x="782" y="351"/>
      <point x="733" y="438"/>
      <point x="632" y="438" type="curve"/>
      <point x="528" y="438"/>
      <point x="486" y="352"/>
      <point x="486" y="215" type="curve"/>
      <point x="486" y="79"/>
      <point x="534" y="-10"/>
    </contour>
    <contour>
      <point x="632" y="53" type="curve"/>
      <point x="581" y="53"/>
      <point x="559" y="107"/>
      <point x="559" y="215" type="curve"/>
      <point x="559" y="322"/>
      <point x="581" y="375"/>
      <point x="632" y="375" type="curve"/>
      <point x="683" y="375"/>
      <point x="709" y="322"/>
      <point x="709" y="215" type="curve"/>
      <point x="709" y="107"/>
      <point x="683" y="53"/>
    </contour>
  </outline>
</glyph>
<glyph name="uni002B" format="2">
  <advance width="572" height="1000"/>
  <unicode hex="002B"/>
  <outline>
    <contour>
      <point x="321" y="388" type="line"/>
      <point x="520" y="388" type="line"/>
      <point x="520" y="317" type="line"/>
      <point x="321" y="317" type="line"/>
      <point x="321" y="111" type="line"/>
      <point x="249" y="111" type="line"/>
      <point x="249" y="317" type="line"/>
      <point x="50" y="317" type="line"/>
      <point x="50" y="388" type="line"/>
      <point x="249" y="388" type="line"/>
      <point x="249" y="595" type="line"/>
      <point x="321" y="595" type="line"/>
    </contour>
  </outline>
</glyph>
<glyph name="uni002D" format="2">
  <advance width="322" height="1000"/>
  <unicode hex="002D"/>
  <outline>
    <contour>
      <point x="40" y="229" type="line"/>
      <point x="40" y="307" type="line"/>
      <point x="282" y="307" type="line"/>
      <point x="282" y="229" type="line"/>
    </contour>
  </outline>
</glyph>
<glyph name="uni002F" format="2">
  <advance width="372" height="1000"/>
  <unicode hex="002F"/>
  <outline>
    <contour>
      <point x="362" y="714" type="line"/>
      <point x="96" y="0" type="line"/>
      <point x="10" y="0" type="line"/>
      <point x="276" y="714" type="line"/>
    </contour>
  </outline>
</glyph>
<glyph name="uni003D" format="2">
  <advance width="572" height="1000"/>
  <unicode hex="003D"/>
  <outline>
    <contour>
      <point x="56" y="416" type="line"/>
      <point x="56" y="487" type="line"/>
      <point x="514" y="487" type="line"/>
      <point x="514" y="416" type="line"/>
    </contour>
    <contour>
      <point x="56" y="217" type="line"/>
      <point x="56" y="288" type="line"/>
      <point x="514" y="288" type="line"/>
      <point x="514" y="217" type="line"/>
    </contour>
  </outline>
</glyph>
<glyph name="uni007E" format="2">
  <advance width="572" height="1000"/>
  <unicode hex="007E"/>
  <outline>
    <contour>
      <point x="401" y="287" type="curve"/>
      <point x="448" y="287"/>
      <point x="488" y="305"/>
      <point x="521" y="341" type="curve"/>
      <point x="521" y="418" type="line"/>
      <point x="490" y="385"/>
      <point x="446" y="359"/>
      <point x="406" y="359" type="curve"/>
      <point x="378" y="359"/>
      <point x="349" y="365"/>
      <point x="302" y="386" type="curve"/>
      <point x="243" y="411"/>
      <point x="209" y="418"/>
      <point x="170" y="418" type="curve"/>
      <point x="122" y="418"/>
      <point x="82" y="400"/>
      <point x="50" y="365" type="curve"/>
      <point x="50" y="287" type="line"/>
      <point x="82" y="320"/>
      <point x="126" y="346"/>
      <point x="164" y="346" type="curve"/>
      <point x="194" y="346"/>
      <point x="223" y="339"/>
      <point x="269" y="319" type="curve"/>
      <point x="326" y="295"/>
      <point x="361" y="287"/>
    </contour>
  </outline>
</glyph>
<glyph name="uni00B7" format="2">
  <advance width="268" height="1000"/>
  <unicode hex="00B7"/>
  <outline>
    <contour>
      <point x="133" y="339" type="curve"/>
      <point x="168" y="339"/>
      <point x="196" y="359"/>
      <point x="196" y="407" type="curve"/>
      <point x="196" y="456"/>
      <point x="168" y="474"/>
      <point x="133" y="474" type="curve"/>
      <point x="98" y="474"/>
      <point x="72" y="456"/>
      <point x="72" y="407" type="curve"/>
      <point x="72" y="359"/>
      <point x="98" y="339"/>
    </contour>
  </outline>
</glyph>
<glyph name="uni1800" format="2">
  <advance width="534" height="1000"/>
  <unicode hex="1800"/>
  <outline>
    <contour>
      <point x="165" y="-99" type="curve"/>
      <point x="261" y="-99" type="line"/>
      <point x="379" y="53"/>
      <point x="474" y="212"/>
      <point x="474" y="363" type="curve"/>
      <point x="474" y="508"/>
      <point x="400" y="611"/>
      <point x="263" y="611" type="curve"/>
      <point x="140" y="611"/>
      <point x="60" y="525"/>
      <point x="60" y="393" type="curve"/>
      <point x="60" y="297"/>
      <point x="107" y="227"/>
      <point x="200" y="182" type="curve"/>
      <point x="240" y="251" type="line"/>
      <point x="172" y="283"/>
      <point x="138" y="331"/>
      <point x="138" y="393" type="curve"/>
      <point x="138" y="482"/>
      <point x="187" y="531"/>
      <point x="263" y="531" type="curve"/>
      <point x="350" y="531"/>
      <point x="396" y="467"/>
      <point x="396" y="363" type="curve"/>
      <point x="396" y="217"/>
      <point x="291" y="68"/>
    </contour>
  </outline>
</glyph>
<glyph name="uni1801" format="2">
  <advance width="1030" height="1000"/>
  <unicode hex="1801"/>
  <outline>
    <contour>
      <point x="133" y="339" type="curve"/>
      <point x="168" y="339"/>
      <point x="196" y="359"/>
      <point x="196" y="407" type="curve"/>
      <point x="196" y="456"/>
      <point x="168" y="474"/>
      <point x="133" y="474" type="curve"/>
      <point x="98" y="474"/>
      <point x="72" y="456"/>
      <point x="72" y="407" type="curve"/>
      <point x="72" y="359"/>
      <point x="98" y="339"/>
    </contour>
    <contour>
      <point x="387" y="339" type="curve"/>
      <point x="422" y="339"/>
      <point x="450" y="359"/>
      <point x="450" y="407" type="curve"/>
      <point x="450" y="456"/>
      <point x="422" y="474"/>
      <point x="387" y="474" type="curve"/>
      <point x="352" y="474"/>
      <point x="326" y="456"/>
      <point x="326" y="407" type="curve"/>
      <point x="326" y="359"/>
      <point x="352" y="339"/>
    </contour>
    <contour>
      <point x="641" y="339" type="curve"/>
      <point x="676" y="339"/>
      <point x="704" y="359"/>
      <point x="704" y="407" type="curve"/>
      <point x="704" y="456"/>
      <point x="676" y="474"/>
      <point x="641" y="474" type="curve"/>
      <point x="606" y="474"/>
      <point x="580" y="456"/>
      <point x="580" y="407" type="curve"/>
      <point x="580" y="359"/>
      <point x="606" y="339"/>
    </contour>
    <contour>
      <point x="895" y="339" type="curve"/>
      <point x="930" y="339"/>
      <point x="958" y="359"/>
      <point x="958" y="407" type="curve"/>
      <point x="958" y="456"/>
      <point x="930" y="474"/>
      <point x="895" y="474" type="curve"/>
      <point x="860" y="474"/>
      <point x="834" y="456"/>
      <point x="834" y="407" type="curve"/>
      <point x="834" y="359"/>
      <point x="860" y="339"/>
    </contour>
  </outline>
</glyph>
<glyph name="uni1802" format="2">
  <advance width="268" height="1000"/>
  <unicode hex="1802"/>
  <outline>
    <contour>
      <point x="133" y="337" type="curve"/>
      <point x="168" y="337"/>
      <point x="196" y="357"/>
      <point x="196" y="405" type="curve"/>
      <point x="196" y="454"/>
      <point x="168" y="472"/>
      <point x="133" y="472" type="curve"/>
      <point x="98" y="472"/>
      <point x="72" y="454"/>
      <point x="72" y="405" type="curve"/>
      <point x="72" y="357"/>
      <point x="98" y="337"/>
    </contour>
  </outline>
</glyph>
<glyph name="uni1803" format="2">
  <advance width="522" height="1000"/>
  <unicode hex="1803"/>
  <outline>
    <contour>
      <point x="133" y="337" type="curve"/>
      <point x="168" y="337"/>
      <point x="196" y="357"/>
      <point x="196" y="405" type="curve"/>
      <point x="196" y="454"/>
      <point x="168" y="472"/>
      <point x="133" y="472" type="curve"/>
      <point x="98" y="472"/>
      <point x="72" y="454"/>
      <point x="72" y="405" type="curve"/>
      <point x="72" y="357"/>
      <point x="98" y="337"/>
    </contour>
    <contour>
      <point x="387" y="337" type="curve"/>
      <point x="422" y="337"/>
      <point x="450" y="357"/>
      <point x="450" y="405" type="curve"/>
      <point x="450" y="454"/>
      <point x="422" y="472"/>
      <point x="387" y="472" type="curve"/>
      <point x="352" y="472"/>
      <point x="326" y="454"/>
      <point x="326" y="405" type="curve"/>
      <point x="326" y="357"/>
      <point x="352" y="337"/>
    </contour>
  </outline>
</glyph>
<glyph name="uni1804" format="2">
  <advance width="456" height="1000"/>
  <unicode hex="1804"/>
  <outline>
    <contour>
      <point x="321" y="207" type="curve"/>
      <point x="356" y="207"/>
      <point x="384" y="227"/>
      <point x="384" y="275" type="curve"/>
      <point x="384" y="324"/>
      <point x="356" y="342"/>
      <point x="321" y="342" type="curve"/>
      <point x="286" y="342"/>
      <point x="260" y="324"/>
      <point x="260" y="275" type="curve"/>
      <point x="260" y="227"/>
      <point x="286" y="207"/>
    </contour>
    <contour>
      <point x="321" y="467" type="curve"/>
      <point x="356" y="467"/>
      <point x="384" y="487"/>
      <point x="384" y="535" type="curve"/>
      <point x="384" y="584"/>
      <point x="356" y="602"/>
      <point x="321" y="602" type="curve"/>
      <point x="286" y="602"/>
      <point x="260" y="584"/>
      <point x="260" y="535" type="curve"/>
      <point x="260" y="487"/>
      <point x="286" y="467"/>
    </contour>
  </outline>
</glyph>
<glyph name="uni1805" format="2">
  <advance width="582" height="1000"/>
  <unicode hex="1805"/>
  <outline>
    <contour>
      <point x="447" y="337" type="curve"/>
      <point x="482" y="337"/>
      <point x="510" y="357"/>
      <point x="510" y="405" type="curve"/>
      <point x="510" y="454"/>
      <point x="482" y="472"/>
      <point x="447" y="472" type="curve"/>
      <point x="412" y="472"/>
      <point x="386" y="454"/>
      <point x="386" y="405" type="curve"/>
      <point x="386" y="357"/>
      <point x="412" y="337"/>
    </contour>
    <contour>
      <point x="133" y="337" type="curve"/>
      <point x="168" y="337"/>
      <point x="196" y="357"/>
      <point x="196" y="405" type="curve"/>
      <point x="196" y="454"/>
      <point x="168" y="472"/>
      <point x="133" y="472" type="curve"/>
      <point x="98" y="472"/>
      <point x="72" y="454"/>
      <point x="72" y="405" type="curve"/>
      <point x="72" y="357"/>
      <point x="98" y="337"/>
    </contour>
    <contour>
      <point x="290" y="537" type="curve"/>
      <point x="325" y="537"/>
      <point x="353" y="557"/>
      <point x="353" y="605" type="curve"/>
      <point x="353" y="654"/>
      <point x="325" y="672"/>
      <point x="290" y="672" type="curve"/>
      <point x="255" y="672"/>
      <point x="229" y="654"/>
      <point x="229" y="605" type="curve"/>
      <point x="229" y="557"/>
      <point x="255" y="537"/>
    </contour>
    <contour>
      <point x="290" y="137" type="curve"/>
      <point x="325" y="137"/>
      <point x="353" y="157"/>
      <point x="353" y="205" type="curve"/>
      <point x="353" y="254"/>
      <point x="325" y="272"/>
      <point x="290" y="272" type="curve"/>
      <point x="255" y="272"/>
      <point x="229" y="254"/>
      <point x="229" y="205" type="curve"/>
      <point x="229" y="157"/>
      <point x="255" y="137"/>
    </contour>
  </outline>
</glyph>
<glyph name="uni1806" format="2">
  <advance width="400" height="1000"/>
  <unicode hex="1806"/>
  <outline>
    <contour>
      <point x="0" y="364" type="line"/>
      <point x="430" y="364" type="line"/>
      <point x="430" y="444" type="line"/>
      <point x="0" y="444" type="line"/>
    </contour>
  </outline>
</glyph>
<glyph name="uni1808" format="2">
  <advance width="316" height="1000"/>
  <unicode hex="1808"/>
  <outline>
    <contour>
      <point x="72" y="296" type="curve"/>
      <point x="72" y="218" type="line"/>
      <point x="187" y="227"/>
      <point x="244" y="280"/>
      <point x="244" y="404" type="curve"/>
      <point x="244" y="524"/>
      <point x="191" y="580"/>
      <point x="72" y="590" type="curve"/>
      <point x="72" y="512" type="line"/>
      <point x="135" y="505"/>
      <point x="163" y="476"/>
      <point x="163" y="404" type="curve"/>
      <point x="163" y="332"/>
      <point x="135" y="302"/>
    </contour>
  </outline>
</glyph>
<glyph name="uni1809" format="2">
  <advance width="536" height="1000"/>
  <unicode hex="1809"/>
  <outline>
    <contour>
      <point x="72" y="296" type="curve"/>
      <point x="72" y="218" type="line"/>
      <point x="187" y="227"/>
      <point x="244" y="280"/>
      <point x="244" y="404" type="curve"/>
      <point x="244" y="524"/>
      <point x="191" y="580"/>
      <point x="72" y="590" type="curve"/>
      <point x="72" y="512" type="line"/>
      <point x="135" y="505"/>
      <point x="163" y="476"/>
      <point x="163" y="404" type="curve"/>
      <point x="163" y="332"/>
      <point x="135" y="302"/>
    </contour>
    <contour>
      <point x="292" y="296" type="curve"/>
      <point x="292" y="218" type="line"/>
      <point x="407" y="227"/>
      <point x="464" y="280"/>
      <point x="464" y="404" type="curve"/>
      <point x="464" y="524"/>
      <point x="411" y="580"/>
      <point x="292" y="590" type="curve"/>
      <point x="292" y="512" type="line"/>
      <point x="355" y="505"/>
      <point x="383" y="476"/>
      <point x="383" y="404" type="curve"/>
      <point x="383" y="332"/>
      <point x="355" y="302"/>
    </contour>
  </outline>
</glyph>
<glyph name="fvs1" format="2">
  <advance width="770" height="1000"/>
  <unicode hex="180B"/>
  <outline>
    <contour>
      <point x="535" y="67" type="line"/>
      <point x="616" y="67" type="line"/>
      <point x="616" y="93" type="line"/>
      <point x="535" y="93" type="line"/>
    </contour>
    <contour>
      <point x="534" y="708" type="line"/>
      <point x="615" y="708" type="line"/>
      <point x="615" y="734" type="line"/>
      <point x="534" y="734" type="line"/>
    </contour>
    <contour>
      <point x="45" y="665" type="line"/>
      <point x="71" y="665" type="line"/>
      <point x="71" y="708" type="line"/>
      <point x="112" y="708" type="line"/>
      <point x="112" y="733" type="line"/>
      <point x="45" y="733" type="line"/>
    </contour>
    <contour>
      <point x="154" y="708" type="line"/>
      <point x="235" y="708" type="line"/>
      <point x="235" y="733" type="line"/>
      <point x="154" y="733" type="line"/>
    </contour>
    <contour>
      <point x="275" y="707" type="line"/>
      <point x="356" y="707" type="line"/>
      <point x="356" y="733" type="line"/>
      <point x="275" y="733" type="line"/>
    </contour>
    <contour>
      <point x="405" y="707" type="line"/>
      <point x="486" y="707" type="line"/>
      <point x="486" y="733" type="line"/>
      <point x="405" y="733" type="line"/>
    </contour>
    <contour>
      <point x="699" y="666" type="line"/>
      <point x="725" y="666" type="line"/>
      <point x="725" y="733" type="line"/>
      <point x="656" y="733" type="line"/>
      <point x="656" y="707" type="line"/>
      <point x="699" y="707" type="line"/>
    </contour>
    <contour>
      <point x="45" y="544" type="line"/>
      <point x="72" y="544" type="line"/>
      <point x="72" y="624" type="line"/>
      <point x="45" y="624" type="line"/>
    </contour>
    <contour>
      <point x="698" y="544" type="line"/>
      <point x="725" y="544" type="line"/>
      <point x="725" y="624" type="line"/>
      <point x="698" y="624" type="line"/>
    </contour>
    <contour>
      <point x="45" y="422" type="line"/>
      <point x="72" y="422" type="line"/>
      <point x="72" y="503" type="line"/>
      <point x="45" y="503" type="line"/>
    </contour>
    <contour>
      <point x="698" y="422" type="line"/>
      <point x="724" y="422" type="line"/>
      <point x="724" y="503" type="line"/>
      <point x="698" y="503" type="line"/>
    </contour>
    <contour>
      <point x="45" y="301" type="line"/>
      <point x="72" y="301" type="line"/>
      <point x="72" y="382" type="line"/>
      <point x="45" y="382" type="line"/>
    </contour>
    <contour>
      <point x="698" y="301" type="line"/>
      <point x="725" y="301" type="line"/>
      <point x="725" y="381" type="line"/>
      <point x="698" y="381" type="line"/>
    </contour>
    <contour>
      <point x="45" y="179" type="line"/>
      <point x="72" y="179" type="line"/>
      <point x="72" y="260" type="line"/>
      <point x="45" y="260" type="line"/>
    </contour>
    <contour>
      <point x="698" y="180" type="line"/>
      <point x="725" y="180" type="line"/>
      <point x="725" y="260" type="line"/>
      <point x="698" y="260" type="line"/>
    </contour>
    <contour>
      <point x="657" y="67" type="line"/>
      <point x="724" y="67" type="line"/>
      <point x="724" y="136" type="line"/>
      <point x="698" y="136" type="line"/>
      <point x="698" y="92" type="line"/>
      <point x="657" y="92" type="line"/>
    </contour>
    <contour>
      <point x="45" y="69" type="line"/>
      <point x="115" y="69" type="line"/>
      <point x="115" y="94" type="line"/>
      <point x="72" y="94" type="line"/>
      <point x="72" y="135" type="line"/>
      <point x="45" y="135" type="line"/>
    </contour>
    <contour>
      <point x="276" y="68" type="line"/>
      <point x="357" y="68" type="line"/>
      <point x="357" y="94" type="line"/>
      <point x="276" y="94" type="line"/>
    </contour>
    <contour>
      <point x="406" y="68" type="line"/>
      <point x="487" y="68" type="line"/>
      <point x="487" y="94" type="line"/>
      <point x="406" y="94" type="line"/>
    </contour>
    <contour>
      <point x="155" y="66" type="line"/>
      <point x="236" y="66" type="line"/>
      <point x="236" y="93" type="line"/>
      <point x="155" y="93" type="line"/>
    </contour>
    <contour>
      <point x="453" y="604" type="line"/>
      <point x="453" y="176" type="line"/>
      <point x="382" y="176" type="line"/>
      <point x="382" y="452" type="line"/>
      <point x="382" y="469"/>
      <point x="382" y="485"/>
      <point x="384" y="499" type="curve"/>
      <point x="384" y="513"/>
      <point x="385" y="527"/>
      <point x="386" y="541" type="curve"/>
      <point x="373" y="529"/>
      <point x="356" y="514"/>
      <point x="339" y="502" type="curve"/>
      <point x="285" y="463" type="line"/>
      <point x="250" y="512" type="line"/>
      <point x="380" y="604" type="line"/>
    </contour>
  </outline>
</glyph>
<glyph name="fvs2" format="2">
  <advance width="770" height="1000"/>
  <unicode hex="180C"/>
  <outline>
    <contour>
      <point x="535" y="67" type="line"/>
      <point x="616" y="67" type="line"/>
      <point x="616" y="93" type="line"/>
      <point x="535" y="93" type="line"/>
    </contour>
    <contour>
      <point x="534" y="708" type="line"/>
      <point x="615" y="708" type="line"/>
      <point x="615" y="734" type="line"/>
      <point x="534" y="734" type="line"/>
    </contour>
    <contour>
      <point x="45" y="665" type="line"/>
      <point x="71" y="665" type="line"/>
      <point x="71" y="708" type="line"/>
      <point x="112" y="708" type="line"/>
      <point x="112" y="733" type="line"/>
      <point x="45" y="733" type="line"/>
    </contour>
    <contour>
      <point x="154" y="708" type="line"/>
      <point x="235" y="708" type="line"/>
      <point x="235" y="733" type="line"/>
      <point x="154" y="733" type="line"/>
    </contour>
    <contour>
      <point x="275" y="707" type="line"/>
      <point x="356" y="707" type="line"/>
      <point x="356" y="733" type="line"/>
      <point x="275" y="733" type="line"/>
    </contour>
    <contour>
      <point x="405" y="707" type="line"/>
      <point x="486" y="707" type="line"/>
      <point x="486" y="733" type="line"/>
      <point x="405" y="733" type="line"/>
    </contour>
    <contour>
      <point x="699" y="666" type="line"/>
      <point x="725" y="666" type="line"/>
      <point x="725" y="733" type="line"/>
      <point x="656" y="733" type="line"/>
      <point x="656" y="707" type="line"/>
      <point x="699" y="707" type="line"/>
    </contour>
    <contour>
      <point x="45" y="544" type="line"/>
      <point x="72" y="544" type="line"/>
      <point x="72" y="624" type="line"/>
      <point x="45" y="624" type="line"/>
    </contour>
    <contour>
      <point x="698" y="544" type="line"/>
      <point x="725" y="544" type="line"/>
      <point x="725" y="624" type="line"/>
      <point x="698" y="624" type="line"/>
    </contour>
    <contour>
      <point x="45" y="422" type="line"/>
      <point x="72" y="422" type="line"/>
      <point x="72" y="503" type="line"/>
      <point x="45" y="503" type="line"/>
    </contour>
    <contour>
      <point x="698" y="422" type="line"/>
      <point x="724" y="422" type="line"/>
      <point x="724" y="503" type="line"/>
      <point x="698" y="503" type="line"/>
    </contour>
    <contour>
      <point x="45" y="301" type="line"/>
      <point x="72" y="301" type="line"/>
      <point x="72" y="382" type="line"/>
      <point x="45" y="382" type="line"/>
    </contour>
    <contour>
      <point x="698" y="301" type="line"/>
      <point x="725" y="301" type="line"/>
      <point x="725" y="381" type="line"/>
      <point x="698" y="381" type="line"/>
    </contour>
    <contour>
      <point x="45" y="179" type="line"/>
      <point x="72" y="179" type="line"/>
      <point x="72" y="260" type="line"/>
      <point x="45" y="260" type="line"/>
    </contour>
    <contour>
      <point x="698" y="180" type="line"/>
      <point x="725" y="180" type="line"/>
      <point x="725" y="260" type="line"/>
      <point x="698" y="260" type="line"/>
    </contour>
    <contour>
      <point x="657" y="67" type="line"/>
      <point x="724" y="67" type="line"/>
      <point x="724" y="136" type="line"/>
      <point x="698" y="136" type="line"/>
      <point x="698" y="92" type="line"/>
      <point x="657" y="92" type="line"/>
    </contour>
    <contour>
      <point x="45" y="69" type="line"/>
      <point x="115" y="69" type="line"/>
      <point x="115" y="94" type="line"/>
      <point x="72" y="94" type="line"/>
      <point x="72" y="135" type="line"/>
      <point x="45" y="135" type="line"/>
    </contour>
    <contour>
      <point x="276" y="68" type="line"/>
      <point x="357" y="68" type="line"/>
      <point x="357" y="94" type="line"/>
      <point x="276" y="94" type="line"/>
    </contour>
    <contour>
      <point x="406" y="68" type="line"/>
      <point x="487" y="68" type="line"/>
      <point x="487" y="94" type="line"/>
      <point x="406" y="94" type="line"/>
    </contour>
    <contour>
      <point x="155" y="66" type="line"/>
      <point x="236" y="66" type="line"/>
      <point x="236" y="93" type="line"/>
      <point x="155" y="93" type="line"/>
    </contour>
    <contour>
      <point x="526" y="172" type="line"/>
      <point x="244" y="172" type="line"/>
      <point x="244" y="226" type="line"/>
      <point x="359" y="338" type="line" smooth="yes"/>
      <point x="430.10237" y="405.63396"/>
      <point x="456" y="437.23344"/>
      <point x="456" y="487" type="curve" smooth="yes"/>
      <point x="456" y="528.33333"/>
      <point x="429" y="551"/>
      <point x="389" y="551" type="curve" smooth="yes"/>
      <point x="349" y="551"/>
      <point x="318.66667" y="534.66667"/>
      <point x="284" y="508" type="curve"/>
      <point x="249" y="554" type="line"/>
      <point x="287.66667" y="587.33333"/>
      <point x="332.66667" y="609"/>
      <point x="390" y="609" type="curve" smooth="yes"/>
      <point x="475.33333" y="609"/>
      <point x="527" y="564.33333"/>
      <point x="527" y="491" type="curve" smooth="yes"/>
      <point x="527" y="425.66667"/>
      <point x="486.66667" y="381.66667"/>
      <point x="412" y="311" type="curve" smooth="yes"/>
      <point x="331" y="234" type="line"/>
      <point x="526" y="234" type="line"/>
    </contour>
  </outline>
</glyph>
<glyph name="fvs3" format="2">
  <advance width="770" height="1000"/>
  <unicode hex="180D"/>
  <outline>
    <contour>
      <point x="535" y="67" type="line"/>
      <point x="616" y="67" type="line"/>
      <point x="616" y="93" type="line"/>
      <point x="535" y="93" type="line"/>
    </contour>
    <contour>
      <point x="534" y="708" type="line"/>
      <point x="615" y="708" type="line"/>
      <point x="615" y="734" type="line"/>
      <point x="534" y="734" type="line"/>
    </contour>
    <contour>
      <point x="45" y="665" type="line"/>
      <point x="71" y="665" type="line"/>
      <point x="71" y="708" type="line"/>
      <point x="112" y="708" type="line"/>
      <point x="112" y="733" type="line"/>
      <point x="45" y="733" type="line"/>
    </contour>
    <contour>
      <point x="154" y="708" type="line"/>
      <point x="235" y="708" type="line"/>
      <point x="235" y="733" type="line"/>
      <point x="154" y="733" type="line"/>
    </contour>
    <contour>
      <point x="275" y="707" type="line"/>
      <point x="356" y="707" type="line"/>
      <point x="356" y="733" type="line"/>
      <point x="275" y="733" type="line"/>
    </contour>
    <contour>
      <point x="405" y="707" type="line"/>
      <point x="486" y="707" type="line"/>
      <point x="486" y="733" type="line"/>
      <point x="405" y="733" type="line"/>
    </contour>
    <contour>
      <point x="699" y="666" type="line"/>
      <point x="725" y="666" type="line"/>
      <point x="725" y="733" type="line"/>
      <point x="656" y="733" type="line"/>
      <point x="656" y="707" type="line"/>
      <point x="699" y="707" type="line"/>
    </contour>
    <contour>
      <point x="45" y="544" type="line"/>
      <point x="72" y="544" type="line"/>
      <point x="72" y="624" type="line"/>
      <point x="45" y="624" type="line"/>
    </contour>
    <contour>
      <point x="698" y="544" type="line"/>
      <point x="725" y="544" type="line"/>
      <point x="725" y="624" type="line"/>
      <point x="698" y="624" type="line"/>
    </contour>
    <contour>
      <point x="45" y="422" type="line"/>
      <point x="72" y="422" type="line"/>
      <point x="72" y="503" type="line"/>
      <point x="45" y="503" type="line"/>
    </contour>
    <contour>
      <point x="698" y="422" type="line"/>
      <point x="724" y="422" type="line"/>
      <point x="724" y="503" type="line"/>
      <point x="698" y="503" type="line"/>
    </contour>
    <contour>
      <point x="45" y="301" type="line"/>
      <point x="72" y="301" type="line"/>
      <point x="72" y="382" type="line"/>
      <point x="45" y="382" type="line"/>
    </contour>
    <contour>
      <point x="698" y="301" type="line"/>
      <point x="725" y="301" type="line"/>
      <point x="725" y="381" type="line"/>
      <point x="698" y="381" type="line"/>
    </contour>
    <contour>
      <point x="45" y="179" type="line"/>
      <point x="72" y="179" type="line"/>
      <point x="72" y="260" type="line"/>
      <point x="45" y="260" type="line"/>
    </contour>
    <contour>
      <point x="698" y="180" type="line"/>
      <point x="725" y="180" type="line"/>
      <point x="725" y="260" type="line"/>
      <point x="698" y="260" type="line"/>
    </contour>
    <contour>
      <point x="657" y="67" type="line"/>
      <point x="724" y="67" type="line"/>
      <point x="724" y="136" type="line"/>
      <point x="698" y="136" type="line"/>
      <point x="698" y="92" type="line"/>
      <point x="657" y="92" type="line"/>
    </contour>
    <contour>
      <point x="45" y="69" type="line"/>
      <point x="115" y="69" type="line"/>
      <point x="115" y="94" type="line"/>
      <point x="72" y="94" type="line"/>
      <point x="72" y="135" type="line"/>
      <point x="45" y="135" type="line"/>
    </contour>
    <contour>
      <point x="276" y="68" type="line"/>
      <point x="357" y="68" type="line"/>
      <point x="357" y="94" type="line"/>
      <point x="276" y="94" type="line"/>
    </contour>
    <contour>
      <point x="406" y="68" type="line"/>
      <point x="487" y="68" type="line"/>
      <point x="487" y="94" type="line"/>
      <point x="406" y="94" type="line"/>
    </contour>
    <contour>
      <point x="155" y="66" type="line"/>
      <point x="236" y="66" type="line"/>
      <point x="236" y="93" type="line"/>
      <point x="155" y="93" type="line"/>
    </contour>
    <contour>
      <point x="381" y="613" type="curve"/>
      <point x="476" y="613"/>
      <point x="524" y="567"/>
      <point x="524" y="503" type="curve"/>
      <point x="524" y="448"/>
      <point x="491" y="414"/>
      <point x="451" y="401" type="curve"/>
      <point x="451" y="398" type="line"/>
      <point x="503" y="387"/>
      <point x="537" y="354"/>
      <point x="537" y="299" type="curve"/>
      <point x="537" y="222"/>
      <point x="481" y="168"/>
      <point x="364" y="168" type="curve"/>
      <point x="315" y="168"/>
      <point x="273" y="176"/>
      <point x="233" y="196" type="curve"/>
      <point x="233" y="259" type="line"/>
      <point x="280" y="236"/>
      <point x="324" y="225"/>
      <point x="365" y="225" type="curve"/>
      <point x="434" y="225"/>
      <point x="465" y="254"/>
      <point x="465" y="301" type="curve"/>
      <point x="465" y="349"/>
      <point x="424" y="370"/>
      <point x="355" y="370" type="curve"/>
      <point x="298" y="370" type="line"/>
      <point x="298" y="425" type="line"/>
      <point x="355" y="425" type="line"/>
      <point x="422" y="425"/>
      <point x="452" y="454"/>
      <point x="452" y="495" type="curve"/>
      <point x="452" y="536"/>
      <point x="421" y="556"/>
      <point x="382" y="556" type="curve"/>
      <point x="341" y="556"/>
      <point x="307" y="541"/>
      <point x="271" y="518" type="curve"/>
      <point x="235" y="564" type="line"/>
      <point x="276" y="593"/>
      <point x="318" y="613"/>
    </contour>
  </outline>
</glyph>
<glyph name="mvs" format="2">
  <advance width="770" height="1000"/>
  <unicode hex="180E"/>
  <outline>
    <contour>
      <point x="535" y="67" type="line"/>
      <point x="616" y="67" type="line"/>
      <point x="616" y="93" type="line"/>
      <point x="535" y="93" type="line"/>
    </contour>
    <contour>
      <point x="534" y="708" type="line"/>
      <point x="615" y="708" type="line"/>
      <point x="615" y="734" type="line"/>
      <point x="534" y="734" type="line"/>
    </contour>
    <contour>
      <point x="45" y="665" type="line"/>
      <point x="71" y="665" type="line"/>
      <point x="71" y="708" type="line"/>
      <point x="112" y="708" type="line"/>
      <point x="112" y="733" type="line"/>
      <point x="45" y="733" type="line"/>
    </contour>
    <contour>
      <point x="154" y="708" type="line"/>
      <point x="235" y="708" type="line"/>
      <point x="235" y="733" type="line"/>
      <point x="154" y="733" type="line"/>
    </contour>
    <contour>
      <point x="275" y="707" type="line"/>
      <point x="356" y="707" type="line"/>
      <point x="356" y="733" type="line"/>
      <point x="275" y="733" type="line"/>
    </contour>
    <contour>
      <point x="405" y="707" type="line"/>
      <point x="486" y="707" type="line"/>
      <point x="486" y="733" type="line"/>
      <point x="405" y="733" type="line"/>
    </contour>
    <contour>
      <point x="699" y="666" type="line"/>
      <point x="725" y="666" type="line"/>
      <point x="725" y="733" type="line"/>
      <point x="656" y="733" type="line"/>
      <point x="656" y="707" type="line"/>
      <point x="699" y="707" type="line"/>
    </contour>
    <contour>
      <point x="45" y="544" type="line"/>
      <point x="72" y="544" type="line"/>
      <point x="72" y="624" type="line"/>
      <point x="45" y="624" type="line"/>
    </contour>
    <contour>
      <point x="698" y="544" type="line"/>
      <point x="725" y="544" type="line"/>
      <point x="725" y="624" type="line"/>
      <point x="698" y="624" type="line"/>
    </contour>
    <contour>
      <point x="478" y="428" type="line"/>
      <point x="514" y="428" type="line"/>
      <point x="576" y="610" type="line"/>
      <point x="537" y="610" type="line"/>
      <point x="497" y="472" type="line"/>
      <point x="458" y="610" type="line"/>
      <point x="417" y="610" type="line"/>
    </contour>
    <contour>
      <point x="160" y="427" type="line"/>
      <point x="195" y="427" type="line"/>
      <point x="195" y="576" type="line"/>
      <point x="230" y="427" type="line"/>
      <point x="266" y="427" type="line"/>
      <point x="300" y="580" type="line"/>
      <point x="300" y="427" type="line"/>
      <point x="335" y="427" type="line"/>
      <point x="335" y="609" type="line"/>
      <point x="280" y="609" type="line"/>
      <point x="248" y="466" type="line"/>
      <point x="215" y="609" type="line"/>
      <point x="160" y="609" type="line"/>
    </contour>
    <contour>
      <point x="45" y="422" type="line"/>
      <point x="72" y="422" type="line"/>
      <point x="72" y="503" type="line"/>
      <point x="45" y="503" type="line"/>
    </contour>
    <contour>
      <point x="698" y="422" type="line"/>
      <point x="724" y="422" type="line"/>
      <point x="724" y="503" type="line"/>
      <point x="698" y="503" type="line"/>
    </contour>
    <contour>
      <point x="45" y="301" type="line"/>
      <point x="72" y="301" type="line"/>
      <point x="72" y="382" type="line"/>
      <point x="45" y="382" type="line"/>
    </contour>
    <contour>
      <point x="698" y="301" type="line"/>
      <point x="725" y="301" type="line"/>
      <point x="725" y="381" type="line"/>
      <point x="698" y="381" type="line"/>
    </contour>
    <contour>
      <point x="382" y="182" type="curve"/>
      <point x="431" y="182"/>
      <point x="455" y="201"/>
      <point x="455" y="240" type="curve"/>
      <point x="455" y="266"/>
      <point x="439" y="283"/>
      <point x="407" y="290" type="curve"/>
      <point x="376" y="297" type="line"/>
      <point x="354" y="302"/>
      <point x="343" y="310"/>
      <point x="343" y="320" type="curve"/>
      <point x="344" y="335"/>
      <point x="354" y="342"/>
      <point x="375" y="342" type="curve"/>
      <point x="399" y="342"/>
      <point x="411" y="333"/>
      <point x="412" y="314" type="curve"/>
      <point x="448" y="314" type="line"/>
      <point x="447" y="333"/>
      <point x="441" y="348"/>
      <point x="428" y="358" type="curve"/>
      <point x="415" y="368"/>
      <point x="399" y="373"/>
      <point x="378" y="373" type="curve"/>
      <point x="358" y="373"/>
      <point x="342" y="369"/>
      <point x="329" y="360" type="curve"/>
      <point x="315" y="351"/>
      <point x="308" y="336"/>
      <point x="308" y="317" type="curve"/>
      <point x="308" y="298"/>
      <point x="314" y="285"/>
      <point x="327" y="277" type="curve"/>
      <point x="334" y="272"/>
      <point x="347" y="267"/>
      <point x="366" y="263" type="curve"/>
      <point x="385" y="259" type="line"/>
      <point x="407" y="255"/>
      <point x="418" y="247"/>
      <point x="418" y="236" type="curve"/>
      <point x="418" y="221"/>
      <point x="405" y="213"/>
      <point x="380" y="213" type="curve"/>
      <point x="357" y="213"/>
      <point x="344" y="223"/>
      <point x="341" y="243" type="curve"/>
      <point x="305" y="243" type="line"/>
      <point x="305" y="222"/>
      <point x="313" y="207"/>
      <point x="329" y="196" type="curve"/>
      <point x="342" y="187"/>
      <point x="360" y="182"/>
    </contour>
    <contour>
      <point x="45" y="179" type="line"/>
      <point x="72" y="179" type="line"/>
      <point x="72" y="260" type="line"/>
      <point x="45" y="260" type="line"/>
    </contour>
    <contour>
      <point x="698" y="180" type="line"/>
      <point x="725" y="180" type="line"/>
      <point x="725" y="260" type="line"/>
      <point x="698" y="260" type="line"/>
    </contour>
    <contour>
      <point x="657" y="67" type="line"/>
      <point x="724" y="67" type="line"/>
      <point x="724" y="136" type="line"/>
      <point x="698" y="136" type="line"/>
      <point x="698" y="92" type="line"/>
      <point x="657" y="92" type="line"/>
    </contour>
    <contour>
      <point x="45" y="69" type="line"/>
      <point x="115" y="69" type="line"/>
      <point x="115" y="94" type="line"/>
      <point x="72" y="94" type="line"/>
      <point x="72" y="135" type="line"/>
      <point x="45" y="135" type="line"/>
    </contour>
    <contour>
      <point x="276" y="68" type="line"/>
      <point x="357" y="68" type="line"/>
      <point x="357" y="94" type="line"/>
      <point x="276" y="94" type="line"/>
    </contour>
    <contour>
      <point x="406" y="68" type="line"/>
      <point x="487" y="68" type="line"/>
      <point x="487" y="94" type="line"/>
      <point x="406" y="94" type="line"/>
    </contour>
    <contour>
      <point x="155" y="66" type="line"/>
      <point x="236" y="66" type="line"/>
      <point x="236" y="93" type="line"/>
      <point x="155" y="93" type="line"/>
    </contour>
  </outline>
</glyph>
<glyph name="fvs4" format="2">
  <advance width="770" height="1000"/>
  <unicode hex="180F"/>
  <outline>
    <contour>
      <point x="535" y="67" type="line"/>
      <point x="616" y="67" type="line"/>
      <point x="616" y="93" type="line"/>
      <point x="535" y="93" type="line"/>
    </contour>
    <contour>
      <point x="534" y="708" type="line"/>
      <point x="615" y="708" type="line"/>
      <point x="615" y="734" type="line"/>
      <point x="534" y="734" type="line"/>
    </contour>
    <contour>
      <point x="45" y="665" type="line"/>
      <point x="71" y="665" type="line"/>
      <point x="71" y="708" type="line"/>
      <point x="112" y="708" type="line"/>
      <point x="112" y="733" type="line"/>
      <point x="45" y="733" type="line"/>
    </contour>
    <contour>
      <point x="154" y="708" type="line"/>
      <point x="235" y="708" type="line"/>
      <point x="235" y="733" type="line"/>
      <point x="154" y="733" type="line"/>
    </contour>
    <contour>
      <point x="275" y="707" type="line"/>
      <point x="356" y="707" type="line"/>
      <point x="356" y="733" type="line"/>
      <point x="275" y="733" type="line"/>
    </contour>
    <contour>
      <point x="405" y="707" type="line"/>
      <point x="486" y="707" type="line"/>
      <point x="486" y="733" type="line"/>
      <point x="405" y="733" type="line"/>
    </contour>
    <contour>
      <point x="699" y="666" type="line"/>
      <point x="725" y="666" type="line"/>
      <point x="725" y="733" type="line"/>
      <point x="656" y="733" type="line"/>
      <point x="656" y="707" type="line"/>
      <point x="699" y="707" type="line"/>
    </contour>
    <contour>
      <point x="45" y="544" type="line"/>
      <point x="72" y="544" type="line"/>
      <point x="72" y="624" type="line"/>
      <point x="45" y="624" type="line"/>
    </contour>
    <contour>
      <point x="698" y="544" type="line"/>
      <point x="725" y="544" type="line"/>
      <point x="725" y="624" type="line"/>
      <point x="698" y="624" type="line"/>
    </contour>
    <contour>
      <point x="45" y="422" type="line"/>
      <point x="72" y="422" type="line"/>
      <point x="72" y="503" type="line"/>
      <point x="45" y="503" type="line"/>
    </contour>
    <contour>
      <point x="698" y="422" type="line"/>
      <point x="724" y="422" type="line"/>
      <point x="724" y="503" type="line"/>
      <point x="698" y="503" type="line"/>
    </contour>
    <contour>
      <point x="45" y="301" type="line"/>
      <point x="72" y="301" type="line"/>
      <point x="72" y="382" type="line"/>
      <point x="45" y="382" type="line"/>
    </contour>
    <contour>
      <point x="698" y="301" type="line"/>
      <point x="725" y="301" type="line"/>
      <point x="725" y="381" type="line"/>
      <point x="698" y="381" type="line"/>
    </contour>
    <contour>
      <point x="45" y="179" type="line"/>
      <point x="72" y="179" type="line"/>
      <point x="72" y="260" type="line"/>
      <point x="45" y="260" type="line"/>
    </contour>
    <contour>
      <point x="698" y="180" type="line"/>
      <point x="725" y="180" type="line"/>
      <point x="725" y="260" type="line"/>
      <point x="698" y="260" type="line"/>
    </contour>
    <contour>
      <point x="657" y="67" type="line"/>
      <point x="724" y="67" type="line"/>
      <point x="724" y="136" type="line"/>
      <point x="698" y="136" type="line"/>
      <point x="698" y="92" type="line"/>
      <point x="657" y="92" type="line"/>
    </contour>
    <contour>
      <point x="45" y="69" type="line"/>
      <point x="115" y="69" type="line"/>
      <point x="115" y="94" type="line"/>
      <point x="72" y="94" type="line"/>
      <point x="72" y="135" type="line"/>
      <point x="45" y="135" type="line"/>
    </contour>
    <contour>
      <point x="276" y="68" type="line"/>
      <point x="357" y="68" type="line"/>
      <point x="357" y="94" type="line"/>
      <point x="276" y="94" type="line"/>
    </contour>
    <contour>
      <point x="406" y="68" type="line"/>
      <point x="487" y="68" type="line"/>
      <point x="487" y="94" type="line"/>
      <point x="406" y="94" type="line"/>
    </contour>
    <contour>
      <point x="155" y="66" type="line"/>
      <point x="236" y="66" type="line"/>
      <point x="236" y="93" type="line"/>
      <point x="155" y="93" type="line"/>
    </contour>
    <contour>
      <point x="551" y="271" type="line"/>
      <point x="490" y="271" type="line"/>
      <point x="490" y="175" type="line"/>
      <point x="415" y="175" type="line"/>
      <point x="415" y="271" type="line"/>
      <point x="220" y="271" type="line"/>
      <point x="220" y="323" type="line"/>
      <point x="417" y="606" type="line"/>
      <point x="490" y="606" type="line"/>
      <point x="490" y="331" type="line"/>
      <point x="551" y="331" type="line"/>
    </contour>
    <contour>
      <point x="415" y="331" type="line"/>
      <point x="415" y="424" type="line" smooth="yes"/>
      <point x="415" y="452"/>
      <point x="415.33333" y="493"/>
      <point x="418" y="525" type="curve"/>
      <point x="414.66667" y="517.66667"/>
      <point x="407.66667" y="505.83333"/>
      <point x="397" y="489.5" type="curve" smooth="yes"/>
      <point x="386.33333" y="473.16667"/>
      <point x="377.33333" y="459.33333"/>
      <point x="370" y="448" type="curve" smooth="yes"/>
      <point x="290" y="331" type="line"/>
    </contour>
  </outline>
</glyph>
<glyph name="uni1810" format="2">
  <advance width="572" height="1000"/>
  <unicode hex="1810"/>
  <outline>
    <contour>
      <point x="285" y="-10" type="curve"/>
      <point x="445" y="-10"/>
      <point x="523" y="108"/>
      <point x="523" y="358" type="curve"/>
      <point x="523" y="557"/>
      <point x="464" y="725"/>
      <point x="285" y="725" type="curve"/>
      <point x="125" y="725"/>
      <point x="49" y="605"/>
      <point x="49" y="358" type="curve"/>
      <point x="49" y="116"/>
      <point x="131" y="-10"/>
    </contour>
    <contour>
      <point x="285" y="65" type="curve"/>
      <point x="162" y="65"/>
      <point x="137" y="192"/>
      <point x="137" y="358" type="curve"/>
      <point x="137" y="519"/>
      <point x="161" y="650"/>
      <point x="285" y="650" type="curve"/>
      <point x="407" y="650"/>
      <point x="434" y="521"/>
      <point x="434" y="358" type="curve"/>
      <point x="434" y="196"/>
      <point x="409" y="65"/>
    </contour>
  </outline>
</glyph>
<glyph name="uni1811" format="2">
  <advance width="572" height="1000"/>
  <unicode hex="1811"/>
  <outline>
    <contour>
      <point x="205" y="-10" type="curve"/>
      <point x="421" y="-10"/>
      <point x="523" y="125"/>
      <point x="523" y="388" type="curve"/>
      <point x="523" y="579"/>
      <point x="459" y="725"/>
      <point x="281" y="725" type="curve"/>
      <point x="128" y="725"/>
      <point x="49" y="627"/>
      <point x="49" y="458" type="curve"/>
      <point x="49" y="331"/>
      <point x="108" y="264"/>
      <point x="227" y="264" type="curve"/>
      <point x="248" y="264"/>
      <point x="265" y="268"/>
      <point x="280" y="275" type="curve"/>
      <point x="280" y="349" type="line"/>
      <point x="265" y="342"/>
      <point x="248" y="339"/>
      <point x="228" y="339" type="curve"/>
      <point x="168" y="339"/>
      <point x="137" y="374"/>
      <point x="137" y="458" type="curve"/>
      <point x="137" y="577"/>
      <point x="166" y="650"/>
      <point x="281" y="650" type="curve"/>
      <point x="390" y="650"/>
      <point x="434" y="563"/>
      <point x="434" y="388" type="curve"/>
      <point x="434" y="189"/>
      <point x="380" y="65"/>
      <point x="205" y="65" type="curve"/>
      <point x="168" y="65"/>
      <point x="136" y="71"/>
      <point x="108" y="83" type="curve"/>
      <point x="108" y="4" type="line"/>
      <point x="135" y="-5"/>
      <point x="167" y="-10"/>
    </contour>
  </outline>
</glyph>
<glyph name="uni1812" format="2">
  <advance width="605" height="1000"/>
  <unicode hex="1812"/>
  <outline>
    <contour>
      <point x="128" y="0" type="curve"/>
      <point x="214" y="0" type="line"/>
      <point x="161" y="139"/>
      <point x="135" y="263"/>
      <point x="135" y="406" type="curve"/>
      <point x="135" y="539"/>
      <point x="182" y="649"/>
      <point x="297" y="649" type="curve"/>
      <point x="394" y="649"/>
      <point x="449" y="572"/>
      <point x="449" y="436" type="curve"/>
      <point x="449" y="289"/>
      <point x="394" y="163"/>
      <point x="310" y="0" type="curve"/>
      <point x="565" y="0" type="line"/>
      <point x="565" y="80" type="line"/>
      <point x="420" y="80" type="line"/>
      <point x="497" y="207"/>
      <point x="535" y="325"/>
      <point x="535" y="436" type="curve"/>
      <point x="535" y="606"/>
      <point x="457" y="724"/>
      <point x="297" y="724" type="curve"/>
      <point x="133" y="724"/>
      <point x="49" y="590"/>
      <point x="49" y="406" type="curve"/>
      <point x="49" y="271"/>
      <point x="76" y="128"/>
    </contour>
  </outline>
</glyph>
<glyph name="uni1813" format="2">
  <advance width="875" height="1000"/>
  <unicode hex="1813"/>
  <outline>
    <contour>
      <point x="128" y="0" type="curve"/>
      <point x="214" y="0" type="line"/>
      <point x="161" y="139"/>
      <point x="135" y="263"/>
      <point x="135" y="406" type="curve"/>
      <point x="135" y="533"/>
      <point x="173" y="649"/>
      <point x="277" y="649" type="curve"/>
      <point x="379" y="649"/>
      <point x="419" y="537"/>
      <point x="419" y="406" type="curve"/>
      <point x="419" y="271"/>
      <point x="390" y="160"/>
      <point x="340" y="0" type="curve"/>
      <point x="426" y="0" type="line"/>
      <point x="474" y="141"/>
      <point x="505" y="270"/>
      <point x="505" y="406" type="curve"/>
      <point x="505" y="480"/>
      <point x="494" y="544"/>
      <point x="471" y="595" type="curve"/>
      <point x="496" y="631"/>
      <point x="531" y="649"/>
      <point x="577" y="649" type="curve"/>
      <point x="667" y="649"/>
      <point x="719" y="572"/>
      <point x="719" y="436" type="curve"/>
      <point x="719" y="289"/>
      <point x="664" y="163"/>
      <point x="580" y="0" type="curve"/>
      <point x="835" y="0" type="line"/>
      <point x="835" y="80" type="line"/>
      <point x="691" y="80" type="line"/>
      <point x="761" y="204"/>
      <point x="805" y="307"/>
      <point x="805" y="436" type="curve"/>
      <point x="805" y="599"/>
      <point x="735" y="724"/>
      <point x="577" y="724" type="curve"/>
      <point x="512" y="724"/>
      <point x="462" y="703"/>
      <point x="429" y="660" type="curve"/>
      <point x="390" y="703"/>
      <point x="339" y="724"/>
      <point x="277" y="724" type="curve"/>
      <point x="123" y="724"/>
      <point x="49" y="585"/>
      <point x="49" y="406" type="curve"/>
      <point x="49" y="271"/>
      <point x="76" y="128"/>
    </contour>
  </outline>
</glyph>
<glyph name="uni1814" format="2">
  <advance width="534" height="1000"/>
  <unicode hex="1814"/>
  <outline>
    <contour>
      <point x="266" y="-10" type="curve"/>
      <point x="408" y="-10"/>
      <point x="484" y="85"/>
      <point x="484" y="238" type="curve"/>
      <point x="484" y="403"/>
      <point x="397" y="568"/>
      <point x="280" y="714" type="curve"/>
      <point x="173" y="714" type="line"/>
      <point x="235" y="641"/>
      <point x="288" y="563"/>
      <point x="332" y="479" type="curve"/>
      <point x="376" y="396"/>
      <point x="398" y="315"/>
      <point x="398" y="238" type="curve"/>
      <point x="398" y="140"/>
      <point x="353" y="65"/>
      <point x="266" y="65" type="curve"/>
      <point x="182" y="65"/>
      <point x="136" y="137"/>
      <point x="136" y="238" type="curve"/>
      <point x="136" y="335"/>
      <point x="172" y="395"/>
      <point x="253" y="454" type="curve"/>
      <point x="206" y="513" type="line"/>
      <point x="100" y="442"/>
      <point x="50" y="359"/>
      <point x="50" y="238" type="curve"/>
      <point x="50" y="91"/>
      <point x="120" y="-10"/>
    </contour>
  </outline>
</glyph>
<glyph name="uni1815" format="2">
  <advance width="712" height="1000"/>
  <unicode hex="1815"/>
  <outline>
    <contour>
      <point x="175" y="-10" type="curve"/>
      <point x="294" y="-10"/>
      <point x="334" y="84"/>
      <point x="369" y="239" type="curve"/>
      <point x="424" y="483" type="line"/>
      <point x="429" y="506"/>
      <point x="439" y="558"/>
      <point x="452" y="636" type="curve"/>
      <point x="465" y="554"/>
      <point x="475" y="503"/>
      <point x="480" y="483" type="curve"/>
      <point x="598" y="0" type="line"/>
      <point x="687" y="0" type="line"/>
      <point x="507" y="714" type="line"/>
      <point x="393" y="714" type="line"/>
      <point x="287" y="260" type="line"/>
      <point x="255" y="124"/>
      <point x="230" y="65"/>
      <point x="175" y="65" type="curve"/>
      <point x="140" y="65"/>
      <point x="116" y="94"/>
      <point x="116" y="150" type="curve"/>
      <point x="116" y="213"/>
      <point x="128" y="266"/>
      <point x="156" y="319" type="curve"/>
      <point x="67" y="319" type="line"/>
      <point x="40" y="260"/>
      <point x="30" y="215"/>
      <point x="30" y="150" type="curve"/>
      <point x="30" y="48"/>
      <point x="81" y="-10"/>
    </contour>
  </outline>
</glyph>
<glyph name="uni1816" format="2">
  <advance width="630" height="1000"/>
  <unicode hex="1816"/>
  <outline>
    <contour>
      <point x="298" y="-10" type="curve"/>
      <point x="446" y="-10"/>
      <point x="529" y="63"/>
      <point x="529" y="218" type="curve"/>
      <point x="529" y="354"/>
      <point x="460" y="428"/>
      <point x="333" y="428" type="curve"/>
      <point x="330" y="428"/>
      <point x="328" y="428"/>
      <point x="323" y="427" type="curve"/>
      <point x="323" y="511" type="line"/>
      <point x="237" y="511" type="line"/>
      <point x="237" y="238" type="line"/>
      <point x="323" y="238" type="line"/>
      <point x="323" y="357" type="line"/>
      <point x="333" y="357" type="line"/>
      <point x="405" y="357"/>
      <point x="440" y="314"/>
      <point x="440" y="218" type="curve"/>
      <point x="440" y="120"/>
      <point x="391" y="65"/>
      <point x="298" y="65" type="curve"/>
      <point x="173" y="65"/>
      <point x="118" y="186"/>
      <point x="118" y="338" type="curve"/>
      <point x="118" y="547"/>
      <point x="195" y="649"/>
      <point x="359" y="649" type="curve"/>
      <point x="412" y="649"/>
      <point x="458" y="638"/>
      <point x="495" y="617" type="curve"/>
      <point x="495" y="699" type="line"/>
      <point x="463" y="715"/>
      <point x="400" y="724"/>
      <point x="357" y="724" type="curve"/>
      <point x="142" y="724"/>
      <point x="30" y="588"/>
      <point x="30" y="338" type="curve"/>
      <point x="30" y="136"/>
      <point x="111" y="-10"/>
    </contour>
  </outline>
</glyph>
<glyph name="uni1817" format="2">
  <advance width="630" height="1000"/>
  <unicode hex="1817"/>
  <outline>
    <contour>
      <point x="402" y="-10" type="curve"/>
      <point x="533" y="-10"/>
      <point x="592" y="99"/>
      <point x="592" y="248" type="curve"/>
      <point x="592" y="526"/>
      <point x="482" y="724"/>
      <point x="225" y="724" type="curve"/>
      <point x="182" y="724"/>
      <point x="135" y="715"/>
      <point x="107" y="699" type="curve"/>
      <point x="107" y="621" type="line"/>
      <point x="138" y="640"/>
      <point x="176" y="649"/>
      <point x="223" y="649" type="curve"/>
      <point x="407" y="649"/>
      <point x="504" y="511"/>
      <point x="504" y="248" type="curve"/>
      <point x="504" y="156"/>
      <point x="474" y="65"/>
      <point x="402" y="65" type="curve"/>
      <point x="366" y="65"/>
      <point x="340" y="90"/>
      <point x="340" y="158" type="curve"/>
      <point x="340" y="268" type="line"/>
      <point x="340" y="368"/>
      <point x="294" y="426"/>
      <point x="197" y="426" type="curve"/>
      <point x="99" y="426"/>
      <point x="42" y="364"/>
      <point x="42" y="229" type="curve"/>
      <point x="42" y="139"/>
      <point x="60" y="63"/>
      <point x="95" y="0" type="curve"/>
      <point x="185" y="0" type="line"/>
      <point x="148" y="60"/>
      <point x="130" y="137"/>
      <point x="130" y="229" type="curve"/>
      <point x="130" y="317"/>
      <point x="157" y="351"/>
      <point x="197" y="351" type="curve"/>
      <point x="236" y="351"/>
      <point x="254" y="332"/>
      <point x="254" y="268" type="curve"/>
      <point x="254" y="158" type="line"/>
      <point x="254" y="46"/>
      <point x="303" y="-10"/>
    </contour>
  </outline>
</glyph>
<glyph name="uni1818" format="2">
  <advance width="564" height="1000"/>
  <unicode hex="1818"/>
  <outline>
    <contour>
      <point x="40" y="0" type="curve"/>
      <point x="484" y="0" type="line"/>
      <point x="484" y="121"/>
      <point x="494" y="218"/>
      <point x="514" y="293" type="curve"/>
      <point x="433" y="293" type="line"/>
      <point x="414" y="231"/>
      <point x="403" y="148"/>
      <point x="403" y="80" type="curve"/>
      <point x="135" y="80" type="line"/>
      <point x="148" y="305"/>
      <point x="236" y="504"/>
      <point x="372" y="714" type="curve"/>
      <point x="272" y="714" type="line"/>
      <point x="121" y="470"/>
      <point x="60" y="286"/>
    </contour>
  </outline>
</glyph>
<glyph name="uni1819" format="2">
  <advance width="534" height="1000"/>
  <unicode hex="1819"/>
  <outline>
    <contour>
      <point x="254" y="0" type="curve"/>
      <point x="361" y="0" type="line"/>
      <point x="241" y="146"/>
      <point x="136" y="314"/>
      <point x="136" y="476" type="curve"/>
      <point x="136" y="585"/>
      <point x="186" y="649"/>
      <point x="268" y="649" type="curve"/>
      <point x="342" y="649"/>
      <point x="391" y="600"/>
      <point x="391" y="516" type="curve"/>
      <point x="391" y="442"/>
      <point x="361" y="378"/>
      <point x="302" y="322" type="curve"/>
      <point x="302" y="262" type="line"/>
      <point x="487" y="262" type="line"/>
      <point x="487" y="342" type="line"/>
      <point x="394" y="342" type="line"/>
      <point x="450" y="391"/>
      <point x="478" y="456"/>
      <point x="478" y="516" type="curve"/>
      <point x="478" y="646"/>
      <point x="406" y="724"/>
      <point x="268" y="724" type="curve"/>
      <point x="120" y="724"/>
      <point x="50" y="622"/>
      <point x="50" y="472" type="curve"/>
      <point x="50" y="382"/>
      <point x="73" y="302"/>
      <point x="111" y="225" type="curve"/>
      <point x="148" y="149"/>
      <point x="199" y="73"/>
    </contour>
  </outline>
</glyph>
<glyph name="uni1821" format="2">
  <advance width="824" height="1000"/>
  <unicode hex="1821"/>
  <outline>
    <contour>
      <point x="600" y="-264" type="line"/>
      <point x="586" y="-239"/>
      <point x="579" y="-214"/>
      <point x="579" y="-187" type="curve"/>
      <point x="579" y="-158"/>
      <point x="584" y="-133"/>
      <point x="595" y="-110" type="curve"/>
      <point x="605" y="-88"/>
      <point x="622" y="-62"/>
      <point x="646" y="-31" type="curve"/>
      <point x="691" y="26"/>
      <point x="724" y="75"/>
      <point x="746" y="118" type="curve"/>
      <point x="768" y="161"/>
      <point x="779" y="203"/>
      <point x="779" y="245" type="curve"/>
      <point x="778" y="378"/>
      <point x="701" y="444"/>
      <point x="548" y="444" type="curve"/>
      <point x="444" y="444" type="line"/>
      <point x="360" y="444"/>
      <point x="307" y="416"/>
      <point x="285" y="361" type="curve"/>
      <point x="281" y="361" type="line"/>
      <point x="278" y="445" type="line"/>
      <point x="277" y="536"/>
      <point x="258" y="597"/>
      <point x="223" y="628" type="curve"/>
      <point x="204" y="645"/>
      <point x="176" y="653"/>
      <point x="139" y="653" type="curve"/>
      <point x="100" y="653"/>
      <point x="57" y="643"/>
      <point x="10" y="623" type="curve"/>
      <point x="10" y="550" type="line"/>
      <point x="51" y="567"/>
      <point x="87" y="575"/>
      <point x="118" y="575" type="curve"/>
      <point x="147" y="575"/>
      <point x="167" y="564"/>
      <point x="179" y="541" type="curve"/>
      <point x="191" y="518"/>
      <point x="198" y="483"/>
      <point x="200" y="437" type="curve"/>
      <point x="226" y="74" type="line"/>
      <point x="292" y="74" type="line"/>
      <point x="302" y="219" type="line"/>
      <point x="305" y="293"/>
      <point x="324" y="337"/>
      <point x="361" y="351" type="curve"/>
      <point x="381" y="360"/>
      <point x="409" y="364"/>
      <point x="445" y="364" type="curve"/>
      <point x="551" y="364" type="line"/>
      <point x="651" y="364"/>
      <point x="701" y="324"/>
      <point x="701" y="245" type="curve"/>
      <point x="701" y="214"/>
      <point x="693" y="182"/>
      <point x="676" y="150" type="curve"/>
      <point x="659" y="117"/>
      <point x="631" y="77"/>
      <point x="594" y="28" type="curve"/>
      <point x="563" y="-12"/>
      <point x="539" y="-49"/>
      <point x="523" y="-83" type="curve"/>
      <point x="507" y="-118"/>
      <point x="499" y="-152"/>
      <point x="499" y="-187" type="curve"/>
      <point x="499" y="-218"/>
      <point x="505" y="-243"/>
      <point x="518" y="-264" type="curve"/>
    </contour>
  </outline>
</glyph>
<glyph name="uni1827" format="2">
  <advance width="1200" height="1000"/>
  <unicode hex="1827"/>
  <outline>
    <contour>
      <point x="801" y="-119" type="curve"/>
      <point x="838" y="-119"/>
      <point x="866" y="-108"/>
      <point x="884" y="-85" type="curve"/>
      <point x="884" y="6" type="line"/>
      <point x="866" y="-22"/>
      <point x="838" y="-36"/>
      <point x="801" y="-36" type="curve"/>
      <point x="762" y="-36"/>
      <point x="727" y="-4"/>
      <point x="694" y="59" type="curve"/>
      <point x="679" y="88"/>
      <point x="663" y="119"/>
      <point x="648" y="153" type="curve"/>
      <point x="616" y="227"/>
      <point x="590" y="297"/>
      <point x="571" y="364" type="curve"/>
      <point x="980" y="364" type="line"/>
      <point x="1015" y="364"/>
      <point x="1040" y="357"/>
      <point x="1055" y="343" type="curve"/>
      <point x="1070" y="328"/>
      <point x="1078" y="307"/>
      <point x="1078" y="279" type="curve"/>
      <point x="1078" y="235"/>
      <point x="1071" y="196"/>
      <point x="1056" y="162" type="curve"/>
      <point x="1130" y="162" type="line"/>
      <point x="1147" y="198"/>
      <point x="1155" y="237"/>
      <point x="1155" y="279" type="curve"/>
      <point x="1155" y="282" type="line"/>
      <point x="1155" y="390"/>
      <point x="1096" y="444"/>
      <point x="980" y="444" type="curve"/>
      <point x="444" y="444" type="line"/>
      <point x="360" y="444"/>
      <point x="307" y="416"/>
      <point x="285" y="361" type="curve"/>
      <point x="281" y="361" type="line"/>
      <point x="278" y="445" type="line"/>
      <point x="277" y="536"/>
      <point x="258" y="597"/>
      <point x="223" y="628" type="curve"/>
      <point x="204" y="645"/>
      <point x="176" y="653"/>
      <point x="139" y="653" type="curve"/>
      <point x="100" y="653"/>
      <point x="57" y="643"/>
      <point x="10" y="623" type="curve"/>
      <point x="10" y="550" type="line"/>
      <point x="51" y="567"/>
      <point x="87" y="575"/>
      <point x="118" y="575" type="curve"/>
      <point x="147" y="575"/>
      <point x="167" y="564"/>
      <point x="179" y="541" type="curve"/>
      <point x="191" y="518"/>
      <point x="198" y="483"/>
      <point x="200" y="437" type="curve"/>
      <point x="226" y="74" type="line"/>
      <point x="292" y="74" type="line"/>
      <point x="302" y="219" type="line"/>
      <point x="305" y="291"/>
      <point x="325" y="335"/>
      <point x="361" y="350" type="curve"/>
      <point x="380" y="359"/>
      <point x="408" y="364"/>
      <point x="445" y="364" type="curve"/>
      <point x="492" y="364" type="line"/>
      <point x="515" y="281"/>
      <point x="541" y="204"/>
      <point x="570" y="132" type="curve"/>
      <point x="613" y="22"/>
      <point x="658" y="-51"/>
      <point x="703" y="-88" type="curve"/>
      <point x="730" y="-109"/>
      <point x="762" y="-119"/>
    </contour>
  </outline>
</glyph>
<glyph name="uni1828" format="2">
  <advance width="567" height="1000"/>
  <unicode hex="1828"/>
  <outline>
    <contour>
      <point x="226" y="74" type="line"/>
      <point x="292" y="74" type="line"/>
      <point x="302" y="219" type="line"/>
      <point x="305" y="260"/>
      <point x="311" y="290"/>
      <point x="320" y="309" type="curve"/>
      <point x="329" y="329"/>
      <point x="343" y="343"/>
      <point x="361" y="351" type="curve"/>
      <point x="379" y="360"/>
      <point x="407" y="364"/>
      <point x="445" y="364" type="curve"/>
      <point x="522" y="364" type="line"/>
      <point x="522" y="444" type="line"/>
      <point x="444" y="444" type="line"/>
      <point x="360" y="444"/>
      <point x="307" y="416"/>
      <point x="285" y="361" type="curve"/>
      <point x="281" y="361" type="line"/>
      <point x="278" y="445" type="line"/>
      <point x="276" y="519"/>
      <point x="265" y="572"/>
      <point x="244" y="604" type="curve"/>
      <point x="224" y="637"/>
      <point x="189" y="653"/>
      <point x="139" y="653" type="curve"/>
      <point x="100" y="653"/>
      <point x="57" y="643"/>
      <point x="10" y="623" type="curve"/>
      <point x="10" y="550" type="line"/>
      <point x="52" y="567"/>
      <point x="88" y="575"/>
      <point x="118" y="575" type="curve"/>
      <point x="146" y="575"/>
      <point x="166" y="565"/>
      <point x="177" y="544" type="curve"/>
      <point x="189" y="523"/>
      <point x="197" y="487"/>
      <point x="200" y="437" type="curve"/>
    </contour>
    <contour>
      <point x="401" y="-47" type="curve"/>
      <point x="340" y="22" type="line"/>
      <point x="302" y="-16"/>
      <point x="262" y="-65"/>
      <point x="219" y="-124" type="curve"/>
      <point x="262" y="-163" type="line"/>
      <point x="295" y="-129"/>
      <point x="341" y="-90"/>
    </contour>
  </outline>
</glyph>
<glyph name="uni182B" format="2">
  <advance width="675" height="1000"/>
  <unicode hex="182B"/>
  <outline>
    <contour>
      <point x="62" y="122" type="curve"/>
      <point x="62" y="42" type="line"/>
      <point x="83" y="54"/>
      <point x="107" y="62"/>
      <point x="134" y="67" type="curve"/>
      <point x="160" y="71"/>
      <point x="192" y="73"/>
      <point x="231" y="73" type="curve"/>
      <point x="307" y="73"/>
      <point x="362" y="106"/>
      <point x="395" y="171" type="curve"/>
      <point x="410" y="202"/>
      <point x="418" y="236"/>
      <point x="418" y="275" type="curve"/>
      <point x="418" y="332"/>
      <point x="411" y="389"/>
      <point x="397" y="444" type="curve"/>
      <point x="124" y="444" type="line"/>
      <point x="125" y="545"/>
      <point x="156" y="619"/>
      <point x="217" y="666" type="curve"/>
      <point x="248" y="688"/>
      <point x="285" y="699"/>
      <point x="330" y="699" type="curve"/>
      <point x="375" y="699"/>
      <point x="413" y="687"/>
      <point x="444" y="662" type="curve"/>
      <point x="475" y="637"/>
      <point x="500" y="602"/>
      <point x="518" y="556" type="curve"/>
      <point x="535" y="512"/>
      <point x="546" y="463"/>
      <point x="550" y="409" type="curve"/>
      <point x="630" y="419" type="line"/>
      <point x="623" y="520"/>
      <point x="594" y="605"/>
      <point x="543" y="674" type="curve"/>
      <point x="517" y="708"/>
      <point x="486" y="735"/>
      <point x="450" y="754" type="curve"/>
      <point x="414" y="773"/>
      <point x="374" y="782"/>
      <point x="330" y="782" type="curve"/>
      <point x="267" y="782"/>
      <point x="215" y="766"/>
      <point x="172" y="735" type="curve"/>
      <point x="129" y="704"/>
      <point x="97" y="659"/>
      <point x="76" y="601" type="curve"/>
      <point x="55" y="544"/>
      <point x="45" y="480"/>
      <point x="45" y="408" type="curve"/>
      <point x="45" y="364" type="line"/>
      <point x="329" y="364" type="line"/>
      <point x="336" y="344"/>
      <point x="339" y="314"/>
      <point x="339" y="275" type="curve"/>
      <point x="339" y="238"/>
      <point x="329" y="209"/>
      <point x="310" y="187" type="curve"/>
      <point x="291" y="164"/>
      <point x="264" y="153"/>
      <point x="231" y="153" type="curve"/>
      <point x="192" y="153"/>
      <point x="159" y="151"/>
      <point x="132" y="147" type="curve"/>
      <point x="105" y="142"/>
      <point x="81" y="134"/>
    </contour>
  </outline>
</glyph>
<glyph name="uni182D" format="2">
  <advance width="863" height="1000"/>
  <unicode hex="182D"/>
  <outline>
    <contour>
      <point x="391" y="-218" type="line"/>
      <point x="426" y="-182"/>
      <point x="472" y="-143"/>
      <point x="530" y="-102" type="curve"/>
      <point x="469" y="-33" type="line"/>
      <point x="430" y="-72"/>
      <point x="389" y="-121"/>
      <point x="348" y="-179" type="curve"/>
    </contour>
    <contour>
      <point x="573" y="96" type="line"/>
      <point x="587" y="192"/>
      <point x="594" y="281"/>
      <point x="594" y="364" type="curve"/>
      <point x="818" y="364" type="line"/>
      <point x="818" y="444" type="line"/>
      <point x="591" y="444" type="line"/>
      <point x="574" y="633"/>
      <point x="497" y="727"/>
      <point x="362" y="727" type="curve"/>
      <point x="225" y="727"/>
      <point x="146" y="619"/>
      <point x="129" y="451" type="curve"/>
      <point x="96" y="450"/>
      <point x="68" y="444"/>
      <point x="45" y="433" type="curve"/>
      <point x="45" y="353" type="line"/>
      <point x="62" y="362"/>
      <point x="84" y="366"/>
      <point x="112" y="366" type="curve"/>
      <point x="186" y="366"/>
      <point x="208" y="266"/>
      <point x="221" y="96" type="curve"/>
      <point x="299" y="96" type="line"/>
      <point x="289" y="268"/>
      <point x="258" y="377"/>
      <point x="206" y="423" type="curve"/>
      <point x="214" y="573"/>
      <point x="272" y="644"/>
      <point x="362" y="644" type="curve"/>
      <point x="466" y="644"/>
      <point x="512" y="557"/>
      <point x="512" y="378" type="curve"/>
      <point x="512" y="285"/>
      <point x="506" y="191"/>
      <point x="495" y="96" type="curve"/>
    </contour>
    <contour>
      <point x="215" y="-141" type="line"/>
      <point x="250" y="-105"/>
      <point x="296" y="-66"/>
      <point x="354" y="-25" type="curve"/>
      <point x="293" y="44" type="line"/>
      <point x="254" y="5"/>
      <point x="213" y="-44"/>
      <point x="172" y="-102" type="curve"/>
    </contour>
  </outline>
</glyph>
<glyph name="uni182F" format="2">
  <advance width="567" height="1000"/>
  <unicode hex="182F"/>
  <outline>
    <contour>
      <point x="226" y="74" type="line"/>
      <point x="292" y="74" type="line"/>
      <point x="302" y="219" type="line"/>
      <point x="305" y="260"/>
      <point x="311" y="290"/>
      <point x="320" y="309" type="curve"/>
      <point x="329" y="329"/>
      <point x="343" y="343"/>
      <point x="361" y="351" type="curve"/>
      <point x="379" y="360"/>
      <point x="407" y="364"/>
      <point x="445" y="364" type="curve"/>
      <point x="522" y="364" type="line"/>
      <point x="522" y="444" type="line"/>
      <point x="444" y="444" type="line"/>
      <point x="360" y="444"/>
      <point x="307" y="416"/>
      <point x="285" y="361" type="curve"/>
      <point x="281" y="361" type="line"/>
      <point x="278" y="445" type="line"/>
      <point x="276" y="500"/>
      <point x="270" y="542"/>
      <point x="259" y="573" type="curve"/>
      <point x="263" y="606"/>
      <point x="271" y="638"/>
      <point x="284" y="669" type="curve"/>
      <point x="298" y="700"/>
      <point x="316" y="732"/>
      <point x="339" y="766" type="curve"/>
      <point x="339" y="832" type="line"/>
      <point x="219" y="832" type="line"/>
      <point x="167" y="832"/>
      <point x="128" y="835"/>
      <point x="103" y="841" type="curve"/>
      <point x="77" y="847"/>
      <point x="56" y="856"/>
      <point x="39" y="868" type="curve"/>
      <point x="39" y="790" type="line"/>
      <point x="55" y="777"/>
      <point x="75" y="767"/>
      <point x="98" y="761" type="curve"/>
      <point x="123" y="755"/>
      <point x="163" y="752"/>
      <point x="219" y="752" type="curve"/>
      <point x="247" y="752" type="line"/>
      <point x="228" y="723"/>
      <point x="212" y="686"/>
      <point x="200" y="642" type="curve"/>
      <point x="183" y="649"/>
      <point x="162" y="653"/>
      <point x="139" y="653" type="curve"/>
      <point x="100" y="653"/>
      <point x="57" y="643"/>
      <point x="10" y="623" type="curve"/>
      <point x="10" y="550" type="line"/>
      <point x="52" y="567"/>
      <point x="88" y="575"/>
      <point x="118" y="575" type="curve"/>
      <point x="146" y="575"/>
      <point x="166" y="565"/>
      <point x="177" y="544" type="curve"/>
      <point x="189" y="523"/>
      <point x="197" y="487"/>
      <point x="200" y="437" type="curve"/>
    </contour>
  </outline>
</glyph>
<glyph name="uni1830" format="2">
  <advance width="756" height="1000"/>
  <unicode hex="1830"/>
  <outline>
    <contour>
      <point x="45" y="446" type="curve"/>
      <point x="45" y="371" type="line"/>
      <point x="74" y="354"/>
      <point x="104" y="346"/>
      <point x="135" y="346" type="curve"/>
      <point x="171" y="346"/>
      <point x="199" y="356"/>
      <point x="220" y="375" type="curve"/>
      <point x="241" y="394"/>
      <point x="259" y="429"/>
      <point x="273" y="480" type="curve"/>
      <point x="287" y="532"/>
      <point x="297" y="579"/>
      <point x="302" y="620" type="curve"/>
      <point x="306" y="620" type="line"/>
      <point x="327" y="562"/>
      <point x="350" y="484"/>
      <point x="374" y="387" type="curve"/>
      <point x="399" y="291"/>
      <point x="422" y="186"/>
      <point x="443" y="73" type="curve"/>
      <point x="519" y="73" type="line"/>
      <point x="513" y="101"/>
      <point x="507" y="128"/>
      <point x="502" y="155" type="curve"/>
      <point x="497" y="178"/>
      <point x="492" y="201"/>
      <point x="487" y="224" type="curve"/>
      <point x="479" y="258" type="line"/>
      <point x="471" y="295"/>
      <point x="463" y="330"/>
      <point x="454" y="364" type="curve"/>
      <point x="711" y="364" type="line"/>
      <point x="711" y="444" type="line"/>
      <point x="433" y="444" type="line"/>
      <point x="406" y="545"/>
      <point x="378" y="642"/>
      <point x="349" y="734" type="curve"/>
      <point x="255" y="734" type="line"/>
      <point x="234" y="608"/>
      <point x="216" y="525"/>
      <point x="199" y="486" type="curve"/>
      <point x="183" y="447"/>
      <point x="160" y="427"/>
      <point x="130" y="427" type="curve"/>
      <point x="104" y="427"/>
      <point x="76" y="433"/>
    </contour>
  </outline>
</glyph>
<glyph name="uni1831" format="2">
  <advance width="756" height="1000"/>
  <unicode hex="1831"/>
  <outline>
    <contour>
      <point x="374" y="816" type="curve"/>
      <point x="417" y="777" type="line"/>
      <point x="452" y="813"/>
      <point x="498" y="852"/>
      <point x="556" y="893" type="curve"/>
      <point x="495" y="962" type="line"/>
      <point x="456" y="923"/>
      <point x="415" y="874"/>
    </contour>
    <contour>
      <point x="443" y="73" type="curve"/>
      <point x="519" y="73" type="line"/>
      <point x="497" y="182"/>
      <point x="475" y="279"/>
      <point x="454" y="364" type="curve"/>
      <point x="711" y="364" type="line"/>
      <point x="711" y="444" type="line"/>
      <point x="433" y="444" type="line"/>
      <point x="406" y="545"/>
      <point x="378" y="642"/>
      <point x="349" y="734" type="curve"/>
      <point x="255" y="734" type="line"/>
      <point x="234" y="609"/>
      <point x="216" y="526"/>
      <point x="199" y="486" type="curve"/>
      <point x="183" y="447"/>
      <point x="160" y="427"/>
      <point x="130" y="427" type="curve"/>
      <point x="103" y="427"/>
      <point x="75" y="433"/>
      <point x="45" y="446" type="curve"/>
      <point x="45" y="371" type="line"/>
      <point x="74" y="354"/>
      <point x="104" y="346"/>
      <point x="135" y="346" type="curve"/>
      <point x="174" y="346"/>
      <point x="203" y="357"/>
      <point x="224" y="379" type="curve"/>
      <point x="245" y="400"/>
      <point x="261" y="434"/>
      <point x="273" y="480" type="curve"/>
      <point x="286" y="527"/>
      <point x="296" y="574"/>
      <point x="302" y="620" type="curve"/>
      <point x="306" y="620" type="line"/>
      <point x="327" y="564"/>
      <point x="349" y="486"/>
      <point x="374" y="387" type="curve"/>
      <point x="401" y="280"/>
      <point x="424" y="176"/>
    </contour>
    <contour>
      <point x="167" y="816" type="curve"/>
      <point x="210" y="777" type="line"/>
      <point x="245" y="813"/>
      <point x="291" y="852"/>
      <point x="349" y="893" type="curve"/>
      <point x="288" y="962" type="line"/>
      <point x="249" y="923"/>
      <point x="208" y="874"/>
    </contour>
  </outline>
</glyph>
<glyph name="uni1838" format="2">
  <advance width="595" height="1000"/>
  <unicode hex="1838"/>
  <outline>
    <contour>
      <point x="371" y="-36" type="curve"/>
      <point x="345" y="-36"/>
      <point x="321" y="-23"/>
      <point x="299" y="4" type="curve"/>
      <point x="276" y="31"/>
      <point x="249" y="81"/>
      <point x="218" y="152" type="curve"/>
      <point x="187" y="224"/>
      <point x="161" y="295"/>
      <point x="141" y="364" type="curve"/>
      <point x="550" y="364" type="line"/>
      <point x="550" y="444" type="line"/>
      <point x="45" y="444" type="line"/>
      <point x="70" y="311"/>
      <point x="115" y="177"/>
      <point x="181" y="41" type="curve"/>
      <point x="207" y="-14"/>
      <point x="235" y="-54"/>
      <point x="264" y="-80" type="curve"/>
      <point x="293" y="-106"/>
      <point x="329" y="-119"/>
      <point x="371" y="-119" type="curve"/>
      <point x="390" y="-119"/>
      <point x="407" y="-116"/>
      <point x="421" y="-110" type="curve"/>
      <point x="436" y="-104"/>
      <point x="447" y="-96"/>
      <point x="454" y="-85" type="curve"/>
      <point x="454" y="6" type="line"/>
      <point x="435" y="-22"/>
      <point x="407" y="-36"/>
    </contour>
  </outline>
</glyph>
<glyph name="uni183B" format="2">
  <advance width="550" height="1000"/>
  <unicode hex="183B"/>
  <outline>
    <contour>
      <point x="174" y="42" type="curve"/>
      <point x="245" y="85" type="line"/>
      <point x="173" y="184"/>
      <point x="133" y="277"/>
      <point x="126" y="364" type="curve"/>
      <point x="285" y="364" type="line"/>
      <point x="285" y="444" type="line"/>
      <point x="125" y="444" type="line"/>
      <point x="135" y="579"/>
      <point x="190" y="644"/>
      <point x="273" y="644" type="curve"/>
      <point x="364" y="644"/>
      <point x="415" y="566"/>
      <point x="426" y="409" type="curve"/>
      <point x="505" y="419" type="line"/>
      <point x="495" y="589"/>
      <point x="428" y="727"/>
      <point x="273" y="727" type="curve"/>
      <point x="141" y="727"/>
      <point x="45" y="614"/>
      <point x="45" y="408" type="curve"/>
      <point x="45" y="292"/>
      <point x="88" y="170"/>
    </contour>
  </outline>
</glyph>
<glyph name="uni1842" format="2">
  <advance width="1177" height="1000"/>
  <unicode hex="1842"/>
  <outline>
    <contour>
      <point x="726" y="123" type="curve"/>
      <point x="647" y="124"/>
      <point x="608" y="166"/>
      <point x="608" y="251" type="curve"/>
      <point x="608" y="294"/>
      <point x="615" y="332"/>
      <point x="628" y="364" type="curve"/>
      <point x="825" y="364" type="line"/>
      <point x="838" y="332"/>
      <point x="845" y="294"/>
      <point x="845" y="251" type="curve"/>
      <point x="845" y="164"/>
      <point x="798" y="123"/>
    </contour>
    <contour>
      <point x="242" y="123" type="curve"/>
      <point x="163" y="123"/>
      <point x="124" y="169"/>
      <point x="124" y="262" type="curve"/>
      <point x="124" y="301"/>
      <point x="131" y="335"/>
      <point x="144" y="364" type="curve"/>
      <point x="341" y="364" type="line"/>
      <point x="354" y="332"/>
      <point x="361" y="294"/>
      <point x="361" y="251" type="curve"/>
      <point x="361" y="164"/>
      <point x="314" y="123"/>
    </contour>
    <contour>
      <point x="726" y="40" type="curve"/>
      <point x="857" y="40"/>
      <point x="924" y="127"/>
      <point x="924" y="249" type="curve"/>
      <point x="924" y="296"/>
      <point x="917" y="335"/>
      <point x="902" y="364" type="curve"/>
      <point x="1132" y="364" type="line"/>
      <point x="1132" y="444" type="line"/>
      <point x="90" y="444" type="line"/>
      <point x="60" y="397"/>
      <point x="45" y="336"/>
      <point x="45" y="260" type="curve"/>
      <point x="45" y="126"/>
      <point x="107" y="40"/>
      <point x="242" y="40" type="curve"/>
      <point x="373" y="40"/>
      <point x="440" y="127"/>
      <point x="440" y="249" type="curve"/>
      <point x="440" y="294"/>
      <point x="433" y="333"/>
      <point x="420" y="364" type="curve"/>
      <point x="549" y="364" type="line"/>
      <point x="536" y="331"/>
      <point x="529" y="292"/>
      <point x="529" y="249" type="curve"/>
      <point x="532" y="110"/>
      <point x="598" y="40"/>
    </contour>
  </outline>
</glyph>
<glyph name="uni1845" format="2">
  <advance width="906" height="1000"/>
  <unicode hex="1845"/>
  <outline>
    <contour>
      <point x="861" y="373" type="curve"/>
      <point x="861" y="441"/>
      <point x="846" y="501"/>
      <point x="817" y="552" type="curve"/>
      <point x="788" y="604"/>
      <point x="746" y="644"/>
      <point x="690" y="672" type="curve"/>
      <point x="634" y="700"/>
      <point x="568" y="714"/>
      <point x="492" y="714" type="curve"/>
      <point x="492" y="444" type="line"/>
      <point x="444" y="444" type="line"/>
      <point x="360" y="444"/>
      <point x="307" y="416"/>
      <point x="285" y="361" type="curve"/>
      <point x="281" y="361" type="line"/>
      <point x="278" y="445" type="line"/>
      <point x="276" y="519"/>
      <point x="265" y="572"/>
      <point x="244" y="604" type="curve"/>
      <point x="224" y="637"/>
      <point x="189" y="653"/>
      <point x="139" y="653" type="curve"/>
      <point x="100" y="653"/>
      <point x="57" y="643"/>
      <point x="10" y="623" type="curve"/>
      <point x="10" y="550" type="line"/>
      <point x="52" y="567"/>
      <point x="88" y="575"/>
      <point x="118" y="575" type="curve"/>
      <point x="146" y="575"/>
      <point x="166" y="565"/>
      <point x="177" y="544" type="curve"/>
      <point x="189" y="523"/>
      <point x="197" y="487"/>
      <point x="200" y="437" type="curve"/>
      <point x="226" y="74" type="line"/>
      <point x="292" y="74" type="line"/>
      <point x="302" y="219" type="line"/>
      <point x="305" y="260"/>
      <point x="311" y="290"/>
      <point x="320" y="309" type="curve"/>
      <point x="329" y="329"/>
      <point x="343" y="343"/>
      <point x="361" y="351" type="curve"/>
      <point x="379" y="360"/>
      <point x="407" y="364"/>
      <point x="445" y="364" type="curve"/>
      <point x="492" y="364" type="line"/>
      <point x="492" y="96" type="line"/>
      <point x="571" y="96" type="line"/>
      <point x="571" y="629" type="line"/>
      <point x="641" y="617"/>
      <point x="694" y="589"/>
      <point x="729" y="544" type="curve"/>
      <point x="764" y="500"/>
      <point x="782" y="443"/>
      <point x="782" y="373" type="curve"/>
      <point x="782" y="324"/>
      <point x="776" y="281"/>
      <point x="763" y="242" type="curve"/>
      <point x="750" y="204"/>
      <point x="729" y="168"/>
      <point x="701" y="133" type="curve"/>
      <point x="770" y="87" type="line"/>
      <point x="801" y="128"/>
      <point x="824" y="171"/>
      <point x="839" y="217" type="curve"/>
      <point x="854" y="263"/>
      <point x="861" y="315"/>
    </contour>
  </outline>
</glyph>
<glyph name="uni1848" format="2">
  <advance width="950" height="1000"/>
  <unicode hex="1848"/>
  <outline>
    <contour>
      <point x="606" y="364" type="line"/>
      <point x="827" y="364" type="line"/>
      <point x="827" y="104" type="line"/>
      <point x="725" y="127" type="line"/>
      <point x="685" y="136"/>
      <point x="655" y="153"/>
      <point x="636" y="177" type="curve"/>
      <point x="616" y="202"/>
      <point x="606" y="232"/>
      <point x="606" y="267" type="curve"/>
    </contour>
    <contour>
      <point x="905" y="3" type="line"/>
      <point x="905" y="444" type="line"/>
      <point x="666" y="444" type="line"/>
      <point x="636" y="517"/>
      <point x="602" y="590"/>
      <point x="563" y="661" type="curve"/>
      <point x="492" y="621" type="line"/>
      <point x="525" y="559"/>
      <point x="554" y="500"/>
      <point x="580" y="444" type="curve"/>
      <point x="479" y="444" type="line"/>
      <point x="395" y="444"/>
      <point x="342" y="416"/>
      <point x="320" y="361" type="curve"/>
      <point x="316" y="361" type="line"/>
      <point x="313" y="445" type="line"/>
      <point x="311" y="519"/>
      <point x="300" y="572"/>
      <point x="279" y="604" type="curve"/>
      <point x="259" y="637"/>
      <point x="224" y="653"/>
      <point x="174" y="653" type="curve"/>
      <point x="135" y="653"/>
      <point x="92" y="643"/>
      <point x="45" y="623" type="curve"/>
      <point x="45" y="550" type="line"/>
      <point x="87" y="567"/>
      <point x="123" y="575"/>
      <point x="153" y="575" type="curve"/>
      <point x="181" y="575"/>
      <point x="201" y="565"/>
      <point x="212" y="544" type="curve"/>
      <point x="224" y="523"/>
      <point x="232" y="487"/>
      <point x="235" y="437" type="curve"/>
      <point x="261" y="74" type="line"/>
      <point x="327" y="74" type="line"/>
      <point x="337" y="219" type="line"/>
      <point x="340" y="260"/>
      <point x="346" y="290"/>
      <point x="355" y="309" type="curve"/>
      <point x="364" y="329"/>
      <point x="378" y="343"/>
      <point x="396" y="351" type="curve"/>
      <point x="414" y="360"/>
      <point x="442" y="364"/>
      <point x="480" y="364" type="curve"/>
      <point x="527" y="364" type="line"/>
      <point x="527" y="267" type="line"/>
      <point x="527" y="210"/>
      <point x="542" y="163"/>
      <point x="571" y="125" type="curve"/>
      <point x="600" y="86"/>
      <point x="644" y="60"/>
      <point x="703" y="47" type="curve"/>
    </contour>
  </outline>
</glyph>
<glyph name="uni184B" format="2">
  <advance width="925" height="1000"/>
  <unicode hex="184B"/>
  <outline>
    <contour>
      <point x="361" y="251" type="curve"/>
      <point x="361" y="208"/>
      <point x="350" y="176"/>
      <point x="329" y="155" type="curve"/>
      <point x="308" y="134"/>
      <point x="279" y="123"/>
      <point x="242" y="123" type="curve"/>
      <point x="163" y="123"/>
      <point x="124" y="169"/>
      <point x="124" y="262" type="curve"/>
      <point x="124" y="303"/>
      <point x="131" y="337"/>
      <point x="144" y="364" type="curve"/>
      <point x="341" y="364" type="line"/>
      <point x="354" y="334"/>
      <point x="361" y="296"/>
    </contour>
    <contour>
      <point x="649" y="444" type="curve"/>
      <point x="90" y="444" type="line"/>
      <point x="75" y="418"/>
      <point x="63" y="390"/>
      <point x="56" y="361" type="curve"/>
      <point x="49" y="332"/>
      <point x="45" y="298"/>
      <point x="45" y="260" type="curve"/>
      <point x="45" y="187"/>
      <point x="63" y="132"/>
      <point x="98" y="95" type="curve"/>
      <point x="133" y="58"/>
      <point x="181" y="40"/>
      <point x="242" y="40" type="curve"/>
      <point x="305" y="40"/>
      <point x="354" y="59"/>
      <point x="388" y="97" type="curve"/>
      <point x="423" y="134"/>
      <point x="440" y="185"/>
      <point x="440" y="249" type="curve"/>
      <point x="440" y="294"/>
      <point x="433" y="333"/>
      <point x="420" y="364" type="curve"/>
      <point x="648" y="364" type="line"/>
      <point x="701" y="364"/>
      <point x="740" y="354"/>
      <point x="765" y="334" type="curve"/>
      <point x="790" y="315"/>
      <point x="802" y="285"/>
      <point x="802" y="245" type="curve"/>
      <point x="802" y="223"/>
      <point x="799" y="203"/>
      <point x="793" y="185" type="curve"/>
      <point x="787" y="168"/>
      <point x="776" y="146"/>
      <point x="760" y="120" type="curve"/>
      <point x="745" y="95"/>
      <point x="723" y="64"/>
      <point x="695" y="28" type="curve"/>
      <point x="661" y="-17"/>
      <point x="637" y="-56"/>
      <point x="622" y="-89" type="curve"/>
      <point x="607" y="-121"/>
      <point x="600" y="-154"/>
      <point x="600" y="-187" type="curve"/>
      <point x="600" y="-217"/>
      <point x="606" y="-243"/>
      <point x="619" y="-264" type="curve"/>
      <point x="701" y="-264" type="line"/>
      <point x="687" y="-239"/>
      <point x="680" y="-214"/>
      <point x="680" y="-187" type="curve"/>
      <point x="680" y="-166"/>
      <point x="682" y="-149"/>
      <point x="686" y="-136" type="curve"/>
      <point x="690" y="-123"/>
      <point x="697" y="-108"/>
      <point x="706" y="-91" type="curve"/>
      <point x="715" y="-74"/>
      <point x="729" y="-54"/>
      <point x="747" y="-31" type="curve"/>
      <point x="795" y="30"/>
      <point x="829" y="81"/>
      <point x="849" y="123" type="curve"/>
      <point x="870" y="166"/>
      <point x="880" y="206"/>
      <point x="880" y="245" type="curve"/>
      <point x="880" y="309"/>
      <point x="861" y="358"/>
      <point x="822" y="392" type="curve"/>
      <point x="784" y="427"/>
      <point x="726" y="444"/>
    </contour>
  </outline>
</glyph>
<glyph name="uni1851" format="2">
  <advance width="551" height="1000"/>
  <unicode hex="1851"/>
  <outline>
    <contour>
      <point x="146" y="364" type="line"/>
      <point x="225" y="364" type="line"/>
      <point x="360" y="96" type="line"/>
      <point x="247" y="28" type="line"/>
    </contour>
    <contour>
      <point x="506" y="444" type="line"/>
      <point x="45" y="444" type="line"/>
      <point x="205" y="-90" type="line"/>
      <point x="459" y="62" type="line"/>
      <point x="307" y="364" type="line"/>
      <point x="506" y="364" type="line"/>
    </contour>
  </outline>
</glyph>
<glyph name="uni1852" format="2">
  <advance width="785" height="1000"/>
  <unicode hex="1852"/>
  <outline>
    <contour>
      <point x="361" y="15" type="curve"/>
      <point x="361" y="-4"/>
      <point x="355" y="-19"/>
      <point x="344" y="-32" type="curve"/>
      <point x="332" y="-44"/>
      <point x="317" y="-50"/>
      <point x="299" y="-50" type="curve"/>
      <point x="280" y="-50"/>
      <point x="265" y="-44"/>
      <point x="253" y="-32" type="curve"/>
      <point x="242" y="-20"/>
      <point x="236" y="-5"/>
      <point x="236" y="14" type="curve"/>
      <point x="236" y="33"/>
      <point x="242" y="49"/>
      <point x="253" y="61" type="curve"/>
      <point x="265" y="73"/>
      <point x="280" y="79"/>
      <point x="299" y="79" type="curve"/>
      <point x="317" y="79"/>
      <point x="332" y="73"/>
      <point x="344" y="62" type="curve"/>
      <point x="355" y="50"/>
      <point x="361" y="34"/>
    </contour>
    <contour>
      <point x="63" y="444" type="line"/>
      <point x="45" y="364" type="line"/>
      <point x="454" y="364" type="line"/>
      <point x="454" y="331"/>
      <point x="449" y="304"/>
      <point x="439" y="281" type="curve"/>
      <point x="428" y="258"/>
      <point x="407" y="239"/>
      <point x="376" y="222" type="curve"/>
      <point x="264" y="162" type="line"/>
      <point x="228" y="143"/>
      <point x="202" y="122"/>
      <point x="186" y="99" type="curve"/>
      <point x="170" y="77"/>
      <point x="162" y="48"/>
      <point x="162" y="12" type="curve"/>
      <point x="162" y="-24"/>
      <point x="175" y="-55"/>
      <point x="201" y="-81" type="curve"/>
      <point x="228" y="-107"/>
      <point x="260" y="-120"/>
      <point x="299" y="-120" type="curve"/>
      <point x="336" y="-120"/>
      <point x="368" y="-107"/>
      <point x="393" y="-82" type="curve"/>
      <point x="418" y="-57"/>
      <point x="431" y="-25"/>
      <point x="431" y="14" type="curve"/>
      <point x="431" y="40"/>
      <point x="425" y="63"/>
      <point x="414" y="83" type="curve"/>
      <point x="402" y="104"/>
      <point x="386" y="119"/>
      <point x="367" y="130" type="curve"/>
      <point x="425" y="161" type="line"/>
      <point x="462" y="180"/>
      <point x="489" y="206"/>
      <point x="506" y="239" type="curve"/>
      <point x="523" y="272"/>
      <point x="531" y="313"/>
      <point x="531" y="364" type="curve"/>
      <point x="740" y="364" type="line"/>
      <point x="740" y="444" type="line"/>
    </contour>
  </outline>
</glyph>
<glyph name="uni1854" format="2">
  <advance width="650" height="1000"/>
  <unicode hex="1854"/>
  <outline>
    <contour>
      <point x="45" y="444" type="line"/>
      <point x="45" y="364" type="line"/>
      <point x="319" y="364" type="line"/>
      <point x="319" y="331"/>
      <point x="314" y="304"/>
      <point x="304" y="281" type="curve"/>
      <point x="293" y="258"/>
      <point x="272" y="239"/>
      <point x="241" y="222" type="curve"/>
      <point x="159" y="178" type="line"/>
      <point x="105" y="148"/>
      <point x="67" y="122"/>
      <point x="45" y="100" type="curve"/>
      <point x="45" y="5" type="line"/>
      <point x="89" y="45"/>
      <point x="135" y="78"/>
      <point x="182" y="103" type="curve"/>
      <point x="290" y="161" type="line"/>
      <point x="327" y="180"/>
      <point x="354" y="206"/>
      <point x="371" y="239" type="curve"/>
      <point x="388" y="272"/>
      <point x="396" y="313"/>
      <point x="396" y="364" type="curve"/>
      <point x="605" y="364" type="line"/>
      <point x="605" y="444" type="line"/>
    </contour>
  </outline>
</glyph>
<glyph name="uni1856" format="2">
  <advance width="749" height="1000"/>
  <unicode hex="1856"/>
  <outline>
    <contour>
      <point x="252" y="38" type="curve"/>
      <point x="252" y="72"/>
      <point x="262" y="100"/>
      <point x="283" y="121" type="curve"/>
      <point x="304" y="142"/>
      <point x="330" y="153"/>
      <point x="363" y="153" type="curve"/>
      <point x="396" y="153"/>
      <point x="423" y="142"/>
      <point x="443" y="121" type="curve"/>
      <point x="464" y="100"/>
      <point x="474" y="72"/>
      <point x="474" y="38" type="curve"/>
      <point x="474" y="4"/>
      <point x="464" y="-24"/>
      <point x="443" y="-45" type="curve"/>
      <point x="423" y="-66"/>
      <point x="396" y="-77"/>
      <point x="363" y="-77" type="curve"/>
      <point x="330" y="-77"/>
      <point x="304" y="-66"/>
      <point x="283" y="-45" type="curve"/>
      <point x="262" y="-24"/>
      <point x="252" y="4"/>
    </contour>
    <contour>
      <point x="146" y="364" type="line"/>
      <point x="704" y="364" type="line"/>
      <point x="704" y="444" type="line"/>
      <point x="45" y="444" type="line"/>
      <point x="164" y="19" type="line"/>
      <point x="182" y="-45"/>
      <point x="207" y="-90"/>
      <point x="238" y="-117" type="curve"/>
      <point x="269" y="-144"/>
      <point x="311" y="-157"/>
      <point x="363" y="-157" type="curve"/>
      <point x="400" y="-157"/>
      <point x="433" y="-149"/>
      <point x="462" y="-133" type="curve"/>
      <point x="491" y="-116"/>
      <point x="513" y="-93"/>
      <point x="529" y="-63" type="curve"/>
      <point x="544" y="-34"/>
      <point x="552" y="0"/>
      <point x="552" y="38" type="curve"/>
      <point x="552" y="95"/>
      <point x="535" y="142"/>
      <point x="501" y="177" type="curve"/>
      <point x="467" y="213"/>
      <point x="421" y="231"/>
      <point x="363" y="231" type="curve"/>
      <point x="326" y="231"/>
      <point x="294" y="223"/>
      <point x="267" y="206" type="curve"/>
      <point x="239" y="189"/>
      <point x="219" y="167"/>
      <point x="206" y="142" type="curve"/>
    </contour>
  </outline>
</glyph>
<glyph name="uni1857" format="2">
  <advance width="568" height="1000"/>
  <unicode hex="1857"/>
  <outline>
    <contour>
      <point x="291" y="644" type="curve"/>
      <point x="336" y="644"/>
      <point x="372" y="625"/>
      <point x="397" y="588" type="curve"/>
      <point x="422" y="551"/>
      <point x="438" y="491"/>
      <point x="444" y="409" type="curve"/>
      <point x="523" y="419" type="line"/>
      <point x="516" y="517"/>
      <point x="493" y="593"/>
      <point x="453" y="646" type="curve"/>
      <point x="414" y="700"/>
      <point x="360" y="727"/>
      <point x="291" y="727" type="curve"/>
      <point x="246" y="727"/>
      <point x="206" y="714"/>
      <point x="171" y="689" type="curve"/>
      <point x="137" y="664"/>
      <point x="110" y="627"/>
      <point x="91" y="578" type="curve"/>
      <point x="72" y="529"/>
      <point x="63" y="472"/>
      <point x="63" y="407" type="curve"/>
      <point x="63" y="329"/>
      <point x="81" y="252"/>
      <point x="117" y="176" type="curve"/>
      <point x="45" y="176" type="line"/>
      <point x="45" y="96" type="line"/>
      <point x="256" y="96" type="line"/>
      <point x="216" y="153"/>
      <point x="187" y="205"/>
      <point x="169" y="253" type="curve"/>
      <point x="151" y="302"/>
      <point x="142" y="353"/>
      <point x="142" y="407" type="curve"/>
      <point x="142" y="487"/>
      <point x="155" y="546"/>
      <point x="182" y="585" type="curve"/>
      <point x="209" y="624"/>
      <point x="245" y="644"/>
    </contour>
  </outline>
</glyph>
<glyph name="uni1859" format="2">
  <advance width="1088" height="1000"/>
  <unicode hex="1859"/>
  <outline>
    <contour>
      <point x="632" y="-182" type="curve"/>
      <point x="901" y="-57" type="line"/>
      <point x="829" y="79"/>
      <point x="790" y="209"/>
      <point x="787" y="364" type="curve"/>
      <point x="1043" y="364" type="line"/>
      <point x="1043" y="444" type="line"/>
      <point x="711" y="444" type="line"/>
      <point x="711" y="366" type="line"/>
      <point x="711" y="221"/>
      <point x="739" y="94"/>
      <point x="795" y="-17" type="curve"/>
      <point x="671" y="-72" type="line"/>
      <point x="596" y="71"/>
      <point x="567" y="204"/>
      <point x="567" y="364" type="curve"/>
      <point x="567" y="444" type="line"/>
      <point x="444" y="444" type="line"/>
      <point x="361" y="444"/>
      <point x="308" y="416"/>
      <point x="285" y="361" type="curve"/>
      <point x="281" y="361" type="line"/>
      <point x="278" y="445" type="line"/>
      <point x="274" y="595"/>
      <point x="236" y="653"/>
      <point x="139" y="653" type="curve"/>
      <point x="100" y="653"/>
      <point x="57" y="643"/>
      <point x="10" y="623" type="curve"/>
      <point x="10" y="550" type="line"/>
      <point x="52" y="567"/>
      <point x="88" y="575"/>
      <point x="118" y="575" type="curve"/>
      <point x="175" y="575"/>
      <point x="194" y="533"/>
      <point x="200" y="437" type="curve"/>
      <point x="226" y="74" type="line"/>
      <point x="292" y="74" type="line"/>
      <point x="302" y="219" type="line"/>
      <point x="305" y="260"/>
      <point x="311" y="290"/>
      <point x="320" y="310" type="curve"/>
      <point x="345" y="363"/>
      <point x="382" y="364"/>
      <point x="492" y="364" type="curve"/>
      <point x="492" y="165"/>
      <point x="537" y="-8"/>
    </contour>
  </outline>
</glyph>
<glyph name="uni185A" format="2">
  <advance width="940" height="1000"/>
  <unicode hex="185A"/>
  <outline>
    <contour>
      <point x="264" y="123" type="curve"/>
      <point x="173" y="123"/>
      <point x="127" y="203"/>
      <point x="124" y="364" type="curve"/>
      <point x="362" y="364" type="line"/>
      <point x="369" y="346"/>
      <point x="372" y="316"/>
      <point x="372" y="275" type="curve"/>
      <point x="372" y="224"/>
      <point x="362" y="186"/>
      <point x="342" y="161" type="curve"/>
      <point x="321" y="136"/>
      <point x="295" y="123"/>
    </contour>
    <contour>
      <point x="360" y="699" type="curve"/>
      <point x="440" y="699"/>
      <point x="501" y="671"/>
      <point x="544" y="614" type="curve"/>
      <point x="587" y="557"/>
      <point x="609" y="475"/>
      <point x="609" y="368" type="curve"/>
      <point x="609" y="294"/>
      <point x="597" y="227"/>
      <point x="572" y="166" type="curve"/>
      <point x="547" y="105"/>
      <point x="511" y="47"/>
      <point x="464" y="-9" type="curve"/>
      <point x="464" y="-83" type="line"/>
      <point x="694" y="-83" type="line"/>
      <point x="694" y="-3" type="line"/>
      <point x="562" y="-3" type="line"/>
      <point x="601" y="46"/>
      <point x="631" y="101"/>
      <point x="654" y="163" type="curve"/>
      <point x="676" y="226"/>
      <point x="687" y="293"/>
      <point x="688" y="364" type="curve"/>
      <point x="895" y="364" type="line"/>
      <point x="895" y="444" type="line"/>
      <point x="684" y="444" type="line"/>
      <point x="672" y="553"/>
      <point x="638" y="637"/>
      <point x="581" y="695" type="curve"/>
      <point x="524" y="753"/>
      <point x="450" y="782"/>
      <point x="360" y="782" type="curve"/>
      <point x="296" y="782"/>
      <point x="240" y="767"/>
      <point x="192" y="738" type="curve"/>
      <point x="145" y="708"/>
      <point x="108" y="665"/>
      <point x="83" y="609" type="curve"/>
      <point x="58" y="552"/>
      <point x="45" y="485"/>
      <point x="45" y="408" type="curve"/>
      <point x="45" y="285"/>
      <point x="64" y="193"/>
      <point x="101" y="132" type="curve"/>
      <point x="138" y="71"/>
      <point x="195" y="40"/>
      <point x="271" y="40" type="curve"/>
      <point x="305" y="40"/>
      <point x="336" y="50"/>
      <point x="364" y="69" type="curve"/>
      <point x="391" y="88"/>
      <point x="413" y="116"/>
      <point x="428" y="152" type="curve"/>
      <point x="443" y="188"/>
      <point x="451" y="229"/>
      <point x="451" y="275" type="curve"/>
      <point x="451" y="295"/>
      <point x="449" y="323"/>
      <point x="444" y="360" type="curve"/>
      <point x="440" y="396"/>
      <point x="435" y="424"/>
      <point x="428" y="444" type="curve"/>
      <point x="124" y="444" type="line"/>
      <point x="125" y="522"/>
      <point x="147" y="584"/>
      <point x="188" y="630" type="curve"/>
      <point x="230" y="676"/>
      <point x="287" y="699"/>
    </contour>
  </outline>
</glyph>
<glyph name="uni185B" format="2">
  <advance width="518" height="1000"/>
  <unicode hex="185B"/>
  <outline>
    <contour>
      <point x="275" y="594" type="curve"/>
      <point x="275" y="444" type="line"/>
      <point x="116" y="444" type="line"/>
      <point x="116" y="612" type="line"/>
      <point x="167" y="600"/>
      <point x="220" y="594"/>
    </contour>
    <contour>
      <point x="45" y="710" type="curve"/>
      <point x="45" y="364" type="line"/>
      <point x="45" y="308"/>
      <point x="49" y="253"/>
      <point x="56" y="198" type="curve"/>
      <point x="64" y="143"/>
      <point x="79" y="89"/>
      <point x="102" y="36" type="curve"/>
      <point x="125" y="-17"/>
      <point x="151" y="-56"/>
      <point x="181" y="-82" type="curve"/>
      <point x="212" y="-107"/>
      <point x="249" y="-119"/>
      <point x="294" y="-119" type="curve"/>
      <point x="313" y="-119"/>
      <point x="330" y="-116"/>
      <point x="344" y="-110" type="curve"/>
      <point x="359" y="-104"/>
      <point x="370" y="-96"/>
      <point x="377" y="-85" type="curve"/>
      <point x="377" y="6" type="line"/>
      <point x="358" y="-22"/>
      <point x="330" y="-36"/>
      <point x="294" y="-36" type="curve"/>
      <point x="259" y="-36"/>
      <point x="229" y="-17"/>
      <point x="202" y="21" type="curve"/>
      <point x="176" y="59"/>
      <point x="155" y="109"/>
      <point x="140" y="170" type="curve"/>
      <point x="124" y="231"/>
      <point x="116" y="296"/>
      <point x="116" y="364" type="curve"/>
      <point x="473" y="364" type="line"/>
      <point x="473" y="444" type="line"/>
      <point x="346" y="444" type="line"/>
      <point x="346" y="674" type="line"/>
      <point x="275" y="674" type="line"/>
      <point x="197" y="674"/>
      <point x="120" y="686"/>
    </contour>
  </outline>
</glyph>
<glyph name="uni185D" format="2">
  <advance width="505" height="1000"/>
  <unicode hex="185D"/>
  <outline>
    <contour>
      <point x="306" y="53" type="curve"/>
      <point x="306" y="156" type="line"/>
      <point x="306" y="299"/>
      <point x="323" y="430"/>
      <point x="356" y="547" type="curve"/>
      <point x="389" y="666"/>
      <point x="435" y="762"/>
      <point x="495" y="836" type="curve"/>
      <point x="403" y="836" type="line"/>
      <point x="352" y="769"/>
      <point x="310" y="675"/>
      <point x="277" y="555" type="curve"/>
      <point x="245" y="435"/>
      <point x="229" y="302"/>
      <point x="229" y="156" type="curve"/>
      <point x="190" y="179"/>
      <point x="162" y="213"/>
      <point x="145" y="256" type="curve"/>
      <point x="128" y="299"/>
      <point x="119" y="362"/>
      <point x="119" y="444" type="curve"/>
      <point x="45" y="444" type="line"/>
      <point x="45" y="364" type="line"/>
      <point x="45" y="310"/>
      <point x="56" y="259"/>
      <point x="79" y="211" type="curve"/>
      <point x="102" y="164"/>
      <point x="134" y="126"/>
      <point x="173" y="98" type="curve"/>
      <point x="212" y="71"/>
      <point x="257" y="56"/>
    </contour>
    <contour>
      <point x="228" y="683" type="curve"/>
      <point x="167" y="752" type="line"/>
      <point x="129" y="714"/>
      <point x="89" y="665"/>
      <point x="46" y="606" type="curve"/>
      <point x="89" y="567" type="line"/>
      <point x="122" y="601"/>
      <point x="168" y="640"/>
    </contour>
  </outline>
</glyph>
<glyph name="uni1861" format="2">
  <advance width="888" height="1000"/>
  <unicode hex="1861"/>
  <outline>
    <contour>
      <point x="361" y="251" type="curve"/>
      <point x="361" y="208"/>
      <point x="350" y="176"/>
      <point x="329" y="155" type="curve"/>
      <point x="308" y="134"/>
      <point x="279" y="123"/>
      <point x="242" y="123" type="curve"/>
      <point x="163" y="123"/>
      <point x="124" y="169"/>
      <point x="124" y="262" type="curve"/>
      <point x="124" y="303"/>
      <point x="131" y="337"/>
      <point x="144" y="364" type="curve"/>
      <point x="341" y="364" type="line"/>
      <point x="354" y="334"/>
      <point x="361" y="296"/>
    </contour>
    <contour>
      <point x="843" y="444" type="line"/>
      <point x="90" y="444" type="line"/>
      <point x="75" y="418"/>
      <point x="63" y="390"/>
      <point x="56" y="361" type="curve"/>
      <point x="49" y="332"/>
      <point x="45" y="298"/>
      <point x="45" y="260" type="curve"/>
      <point x="45" y="187"/>
      <point x="63" y="132"/>
      <point x="98" y="95" type="curve"/>
      <point x="133" y="58"/>
      <point x="181" y="40"/>
      <point x="242" y="40" type="curve"/>
      <point x="305" y="40"/>
      <point x="354" y="59"/>
      <point x="388" y="97" type="curve"/>
      <point x="423" y="134"/>
      <point x="440" y="185"/>
      <point x="440" y="249" type="curve"/>
      <point x="440" y="294"/>
      <point x="433" y="333"/>
      <point x="420" y="364" type="curve"/>
      <point x="552" y="364" type="line"/>
      <point x="590" y="221"/>
      <point x="648" y="77"/>
      <point x="725" y="-67" type="curve"/>
      <point x="798" y="-31" type="line"/>
      <point x="725" y="99"/>
      <point x="670" y="231"/>
      <point x="631" y="364" type="curve"/>
      <point x="843" y="364" type="line"/>
    </contour>
  </outline>
</glyph>
<glyph name="uni1862" format="2">
  <advance width="920" height="1000"/>
  <unicode hex="1862"/>
  <outline>
    <contour>
      <point x="329" y="364" type="line"/>
      <point x="348" y="96" type="line"/>
      <point x="414" y="96" type="line"/>
      <point x="433" y="364" type="line"/>
      <point x="643" y="364" type="line"/>
      <point x="697" y="364"/>
      <point x="736" y="354"/>
      <point x="760" y="334" type="curve"/>
      <point x="785" y="315"/>
      <point x="797" y="285"/>
      <point x="797" y="245" type="curve"/>
      <point x="797" y="223"/>
      <point x="794" y="203"/>
      <point x="788" y="185" type="curve"/>
      <point x="782" y="168"/>
      <point x="771" y="146"/>
      <point x="755" y="120" type="curve"/>
      <point x="740" y="95"/>
      <point x="718" y="64"/>
      <point x="690" y="28" type="curve"/>
      <point x="656" y="-17"/>
      <point x="632" y="-56"/>
      <point x="617" y="-89" type="curve"/>
      <point x="602" y="-121"/>
      <point x="595" y="-154"/>
      <point x="595" y="-187" type="curve"/>
      <point x="595" y="-217"/>
      <point x="601" y="-243"/>
      <point x="614" y="-264" type="curve"/>
      <point x="696" y="-264" type="line"/>
      <point x="682" y="-239"/>
      <point x="675" y="-213"/>
      <point x="675" y="-187" type="curve"/>
      <point x="675" y="-159"/>
      <point x="680" y="-134"/>
      <point x="689" y="-113" type="curve"/>
      <point x="698" y="-92"/>
      <point x="716" y="-65"/>
      <point x="742" y="-31" type="curve"/>
      <point x="794" y="37"/>
      <point x="829" y="91"/>
      <point x="847" y="131" type="curve"/>
      <point x="866" y="171"/>
      <point x="875" y="209"/>
      <point x="875" y="245" type="curve"/>
      <point x="875" y="309"/>
      <point x="856" y="358"/>
      <point x="817" y="392" type="curve"/>
      <point x="779" y="427"/>
      <point x="721" y="444"/>
      <point x="644" y="444" type="curve"/>
      <point x="45" y="444" type="line"/>
      <point x="45" y="364" type="line"/>
      <point x="64" y="96" type="line"/>
      <point x="130" y="96" type="line"/>
      <point x="149" y="364" type="line"/>
    </contour>
  </outline>
</glyph>
<glyph name="uni1863" format="2">
  <advance width="505" height="1000"/>
  <unicode hex="1863"/>
  <outline>
    <contour>
      <point x="270" y="-65" type="curve"/>
      <point x="209" y="4" type="line"/>
      <point x="171" y="-35"/>
      <point x="131" y="-83"/>
      <point x="88" y="-142" type="curve"/>
      <point x="131" y="-181" type="line"/>
      <point x="164" y="-147"/>
      <point x="210" y="-108"/>
    </contour>
    <contour>
      <point x="489" y="-100" type="curve"/>
      <point x="428" y="-31" type="line"/>
      <point x="389" y="-70"/>
      <point x="349" y="-118"/>
      <point x="307" y="-177" type="curve"/>
      <point x="350" y="-216" type="line"/>
      <point x="383" y="-182"/>
      <point x="429" y="-143"/>
    </contour>
    <contour>
      <point x="306" y="53" type="curve"/>
      <point x="306" y="156" type="line"/>
      <point x="306" y="299"/>
      <point x="323" y="430"/>
      <point x="356" y="547" type="curve"/>
      <point x="389" y="666"/>
      <point x="435" y="762"/>
      <point x="495" y="836" type="curve"/>
      <point x="403" y="836" type="line"/>
      <point x="352" y="769"/>
      <point x="310" y="675"/>
      <point x="277" y="555" type="curve"/>
      <point x="245" y="435"/>
      <point x="229" y="302"/>
      <point x="229" y="156" type="curve"/>
      <point x="190" y="179"/>
      <point x="162" y="213"/>
      <point x="145" y="256" type="curve"/>
      <point x="128" y="299"/>
      <point x="119" y="362"/>
      <point x="119" y="444" type="curve"/>
      <point x="45" y="444" type="line"/>
      <point x="45" y="364" type="line"/>
      <point x="45" y="310"/>
      <point x="56" y="259"/>
      <point x="79" y="211" type="curve"/>
      <point x="102" y="164"/>
      <point x="134" y="126"/>
      <point x="173" y="98" type="curve"/>
      <point x="212" y="71"/>
      <point x="257" y="56"/>
    </contour>
  </outline>
</glyph>
<glyph name="uni186E" format="2">
  <advance width="756" height="1000"/>
  <unicode hex="186E"/>
  <outline>
    <contour>
      <point x="334" y="888" type="line"/>
      <point x="271" y="888" type="line"/>
      <point x="271" y="756" type="line"/>
      <point x="114" y="756" type="line"/>
      <point x="114" y="694" type="line"/>
      <point x="258" y="694" type="line"/>
      <point x="254" y="672"/>
      <point x="243" y="625"/>
      <point x="225" y="552" type="curve"/>
      <point x="212" y="506"/>
      <point x="199" y="474"/>
      <point x="185" y="455" type="curve"/>
      <point x="172" y="436"/>
      <point x="153" y="427"/>
      <point x="130" y="427" type="curve"/>
      <point x="104" y="427"/>
      <point x="76" y="433"/>
      <point x="45" y="446" type="curve"/>
      <point x="45" y="371" type="line"/>
      <point x="74" y="354"/>
      <point x="104" y="346"/>
      <point x="135" y="346" type="curve"/>
      <point x="170" y="346"/>
      <point x="198" y="354"/>
      <point x="219" y="371" type="curve"/>
      <point x="239" y="388"/>
      <point x="256" y="417"/>
      <point x="270" y="459" type="curve"/>
      <point x="284" y="501"/>
      <point x="295" y="545"/>
      <point x="304" y="590" type="curve"/>
      <point x="308" y="590" type="line"/>
      <point x="330" y="531"/>
      <point x="354" y="453"/>
      <point x="379" y="357" type="curve"/>
      <point x="404" y="261"/>
      <point x="425" y="166"/>
      <point x="443" y="73" type="curve"/>
      <point x="519" y="73" type="line"/>
      <point x="507" y="128"/>
      <point x="484" y="225"/>
      <point x="450" y="364" type="curve"/>
      <point x="711" y="364" type="line"/>
      <point x="711" y="444" type="line"/>
      <point x="428" y="444" type="line"/>
      <point x="406" y="527"/>
      <point x="381" y="611"/>
      <point x="352" y="694" type="curve"/>
      <point x="499" y="694" type="line"/>
      <point x="499" y="756" type="line"/>
      <point x="334" y="756" type="line"/>
    </contour>
  </outline>
</glyph>
<glyph name="uni1870" format="2">
  <advance width="373" height="1000"/>
  <unicode hex="1870"/>
  <outline>
    <contour>
      <point x="45" y="712" type="line"/>
      <point x="45" y="96" type="line"/>
      <point x="118" y="96" type="line"/>
      <point x="118" y="364" type="line"/>
      <point x="328" y="364" type="line"/>
      <point x="328" y="444" type="line"/>
      <point x="118" y="444" type="line"/>
      <point x="118" y="712" type="line"/>
    </contour>
  </outline>
</glyph>
<glyph name="uni1873" format="2">
  <advance width="787" height="1000"/>
  <unicode hex="1873"/>
  <outline>
    <contour>
      <point x="430" y="364" type="curve"/>
      <point x="742" y="364" type="line"/>
      <point x="742" y="444" type="line"/>
      <point x="45" y="444" type="line"/>
      <point x="60" y="353"/>
      <point x="85" y="265"/>
      <point x="118" y="182" type="curve"/>
      <point x="151" y="99"/>
      <point x="190" y="16"/>
      <point x="233" y="-67" type="curve"/>
      <point x="306" y="-31" type="line"/>
      <point x="233" y="99"/>
      <point x="177" y="231"/>
      <point x="139" y="364" type="curve"/>
      <point x="351" y="364" type="line"/>
      <point x="389" y="221"/>
      <point x="447" y="78"/>
      <point x="524" y="-67" type="curve"/>
      <point x="597" y="-31" type="line"/>
      <point x="524" y="99"/>
      <point x="468" y="231"/>
    </contour>
  </outline>
</glyph>
<glyph name="uni1874" format="2">
  <advance width="708" height="1000"/>
  <unicode hex="1874"/>
  <outline>
    <contour>
      <point x="551" y="74" type="curve"/>
      <point x="551" y="186" type="line"/>
      <point x="551" y="285"/>
      <point x="560" y="373"/>
      <point x="579" y="450" type="curve"/>
      <point x="598" y="527"/>
      <point x="626" y="599"/>
      <point x="663" y="666" type="curve"/>
      <point x="570" y="666" type="line"/>
      <point x="505" y="535"/>
      <point x="472" y="376"/>
      <point x="472" y="188" type="curve"/>
      <point x="433" y="210"/>
      <point x="405" y="241"/>
      <point x="389" y="280" type="curve"/>
      <point x="374" y="319"/>
      <point x="366" y="373"/>
      <point x="366" y="444" type="curve"/>
      <point x="45" y="444" type="line"/>
      <point x="45" y="364" type="line"/>
      <point x="64" y="96" type="line"/>
      <point x="130" y="96" type="line"/>
      <point x="149" y="364" type="line"/>
      <point x="296" y="364" type="line"/>
      <point x="296" y="314"/>
      <point x="307" y="267"/>
      <point x="330" y="222" type="curve"/>
      <point x="352" y="177"/>
      <point x="383" y="141"/>
      <point x="423" y="114" type="curve"/>
      <point x="462" y="87"/>
      <point x="505" y="74"/>
    </contour>
    <contour>
      <point x="427" y="-25" type="curve"/>
      <point x="366" y="44" type="line"/>
      <point x="328" y="6"/>
      <point x="288" y="-43"/>
      <point x="245" y="-102" type="curve"/>
      <point x="288" y="-141" type="line"/>
      <point x="321" y="-107"/>
      <point x="367" y="-68"/>
    </contour>
    <contour>
      <point x="646" y="-80" type="curve"/>
      <point x="585" y="-11" type="line"/>
      <point x="547" y="-50"/>
      <point x="507" y="-98"/>
      <point x="464" y="-157" type="curve"/>
      <point x="507" y="-196" type="line"/>
      <point x="540" y="-162"/>
      <point x="586" y="-123"/>
    </contour>
  </outline>
</glyph>
<glyph name="uni1875" format="2">
  <advance width="719" height="1000"/>
  <unicode hex="1875"/>
  <outline>
    <contour>
      <point x="499" y="444" type="curve"/>
      <point x="45" y="444" type="line"/>
      <point x="60" y="353"/>
      <point x="85" y="265"/>
      <point x="118" y="182" type="curve"/>
      <point x="138" y="134" type="line"/>
      <point x="115" y="97" type="line"/>
      <point x="92" y="58"/>
      <point x="73" y="16"/>
      <point x="58" y="-28" type="curve"/>
      <point x="112" y="-59" type="line"/>
      <point x="119" y="-47"/>
      <point x="135" y="-22"/>
      <point x="160" y="16" type="curve"/>
      <point x="166" y="26"/>
      <point x="173" y="35"/>
      <point x="179" y="43" type="curve"/>
      <point x="196" y="6"/>
      <point x="214" y="-30"/>
      <point x="233" y="-67" type="curve"/>
      <point x="306" y="-31" type="line"/>
      <point x="233" y="99"/>
      <point x="177" y="231"/>
      <point x="139" y="364" type="curve"/>
      <point x="499" y="364" type="line"/>
      <point x="534" y="364"/>
      <point x="559" y="357"/>
      <point x="574" y="342" type="curve"/>
      <point x="589" y="327"/>
      <point x="597" y="306"/>
      <point x="597" y="279" type="curve"/>
      <point x="597" y="235"/>
      <point x="590" y="196"/>
      <point x="575" y="162" type="curve"/>
      <point x="649" y="162" type="line"/>
      <point x="666" y="199"/>
      <point x="674" y="238"/>
      <point x="674" y="279" type="curve"/>
      <point x="675" y="389"/>
      <point x="616" y="444"/>
    </contour>
  </outline>
</glyph>
<glyph name="uni1880" format="2">
  <advance width="583" height="1000"/>
  <unicode hex="1880"/>
  <outline>
    <contour>
      <point x="290" y="128" type="curve"/>
      <point x="312" y="62" type="line"/>
      <point x="456" y="107"/>
      <point x="538" y="246"/>
      <point x="538" y="403" type="curve"/>
      <point x="538" y="557"/>
      <point x="459" y="698"/>
      <point x="312" y="744" type="curve"/>
      <point x="290" y="678" type="line"/>
      <point x="400" y="635"/>
      <point x="458" y="534"/>
      <point x="458" y="403" type="curve"/>
      <point x="458" y="278"/>
      <point x="402" y="169"/>
    </contour>
    <contour>
      <point x="203" y="245" type="curve"/>
      <point x="287" y="245"/>
      <point x="362" y="312"/>
      <point x="362" y="403" type="curve"/>
      <point x="362" y="488"/>
      <point x="292" y="562"/>
      <point x="203" y="562" type="curve"/>
      <point x="113" y="562"/>
      <point x="45" y="491"/>
      <point x="45" y="403" type="curve"/>
      <point x="45" y="317"/>
      <point x="114" y="245"/>
    </contour>
    <contour>
      <point x="203" y="315" type="curve"/>
      <point x="153" y="315"/>
      <point x="115" y="354"/>
      <point x="115" y="403" type="curve"/>
      <point x="115" y="452"/>
      <point x="154" y="492"/>
      <point x="203" y="492" type="curve"/>
      <point x="253" y="492"/>
      <point x="292" y="452"/>
      <point x="292" y="403" type="curve"/>
      <point x="292" y="354"/>
      <point x="252" y="315"/>
    </contour>
  </outline>
</glyph>
<glyph name="uni1881" format="2">
  <advance width="790" height="1000"/>
  <unicode hex="1881"/>
  <outline>
    <contour>
      <point x="238" y="215" type="curve"/>
      <point x="306" y="215"/>
      <point x="358" y="239"/>
      <point x="395" y="287" type="curve"/>
      <point x="432" y="239"/>
      <point x="484" y="215"/>
      <point x="552" y="215" type="curve"/>
      <point x="668" y="215"/>
      <point x="745" y="291"/>
      <point x="745" y="403" type="curve"/>
      <point x="745" y="514"/>
      <point x="671" y="592"/>
      <point x="552" y="592" type="curve"/>
      <point x="482" y="592"/>
      <point x="430" y="568"/>
      <point x="395" y="520" type="curve"/>
      <point x="360" y="567"/>
      <point x="305" y="592"/>
      <point x="238" y="592" type="curve"/>
      <point x="121" y="592"/>
      <point x="45" y="516"/>
      <point x="45" y="403" type="curve"/>
      <point x="45" y="294"/>
      <point x="119" y="215"/>
    </contour>
    <contour>
      <point x="238" y="290" type="curve"/>
      <point x="167" y="290"/>
      <point x="119" y="333"/>
      <point x="119" y="403" type="curve"/>
      <point x="119" y="473"/>
      <point x="167" y="517"/>
      <point x="238" y="517" type="curve"/>
      <point x="308" y="517"/>
      <point x="357" y="471"/>
      <point x="357" y="403" type="curve"/>
      <point x="357" y="338"/>
      <point x="312" y="290"/>
    </contour>
    <contour>
      <point x="552" y="290" type="curve"/>
      <point x="481" y="290"/>
      <point x="433" y="333"/>
      <point x="433" y="403" type="curve"/>
      <point x="433" y="473"/>
      <point x="481" y="517"/>
      <point x="552" y="517" type="curve"/>
      <point x="622" y="517"/>
      <point x="671" y="471"/>
      <point x="671" y="403" type="curve"/>
      <point x="671" y="338"/>
      <point x="626" y="290"/>
    </contour>
  </outline>
</glyph>
<glyph name="uni1882" format="2">
  <advance width="673" height="1000"/>
  <unicode hex="1882"/>
  <outline>
    <contour>
      <point x="45" y="64" type="line"/>
      <point x="118" y="64" type="line"/>
      <point x="336" y="346" type="line"/>
      <point x="555" y="64" type="line"/>
      <point x="628" y="64" type="line"/>
      <point x="628" y="744" type="line"/>
      <point x="555" y="744" type="line"/>
      <point x="336" y="461" type="line"/>
      <point x="118" y="744" type="line"/>
      <point x="45" y="744" type="line"/>
    </contour>
    <contour>
      <point x="117" y="169" type="curve"/>
      <point x="113" y="169" type="line"/>
      <point x="116" y="213"/>
      <point x="118" y="257"/>
      <point x="118" y="302" type="curve"/>
      <point x="118" y="506" type="line"/>
      <point x="118" y="550"/>
      <point x="116" y="595"/>
      <point x="113" y="639" type="curve"/>
      <point x="117" y="639" type="line"/>
      <point x="131" y="616"/>
      <point x="157" y="579"/>
      <point x="197" y="527" type="curve"/>
      <point x="292" y="404" type="line"/>
      <point x="159" y="230" type="line"/>
      <point x="142" y="208"/>
      <point x="128" y="187"/>
    </contour>
    <contour>
      <point x="560" y="169" type="curve"/>
      <point x="556" y="169" type="line"/>
      <point x="537" y="199"/>
      <point x="511" y="236"/>
      <point x="476" y="281" type="curve"/>
      <point x="381" y="404" type="line"/>
      <point x="511" y="574" type="line"/>
      <point x="531" y="600"/>
      <point x="545" y="621"/>
      <point x="556" y="639" type="curve"/>
      <point x="560" y="639" type="line"/>
      <point x="557" y="589"/>
      <point x="555" y="544"/>
      <point x="555" y="506" type="curve"/>
      <point x="555" y="302" type="line"/>
      <point x="555" y="264"/>
      <point x="557" y="219"/>
    </contour>
  </outline>
</glyph>
<glyph name="uni1883" format="2">
  <advance width="483" height="1000"/>
  <unicode hex="1883"/>
  <outline>
    <contour>
      <point x="238" y="43" type="curve"/>
      <point x="356" y="43"/>
      <point x="438" y="108"/>
      <point x="438" y="232" type="curve"/>
      <point x="438" y="317"/>
      <point x="394" y="375"/>
      <point x="318" y="402" type="curve"/>
      <point x="318" y="406" type="line"/>
      <point x="394" y="433"/>
      <point x="438" y="491"/>
      <point x="438" y="576" type="curve"/>
      <point x="438" y="697"/>
      <point x="359" y="765"/>
      <point x="238" y="765" type="curve"/>
      <point x="168" y="765"/>
      <point x="102" y="746"/>
      <point x="40" y="706" type="curve"/>
      <point x="78" y="631" type="line"/>
      <point x="133" y="670"/>
      <point x="180" y="687"/>
      <point x="236" y="687" type="curve"/>
      <point x="318" y="687"/>
      <point x="362" y="640"/>
      <point x="362" y="572" type="curve"/>
      <point x="362" y="484"/>
      <point x="299" y="444"/>
      <point x="200" y="444" type="curve"/>
      <point x="99" y="444" type="line"/>
      <point x="99" y="364" type="line"/>
      <point x="200" y="364" type="line"/>
      <point x="298" y="364"/>
      <point x="362" y="325"/>
      <point x="362" y="236" type="curve"/>
      <point x="362" y="165"/>
      <point x="316" y="121"/>
      <point x="236" y="121" type="curve"/>
      <point x="180" y="121"/>
      <point x="133" y="138"/>
      <point x="78" y="177" type="curve"/>
      <point x="40" y="102" type="line"/>
      <point x="106" y="59"/>
      <point x="169" y="43"/>
    </contour>
  </outline>
</glyph>
<glyph name="uni1884" format="2">
  <advance width="483" height="1000"/>
  <unicode hex="1884"/>
  <outline>
    <contour>
      <point x="245" y="43" type="curve"/>
      <point x="314" y="43"/>
      <point x="376" y="59"/>
      <point x="443" y="102" type="curve"/>
      <point x="405" y="177" type="line"/>
      <point x="350" y="138"/>
      <point x="303" y="121"/>
      <point x="247" y="121" type="curve"/>
      <point x="170" y="121"/>
      <point x="121" y="162"/>
      <point x="121" y="236" type="curve"/>
      <point x="121" y="322"/>
      <point x="182" y="364"/>
      <point x="283" y="364" type="curve"/>
      <point x="384" y="364" type="line"/>
      <point x="384" y="444" type="line"/>
      <point x="283" y="444" type="line"/>
      <point x="186" y="444"/>
      <point x="121" y="483"/>
      <point x="121" y="572" type="curve"/>
      <point x="121" y="640"/>
      <point x="165" y="687"/>
      <point x="247" y="687" type="curve"/>
      <point x="303" y="687"/>
      <point x="350" y="670"/>
      <point x="405" y="631" type="curve"/>
      <point x="443" y="706" type="line"/>
      <point x="381" y="746"/>
      <point x="315" y="765"/>
      <point x="245" y="765" type="curve"/>
      <point x="128" y="765"/>
      <point x="45" y="699"/>
      <point x="45" y="576" type="curve"/>
      <point x="45" y="491"/>
      <point x="89" y="433"/>
      <point x="165" y="406" type="curve"/>
      <point x="165" y="402" type="line"/>
      <point x="89" y="375"/>
      <point x="45" y="317"/>
      <point x="45" y="232" type="curve"/>
      <point x="45" y="112"/>
      <point x="123" y="43"/>
    </contour>
  </outline>
</glyph>
<glyph name="baluda" format="2">
  <advance width="0" height="1000"/>
  <unicode hex="1885"/>
  <anchor x="0" y="0" name="_mong"/>
  <outline>
    <contour>
      <point x="207" y="1004" type="curve"/>
      <point x="271" y="1004"/>
      <point x="305" y="1043"/>
      <point x="305" y="1109" type="curve"/>
      <point x="251" y="1109" type="line"/>
      <point x="251" y="1078"/>
      <point x="235" y="1058"/>
      <point x="207" y="1058" type="curve"/>
      <point x="173" y="1058"/>
      <point x="152" y="1090"/>
      <point x="152" y="1151" type="curve"/>
      <point x="152" y="1215"/>
      <point x="180" y="1264"/>
      <point x="239" y="1264" type="curve"/>
      <point x="299" y="1264"/>
      <point x="333" y="1227"/>
      <point x="345" y="1144" type="curve"/>
      <point x="359" y="1048"/>
      <point x="393" y="1004"/>
      <point x="457" y="1004" type="curve"/>
      <point x="521" y="1004"/>
      <point x="555" y="1043"/>
      <point x="555" y="1109" type="curve"/>
      <point x="501" y="1109" type="line"/>
      <point x="501" y="1078"/>
      <point x="485" y="1058"/>
      <point x="457" y="1058" type="curve"/>
      <point x="423" y="1058"/>
      <point x="402" y="1090"/>
      <point x="402" y="1151" type="curve"/>
      <point x="402" y="1215"/>
      <point x="430" y="1264"/>
      <point x="489" y="1264" type="curve"/>
      <point x="544" y="1264"/>
      <point x="570" y="1229"/>
      <point x="593" y="1163" type="curve"/>
      <point x="605" y="1128"/>
      <point x="618" y="1080"/>
      <point x="630" y="1019" type="curve"/>
      <point x="683" y="1019" type="line"/>
      <point x="683" y="1108"/>
      <point x="705" y="1193"/>
      <point x="748" y="1275" type="curve"/>
      <point x="701" y="1296" type="line"/>
      <point x="677" y="1249"/>
      <point x="661" y="1198"/>
      <point x="651" y="1143" type="curve"/>
      <point x="649" y="1143" type="line"/>
      <point x="631" y="1207"/>
      <point x="609" y="1264"/>
      <point x="567" y="1295" type="curve"/>
      <point x="547" y="1310"/>
      <point x="521" y="1318"/>
      <point x="489" y="1318" type="curve"/>
      <point x="433" y="1318"/>
      <point x="391" y="1288"/>
      <point x="371" y="1235" type="curve"/>
      <point x="369" y="1235" type="line"/>
      <point x="343" y="1291"/>
      <point x="303" y="1318"/>
      <point x="239" y="1318" type="curve"/>
      <point x="150" y="1318"/>
      <point x="100" y="1250"/>
      <point x="100" y="1151" type="curve"/>
      <point x="100" y="1068"/>
      <point x="131" y="1004"/>
    </contour>
  </outline>
</glyph>
<glyph name="tribaluda" format="2">
  <advance width="0" height="1000"/>
  <unicode hex="1886"/>
  <anchor x="0" y="0" name="_baluda"/>
  <outline>
    <contour>
      <point x="182" y="1448" type="curve"/>
      <point x="230" y="1448"/>
      <point x="261" y="1476"/>
      <point x="261" y="1526" type="curve"/>
      <point x="217" y="1526" type="line"/>
      <point x="217" y="1505"/>
      <point x="201" y="1493"/>
      <point x="180" y="1493" type="curve"/>
      <point x="157" y="1493"/>
      <point x="143" y="1510"/>
      <point x="143" y="1540" type="curve"/>
      <point x="143" y="1574"/>
      <point x="161" y="1597"/>
      <point x="204" y="1597" type="curve"/>
      <point x="252" y="1597"/>
      <point x="283" y="1571"/>
      <point x="308" y="1528" type="curve"/>
      <point x="339" y="1474"/>
      <point x="362" y="1448"/>
      <point x="413" y="1448" type="curve"/>
      <point x="470" y="1448"/>
      <point x="498" y="1476"/>
      <point x="498" y="1526" type="curve"/>
      <point x="454" y="1526" type="line"/>
      <point x="454" y="1506"/>
      <point x="440" y="1493"/>
      <point x="416" y="1493" type="curve"/>
      <point x="389" y="1493"/>
      <point x="373" y="1512"/>
      <point x="373" y="1540" type="curve"/>
      <point x="373" y="1577"/>
      <point x="398" y="1597"/>
      <point x="442" y="1597" type="curve"/>
      <point x="514" y="1597"/>
      <point x="553" y="1536"/>
      <point x="593" y="1456" type="curve"/>
      <point x="634" y="1456" type="line"/>
      <point x="649" y="1516"/>
      <point x="670" y="1569"/>
      <point x="702" y="1620" type="curve"/>
      <point x="658" y="1640" type="line"/>
      <point x="634" y="1594"/>
      <point x="617" y="1552"/>
      <point x="608" y="1514" type="curve"/>
      <point x="606" y="1514" type="line"/>
      <point x="565" y="1599"/>
      <point x="509" y="1642"/>
      <point x="439" y="1642" type="curve"/>
      <point x="383" y="1642"/>
      <point x="346" y="1615"/>
      <point x="334" y="1564" type="curve"/>
      <point x="332" y="1564" type="line"/>
      <point x="299" y="1617"/>
      <point x="260" y="1642"/>
      <point x="204" y="1642" type="curve"/>
      <point x="134" y="1642"/>
      <point x="100" y="1602"/>
      <point x="100" y="1540" type="curve"/>
      <point x="100" y="1480"/>
      <point x="129" y="1448"/>
    </contour>
    <contour>
      <point x="182" y="1228" type="curve"/>
      <point x="230" y="1228"/>
      <point x="261" y="1256"/>
      <point x="261" y="1306" type="curve"/>
      <point x="217" y="1306" type="line"/>
      <point x="217" y="1285"/>
      <point x="201" y="1273"/>
      <point x="180" y="1273" type="curve"/>
      <point x="157" y="1273"/>
      <point x="143" y="1290"/>
      <point x="143" y="1320" type="curve"/>
      <point x="143" y="1354"/>
      <point x="161" y="1377"/>
      <point x="204" y="1377" type="curve"/>
      <point x="252" y="1377"/>
      <point x="283" y="1351"/>
      <point x="308" y="1308" type="curve"/>
      <point x="339" y="1254"/>
      <point x="362" y="1228"/>
      <point x="413" y="1228" type="curve"/>
      <point x="470" y="1228"/>
      <point x="498" y="1256"/>
      <point x="498" y="1306" type="curve"/>
      <point x="454" y="1306" type="line"/>
      <point x="454" y="1286"/>
      <point x="440" y="1273"/>
      <point x="416" y="1273" type="curve"/>
      <point x="389" y="1273"/>
      <point x="373" y="1292"/>
      <point x="373" y="1320" type="curve"/>
      <point x="373" y="1357"/>
      <point x="398" y="1377"/>
      <point x="442" y="1377" type="curve"/>
      <point x="514" y="1377"/>
      <point x="553" y="1316"/>
      <point x="593" y="1236" type="curve"/>
      <point x="634" y="1236" type="line"/>
      <point x="649" y="1296"/>
      <point x="670" y="1349"/>
      <point x="702" y="1400" type="curve"/>
      <point x="658" y="1420" type="line"/>
      <point x="634" y="1374"/>
      <point x="617" y="1332"/>
      <point x="608" y="1294" type="curve"/>
      <point x="606" y="1294" type="line"/>
      <point x="565" y="1379"/>
      <point x="509" y="1422"/>
      <point x="439" y="1422" type="curve"/>
      <point x="383" y="1422"/>
      <point x="346" y="1395"/>
      <point x="334" y="1344" type="curve"/>
      <point x="332" y="1344" type="line"/>
      <point x="299" y="1397"/>
      <point x="260" y="1422"/>
      <point x="204" y="1422" type="curve"/>
      <point x="134" y="1422"/>
      <point x="100" y="1382"/>
      <point x="100" y="1320" type="curve"/>
      <point x="100" y="1260"/>
      <point x="129" y="1228"/>
    </contour>
    <contour>
      <point x="182" y="1008" type="curve"/>
      <point x="230" y="1008"/>
      <point x="261" y="1036"/>
      <point x="261" y="1086" type="curve"/>
      <point x="217" y="1086" type="line"/>
      <point x="217" y="1065"/>
      <point x="201" y="1053"/>
      <point x="180" y="1053" type="curve"/>
      <point x="157" y="1053"/>
      <point x="143" y="1070"/>
      <point x="143" y="1100" type="curve"/>
      <point x="143" y="1134"/>
      <point x="161" y="1157"/>
      <point x="204" y="1157" type="curve"/>
      <point x="252" y="1157"/>
      <point x="283" y="1131"/>
      <point x="308" y="1088" type="curve"/>
      <point x="339" y="1034"/>
      <point x="362" y="1008"/>
      <point x="413" y="1008" type="curve"/>
      <point x="470" y="1008"/>
      <point x="498" y="1036"/>
      <point x="498" y="1086" type="curve"/>
      <point x="454" y="1086" type="line"/>
      <point x="454" y="1066"/>
      <point x="440" y="1053"/>
      <point x="416" y="1053" type="curve"/>
      <point x="389" y="1053"/>
      <point x="373" y="1072"/>
      <point x="373" y="1100" type="curve"/>
      <point x="373" y="1137"/>
      <point x="398" y="1157"/>
      <point x="442" y="1157" type="curve"/>
      <point x="514" y="1157"/>
      <point x="553" y="1096"/>
      <point x="593" y="1016" type="curve"/>
      <point x="634" y="1016" type="line"/>
      <point x="649" y="1076"/>
      <point x="670" y="1129"/>
      <point x="702" y="1180" type="curve"/>
      <point x="658" y="1200" type="line"/>
      <point x="634" y="1154"/>
      <point x="617" y="1112"/>
      <point x="608" y="1074" type="curve"/>
      <point x="606" y="1074" type="line"/>
      <point x="565" y="1159"/>
      <point x="509" y="1202"/>
      <point x="439" y="1202" type="curve"/>
      <point x="383" y="1202"/>
      <point x="346" y="1175"/>
      <point x="334" y="1124" type="curve"/>
      <point x="332" y="1124" type="line"/>
      <point x="299" y="1177"/>
      <point x="260" y="1202"/>
      <point x="204" y="1202" type="curve"/>
      <point x="134" y="1202"/>
      <point x="100" y="1162"/>
      <point x="100" y="1100" type="curve"/>
      <point x="100" y="1040"/>
      <point x="129" y="1008"/>
    </contour>
  </outline>
</glyph>
<glyph name="uni188B" format="2">
  <advance width="627" height="1000"/>
  <unicode hex="188B"/>
  <outline>
    <contour>
      <point x="363" y="-164" type="curve"/>
      <point x="436" y="-164"/>
      <point x="480" y="-125"/>
      <point x="480" y="-45" type="curve"/>
      <point x="480" y="0"/>
      <point x="464" y="47"/>
      <point x="397" y="138" type="curve"/>
      <point x="397" y="151" type="line"/>
      <point x="397" y="221"/>
      <point x="407" y="292"/>
      <point x="427" y="364" type="curve"/>
      <point x="582" y="364" type="line"/>
      <point x="582" y="444" type="line"/>
      <point x="63" y="444" type="line"/>
      <point x="45" y="364" type="line"/>
      <point x="353" y="364" type="line"/>
      <point x="335" y="305"/>
      <point x="325" y="240"/>
      <point x="324" y="170" type="curve"/>
      <point x="203" y="170"/>
      <point x="152" y="158"/>
      <point x="102" y="128" type="curve"/>
      <point x="102" y="43" type="line"/>
      <point x="162" y="80"/>
      <point x="224" y="90"/>
      <point x="336" y="90" type="curve"/>
      <point x="379" y="30"/>
      <point x="401" y="-15"/>
      <point x="401" y="-45" type="curve"/>
      <point x="401" y="-67"/>
      <point x="386" y="-81"/>
      <point x="363" y="-81" type="curve"/>
      <point x="343" y="-81"/>
      <point x="319" y="-70"/>
      <point x="291" y="-48" type="curve"/>
      <point x="291" y="-139" type="line"/>
      <point x="316" y="-156"/>
      <point x="340" y="-164"/>
    </contour>
  </outline>
</glyph>
<glyph name="uni1891" format="2">
  <advance width="551" height="1000"/>
  <unicode hex="1891"/>
  <outline>
    <contour>
      <point x="366" y="246" type="line"/>
      <point x="459" y="62" type="line"/>
      <point x="205" y="-90" type="line"/>
      <point x="45" y="444" type="line"/>
      <point x="506" y="444" type="line"/>
      <point x="506" y="364" type="line"/>
      <point x="146" y="364" type="line"/>
      <point x="247" y="28" type="line"/>
      <point x="360" y="95" type="line"/>
      <point x="284" y="246" type="line"/>
    </contour>
  </outline>
</glyph>
<glyph name="uni1892" format="2">
  <advance width="680" height="1000"/>
  <unicode hex="1892"/>
  <outline>
    <contour>
      <point x="271" y="40" type="curve"/>
      <point x="377" y="40"/>
      <point x="451" y="135"/>
      <point x="451" y="275" type="curve"/>
      <point x="451" y="320"/>
      <point x="442" y="402"/>
      <point x="428" y="444" type="curve"/>
      <point x="124" y="444" type="line"/>
      <point x="127" y="596"/>
      <point x="200" y="699"/>
      <point x="335" y="699" type="curve"/>
      <point x="468" y="699"/>
      <point x="542" y="583"/>
      <point x="555" y="409" type="curve"/>
      <point x="635" y="419" type="line"/>
      <point x="622" y="621"/>
      <point x="515" y="782"/>
      <point x="335" y="782" type="curve"/>
      <point x="150" y="782"/>
      <point x="45" y="636"/>
      <point x="45" y="408" type="curve"/>
      <point x="45" y="364" type="line"/>
      <point x="362" y="364" type="line"/>
      <point x="369" y="346"/>
      <point x="372" y="316"/>
      <point x="372" y="275" type="curve"/>
      <point x="372" y="170"/>
      <point x="325" y="123"/>
      <point x="264" y="123" type="curve"/>
      <point x="193" y="123"/>
      <point x="149" y="172"/>
      <point x="132" y="269" type="curve"/>
      <point x="55" y="269" type="line"/>
      <point x="78" y="116"/>
      <point x="150" y="40"/>
    </contour>
  </outline>
</glyph>
<glyph name="uni1897" format="2">
  <advance width="550" height="1000"/>
  <unicode hex="1897"/>
  <outline>
    <contour>
      <point x="287" y="30" type="curve"/>
      <point x="326" y="30"/>
      <point x="358" y="44"/>
      <point x="370" y="64" type="curve"/>
      <point x="370" y="155" type="line"/>
      <point x="351" y="127"/>
      <point x="323" y="113"/>
      <point x="287" y="113" type="curve"/>
      <point x="262" y="113"/>
      <point x="239" y="123"/>
      <point x="216" y="144" type="curve"/>
      <point x="172" y="183"/>
      <point x="124" y="297"/>
      <point x="124" y="407" type="curve"/>
      <point x="124" y="573"/>
      <point x="184" y="644"/>
      <point x="273" y="644" type="curve"/>
      <point x="366" y="644"/>
      <point x="414" y="569"/>
      <point x="426" y="409" type="curve"/>
      <point x="505" y="419" type="line"/>
      <point x="491" y="605"/>
      <point x="419" y="727"/>
      <point x="273" y="727" type="curve"/>
      <point x="134" y="727"/>
      <point x="45" y="602"/>
      <point x="45" y="407" type="curve"/>
      <point x="45" y="316"/>
      <point x="69" y="228"/>
      <point x="115" y="148" type="curve"/>
      <point x="163" y="65"/>
      <point x="216" y="30"/>
    </contour>
  </outline>
</glyph>
<glyph name="dagalga" format="2">
  <advance width="0" height="1000"/>
  <unicode hex="18A9"/>
  <anchor x="0" y="0" name="_mong"/>
  <outline>
    <contour>
      <point x="271" y="-388" type="curve"/>
      <point x="345" y="-388" type="line"/>
      <point x="355" y="-373"/>
      <point x="360" y="-354"/>
      <point x="360" y="-331" type="curve"/>
      <point x="360" y="-249"/>
      <point x="316" y="-206"/>
      <point x="235" y="-206" type="curve"/>
      <point x="100" y="-206" type="line"/>
      <point x="100" y="-286" type="line"/>
      <point x="235" y="-286" type="line"/>
      <point x="270" y="-286"/>
      <point x="283" y="-302"/>
      <point x="283" y="-331" type="curve"/>
      <point x="283" y="-352"/>
      <point x="279" y="-372"/>
    </contour>
  </outline>
</glyph>
<glyph name="zwnj" format="2">
  <advance width="770" height="1000"/>
  <unicode hex="200C"/>
  <outline>
    <contour>
      <point x="535" y="67" type="line"/>
      <point x="616" y="67" type="line"/>
      <point x="616" y="93" type="line"/>
      <point x="535" y="93" type="line"/>
    </contour>
    <contour>
      <point x="534" y="708" type="line"/>
      <point x="615" y="708" type="line"/>
      <point x="615" y="734" type="line"/>
      <point x="534" y="734" type="line"/>
    </contour>
    <contour>
      <point x="45" y="665" type="line"/>
      <point x="71" y="665" type="line"/>
      <point x="71" y="708" type="line"/>
      <point x="112" y="708" type="line"/>
      <point x="112" y="733" type="line"/>
      <point x="45" y="733" type="line"/>
    </contour>
    <contour>
      <point x="154" y="708" type="line"/>
      <point x="235" y="708" type="line"/>
      <point x="235" y="733" type="line"/>
      <point x="154" y="733" type="line"/>
    </contour>
    <contour>
      <point x="275" y="707" type="line"/>
      <point x="356" y="707" type="line"/>
      <point x="356" y="733" type="line"/>
      <point x="275" y="733" type="line"/>
    </contour>
    <contour>
      <point x="405" y="707" type="line"/>
      <point x="486" y="707" type="line"/>
      <point x="486" y="733" type="line"/>
      <point x="405" y="733" type="line"/>
    </contour>
    <contour>
      <point x="699" y="666" type="line"/>
      <point x="725" y="666" type="line"/>
      <point x="725" y="733" type="line"/>
      <point x="656" y="733" type="line"/>
      <point x="656" y="707" type="line"/>
      <point x="699" y="707" type="line"/>
    </contour>
    <contour>
      <point x="45" y="544" type="line"/>
      <point x="72" y="544" type="line"/>
      <point x="72" y="624" type="line"/>
      <point x="45" y="624" type="line"/>
    </contour>
    <contour>
      <point x="698" y="544" type="line"/>
      <point x="725" y="544" type="line"/>
      <point x="725" y="624" type="line"/>
      <point x="698" y="624" type="line"/>
    </contour>
    <contour>
      <point x="180" y="427" type="line"/>
      <point x="322" y="427" type="line"/>
      <point x="322" y="459" type="line"/>
      <point x="226" y="459" type="line"/>
      <point x="322" y="578" type="line"/>
      <point x="322" y="609" type="line"/>
      <point x="182" y="609" type="line"/>
      <point x="182" y="577" type="line"/>
      <point x="274" y="577" type="line"/>
      <point x="180" y="459" type="line"/>
    </contour>
    <contour>
      <point x="412" y="424" type="line"/>
      <point x="447" y="424" type="line"/>
      <point x="469" y="530" type="line"/>
      <point x="475" y="565" type="line"/>
      <point x="504" y="424" type="line"/>
      <point x="540" y="424" type="line"/>
      <point x="591" y="606" type="line"/>
      <point x="553" y="606" type="line"/>
      <point x="528" y="501" type="line"/>
      <point x="523" y="472" type="line"/>
      <point x="495" y="606" type="line"/>
      <point x="455" y="606" type="line"/>
      <point x="435" y="501" type="line"/>
      <point x="430" y="472" type="line"/>
      <point x="425" y="502" type="line"/>
      <point x="401" y="606" type="line"/>
      <point x="360" y="606" type="line"/>
    </contour>
    <contour>
      <point x="45" y="422" type="line"/>
      <point x="72" y="422" type="line"/>
      <point x="72" y="503" type="line"/>
      <point x="45" y="503" type="line"/>
    </contour>
    <contour>
      <point x="698" y="422" type="line"/>
      <point x="724" y="422" type="line"/>
      <point x="724" y="503" type="line"/>
      <point x="698" y="503" type="line"/>
    </contour>
    <contour>
      <point x="45" y="301" type="line"/>
      <point x="72" y="301" type="line"/>
      <point x="72" y="382" type="line"/>
      <point x="45" y="382" type="line"/>
    </contour>
    <contour>
      <point x="698" y="301" type="line"/>
      <point x="725" y="301" type="line"/>
      <point x="725" y="381" type="line"/>
      <point x="698" y="381" type="line"/>
    </contour>
    <contour>
      <point x="377" y="186" type="curve"/>
      <point x="415" y="186"/>
      <point x="434" y="206"/>
      <point x="434" y="246" type="curve"/>
      <point x="434" y="372" type="line"/>
      <point x="396" y="372" type="line"/>
      <point x="396" y="245" type="line"/>
      <point x="396" y="226"/>
      <point x="389" y="217"/>
      <point x="376" y="217" type="curve"/>
      <point x="361" y="217"/>
      <point x="353" y="230"/>
      <point x="353" y="256" type="curve"/>
      <point x="353" y="260" type="line"/>
      <point x="317" y="260" type="line"/>
      <point x="317" y="256" type="line"/>
      <point x="317" y="209"/>
      <point x="337" y="186"/>
    </contour>
    <contour>
      <point x="45" y="179" type="line"/>
      <point x="72" y="179" type="line"/>
      <point x="72" y="260" type="line"/>
      <point x="45" y="260" type="line"/>
    </contour>
    <contour>
      <point x="698" y="180" type="line"/>
      <point x="725" y="180" type="line"/>
      <point x="725" y="260" type="line"/>
      <point x="698" y="260" type="line"/>
    </contour>
    <contour>
      <point x="657" y="67" type="line"/>
      <point x="724" y="67" type="line"/>
      <point x="724" y="136" type="line"/>
      <point x="698" y="136" type="line"/>
      <point x="698" y="92" type="line"/>
      <point x="657" y="92" type="line"/>
    </contour>
    <contour>
      <point x="45" y="69" type="line"/>
      <point x="115" y="69" type="line"/>
      <point x="115" y="94" type="line"/>
      <point x="72" y="94" type="line"/>
      <point x="72" y="135" type="line"/>
      <point x="45" y="135" type="line"/>
    </contour>
    <contour>
      <point x="276" y="68" type="line"/>
      <point x="357" y="68" type="line"/>
      <point x="357" y="94" type="line"/>
      <point x="276" y="94" type="line"/>
    </contour>
    <contour>
      <point x="406" y="68" type="line"/>
      <point x="487" y="68" type="line"/>
      <point x="487" y="94" type="line"/>
      <point x="406" y="94" type="line"/>
    </contour>
    <contour>
      <point x="155" y="66" type="line"/>
      <point x="236" y="66" type="line"/>
      <point x="236" y="93" type="line"/>
      <point x="155" y="93" type="line"/>
    </contour>
  </outline>
</glyph>
<glyph name="zwj" format="2">
  <advance width="0" height="1000"/>
  <unicode hex="200D"/>
  <outline>
    <contour>
      <point x="-21" y="-133" type="line"/>
      <point x="-21" y="535" type="line"/>
      <point x="-83" y="473" type="line"/>
      <point x="-109" y="500" type="line"/>
      <point x="-27" y="582" type="line"/>
      <point x="-109" y="663" type="line"/>
      <point x="-83" y="690" type="line"/>
      <point x="0" y="607" type="line"/>
      <point x="83" y="690" type="line"/>
      <point x="109" y="663" type="line"/>
      <point x="27" y="582" type="line"/>
      <point x="109" y="500" type="line"/>
      <point x="83" y="473" type="line"/>
      <point x="21" y="535" type="line"/>
      <point x="21" y="-133" type="line"/>
    </contour>
  </outline>
</glyph>
<glyph name="uni2018" format="2">
  <advance width="267" height="1000"/>
  <unicode hex="2018"/>
  <outline>
    <contour>
      <point x="206" y="762" type="curve"/>
      <point x="185" y="800" type="line"/>
      <point x="121" y="771"/>
      <point x="60" y="702"/>
      <point x="60" y="613" type="curve"/>
      <point x="60" y="558"/>
      <point x="96" y="518"/>
      <point x="139" y="518" type="curve"/>
      <point x="184" y="518"/>
      <point x="207" y="552"/>
      <point x="207" y="583" type="curve"/>
      <point x="207" y="619"/>
      <point x="182" y="647"/>
      <point x="144" y="647" type="curve"/>
      <point x="133" y="647"/>
      <point x="123" y="644"/>
      <point x="117" y="639" type="curve"/>
      <point x="117" y="683"/>
      <point x="152" y="735"/>
    </contour>
  </outline>
</glyph>
<glyph name="uni2019" format="2">
  <advance width="442" height="1000"/>
  <unicode hex="2019"/>
  <outline>
    <contour>
      <point x="324" y="689" type="curve"/>
      <point x="362" y="710" type="line"/>
      <point x="332" y="774"/>
      <point x="264" y="835"/>
      <point x="175" y="835" type="curve"/>
      <point x="120" y="835"/>
      <point x="80" y="799"/>
      <point x="80" y="756" type="curve"/>
      <point x="80" y="711"/>
      <point x="113" y="688"/>
      <point x="145" y="688" type="curve"/>
      <point x="181" y="688"/>
      <point x="209" y="713"/>
      <point x="209" y="751" type="curve"/>
      <point x="209" y="762"/>
      <point x="205" y="772"/>
      <point x="201" y="778" type="curve"/>
      <point x="245" y="778"/>
      <point x="297" y="743"/>
    </contour>
  </outline>
</glyph>
<glyph name="uni201C" format="2">
  <advance width="459" height="1000"/>
  <unicode hex="201C"/>
  <outline>
    <contour>
      <point x="206" y="762" type="curve"/>
      <point x="185" y="800" type="line"/>
      <point x="121" y="771"/>
      <point x="60" y="702"/>
      <point x="60" y="613" type="curve"/>
      <point x="60" y="558"/>
      <point x="96" y="518"/>
      <point x="139" y="518" type="curve"/>
      <point x="184" y="518"/>
      <point x="207" y="552"/>
      <point x="207" y="583" type="curve"/>
      <point x="207" y="619"/>
      <point x="182" y="647"/>
      <point x="145" y="647" type="curve"/>
      <point x="134" y="647"/>
      <point x="123" y="644"/>
      <point x="117" y="639" type="curve"/>
      <point x="117" y="683"/>
      <point x="152" y="735"/>
    </contour>
    <contour>
      <point x="398" y="762" type="curve"/>
      <point x="377" y="800" type="line"/>
      <point x="313" y="771"/>
      <point x="252" y="702"/>
      <point x="252" y="613" type="curve"/>
      <point x="252" y="558"/>
      <point x="288" y="518"/>
      <point x="331" y="518" type="curve"/>
      <point x="376" y="518"/>
      <point x="399" y="552"/>
      <point x="399" y="583" type="curve"/>
      <point x="399" y="619"/>
      <point x="374" y="647"/>
      <point x="336" y="647" type="curve"/>
      <point x="325" y="647"/>
      <point x="315" y="644"/>
      <point x="309" y="639" type="curve"/>
      <point x="309" y="683"/>
      <point x="344" y="735"/>
    </contour>
  </outline>
</glyph>
<glyph name="uni201D" format="2">
  <advance width="459" height="1000"/>
  <unicode hex="201D"/>
  <outline>
    <contour>
      <point x="253" y="556" type="curve"/>
      <point x="274" y="518" type="line"/>
      <point x="338" y="548"/>
      <point x="399" y="616"/>
      <point x="399" y="705" type="curve"/>
      <point x="399" y="760"/>
      <point x="363" y="800"/>
      <point x="320" y="800" type="curve"/>
      <point x="275" y="800"/>
      <point x="252" y="767"/>
      <point x="252" y="735" type="curve"/>
      <point x="252" y="699"/>
      <point x="277" y="671"/>
      <point x="314" y="671" type="curve"/>
      <point x="325" y="671"/>
      <point x="336" y="675"/>
      <point x="342" y="679" type="curve"/>
      <point x="342" y="635"/>
      <point x="307" y="583"/>
    </contour>
    <contour>
      <point x="61" y="556" type="curve"/>
      <point x="82" y="518" type="line"/>
      <point x="146" y="548"/>
      <point x="207" y="616"/>
      <point x="207" y="705" type="curve"/>
      <point x="207" y="760"/>
      <point x="171" y="800"/>
      <point x="128" y="800" type="curve"/>
      <point x="83" y="800"/>
      <point x="60" y="767"/>
      <point x="60" y="735" type="curve"/>
      <point x="60" y="699"/>
      <point x="85" y="671"/>
      <point x="123" y="671" type="curve"/>
      <point x="134" y="671"/>
      <point x="144" y="675"/>
      <point x="150" y="679" type="curve"/>
      <point x="150" y="635"/>
      <point x="115" y="583"/>
    </contour>
  </outline>
</glyph>
<glyph name="nnbsp" format="2">
  <advance width="770" height="1000"/>
  <unicode hex="202F"/>
  <outline>
    <contour>
      <point x="501" y="285" type="curve"/>
      <point x="465" y="285" type="line"/>
      <point x="465" y="339" type="line"/>
      <point x="501" y="339" type="line"/>
      <point x="520" y="339"/>
      <point x="529" y="330"/>
      <point x="529" y="312" type="curve"/>
      <point x="530" y="294"/>
      <point x="520" y="285"/>
    </contour>
    <contour>
      <point x="581" y="533" type="curve"/>
      <point x="537" y="533" type="line"/>
      <point x="537" y="573" type="line"/>
      <point x="577" y="573" type="line"/>
      <point x="598" y="574"/>
      <point x="609" y="567"/>
      <point x="609" y="554" type="curve"/>
      <point x="610" y="540"/>
      <point x="600" y="533"/>
    </contour>
    <contour>
      <point x="581" y="455" type="curve"/>
      <point x="537" y="455" type="line"/>
      <point x="537" y="503" type="line"/>
      <point x="582" y="503" type="line"/>
      <point x="602" y="504"/>
      <point x="612" y="496"/>
      <point x="612" y="481" type="curve"/>
      <point x="613" y="464"/>
      <point x="602" y="455"/>
    </contour>
    <contour>
      <point x="535" y="67" type="line"/>
      <point x="616" y="67" type="line"/>
      <point x="616" y="93" type="line"/>
      <point x="535" y="93" type="line"/>
    </contour>
    <contour>
      <point x="534" y="708" type="line"/>
      <point x="615" y="708" type="line"/>
      <point x="615" y="734" type="line"/>
      <point x="534" y="734" type="line"/>
    </contour>
    <contour>
      <point x="154" y="708" type="line"/>
      <point x="235" y="708" type="line"/>
      <point x="235" y="733" type="line"/>
      <point x="154" y="733" type="line"/>
    </contour>
    <contour>
      <point x="45" y="665" type="line"/>
      <point x="71" y="665" type="line"/>
      <point x="71" y="708" type="line"/>
      <point x="112" y="708" type="line"/>
      <point x="112" y="733" type="line"/>
      <point x="45" y="733" type="line"/>
    </contour>
    <contour>
      <point x="699" y="666" type="line"/>
      <point x="725" y="666" type="line"/>
      <point x="725" y="733" type="line"/>
      <point x="656" y="733" type="line"/>
      <point x="656" y="707" type="line"/>
      <point x="699" y="707" type="line"/>
    </contour>
    <contour>
      <point x="275" y="707" type="line"/>
      <point x="356" y="707" type="line"/>
      <point x="356" y="733" type="line"/>
      <point x="275" y="733" type="line"/>
    </contour>
    <contour>
      <point x="405" y="707" type="line"/>
      <point x="486" y="707" type="line"/>
      <point x="486" y="733" type="line"/>
      <point x="405" y="733" type="line"/>
    </contour>
    <contour>
      <point x="45" y="544" type="line"/>
      <point x="72" y="544" type="line"/>
      <point x="72" y="624" type="line"/>
      <point x="45" y="624" type="line"/>
    </contour>
    <contour>
      <point x="698" y="544" type="line"/>
      <point x="725" y="544" type="line"/>
      <point x="725" y="624" type="line"/>
      <point x="698" y="624" type="line"/>
    </contour>
    <contour>
      <point x="308" y="423" type="line"/>
      <point x="344" y="423" type="line"/>
      <point x="344" y="552" type="line"/>
      <point x="418" y="423" type="line"/>
      <point x="456" y="423" type="line"/>
      <point x="456" y="605" type="line"/>
      <point x="420" y="605" type="line"/>
      <point x="420" y="478" type="line"/>
      <point x="348" y="605" type="line"/>
      <point x="308" y="605" type="line"/>
    </contour>
    <contour>
      <point x="117" y="423" type="line"/>
      <point x="153" y="423" type="line"/>
      <point x="153" y="552" type="line"/>
      <point x="227" y="423" type="line"/>
      <point x="265" y="423" type="line"/>
      <point x="265" y="605" type="line"/>
      <point x="230" y="605" type="line"/>
      <point x="230" y="478" type="line"/>
      <point x="157" y="605" type="line"/>
      <point x="117" y="605" type="line"/>
    </contour>
    <contour>
      <point x="501" y="423" type="line"/>
      <point x="583" y="423" type="line"/>
      <point x="628" y="423"/>
      <point x="651" y="441"/>
      <point x="651" y="478" type="curve"/>
      <point x="651" y="500"/>
      <point x="642" y="514"/>
      <point x="623" y="520" type="curve"/>
      <point x="638" y="529"/>
      <point x="645" y="541"/>
      <point x="645" y="558" type="curve"/>
      <point x="644" y="589"/>
      <point x="626" y="605"/>
      <point x="590" y="605" type="curve"/>
      <point x="501" y="605" type="line"/>
    </contour>
    <contour>
      <point x="45" y="422" type="line"/>
      <point x="72" y="422" type="line"/>
      <point x="72" y="503" type="line"/>
      <point x="45" y="503" type="line"/>
    </contour>
    <contour>
      <point x="698" y="422" type="line"/>
      <point x="724" y="422" type="line"/>
      <point x="724" y="503" type="line"/>
      <point x="698" y="503" type="line"/>
    </contour>
    <contour>
      <point x="45" y="301" type="line"/>
      <point x="72" y="301" type="line"/>
      <point x="72" y="382" type="line"/>
      <point x="45" y="382" type="line"/>
    </contour>
    <contour>
      <point x="698" y="301" type="line"/>
      <point x="725" y="301" type="line"/>
      <point x="725" y="381" type="line"/>
      <point x="698" y="381" type="line"/>
    </contour>
    <contour>
      <point x="283" y="185" type="curve"/>
      <point x="304" y="185"/>
      <point x="322" y="190"/>
      <point x="336" y="200" type="curve"/>
      <point x="349" y="210"/>
      <point x="356" y="224"/>
      <point x="356" y="243" type="curve"/>
      <point x="356" y="267"/>
      <point x="340" y="283"/>
      <point x="309" y="292" type="curve"/>
      <point x="278" y="300" type="line"/>
      <point x="264" y="303"/>
      <point x="256" y="306"/>
      <point x="254" y="307" type="curve"/>
      <point x="248" y="311"/>
      <point x="245" y="316"/>
      <point x="245" y="322" type="curve"/>
      <point x="245" y="337"/>
      <point x="256" y="345"/>
      <point x="278" y="345" type="curve"/>
      <point x="301" y="345"/>
      <point x="313" y="336"/>
      <point x="314" y="317" type="curve"/>
      <point x="351" y="317" type="line"/>
      <point x="350" y="336"/>
      <point x="343" y="350"/>
      <point x="330" y="361" type="curve"/>
      <point x="317" y="371"/>
      <point x="300" y="376"/>
      <point x="280" y="376" type="curve"/>
      <point x="260" y="376"/>
      <point x="244" y="372"/>
      <point x="231" y="363" type="curve"/>
      <point x="217" y="354"/>
      <point x="210" y="339"/>
      <point x="210" y="320" type="curve"/>
      <point x="210" y="302"/>
      <point x="216" y="289"/>
      <point x="229" y="280" type="curve"/>
      <point x="236" y="275"/>
      <point x="249" y="271"/>
      <point x="267" y="266" type="curve"/>
      <point x="287" y="262" type="line"/>
      <point x="309" y="257"/>
      <point x="320" y="250"/>
      <point x="320" y="240" type="curve"/>
      <point x="320" y="223"/>
      <point x="307" y="215"/>
      <point x="282" y="215" type="curve"/>
      <point x="259" y="215"/>
      <point x="247" y="225"/>
      <point x="244" y="245" type="curve"/>
      <point x="207" y="245" type="line"/>
      <point x="207" y="225"/>
      <point x="215" y="210"/>
      <point x="231" y="199" type="curve"/>
      <point x="244" y="190"/>
      <point x="261" y="185"/>
    </contour>
    <contour>
      <point x="428" y="188" type="line"/>
      <point x="465" y="188" type="line"/>
      <point x="465" y="253" type="line"/>
      <point x="504" y="253" type="line"/>
      <point x="546" y="254"/>
      <point x="567" y="273"/>
      <point x="567" y="312" type="curve"/>
      <point x="566" y="351"/>
      <point x="546" y="370"/>
      <point x="506" y="370" type="curve"/>
      <point x="428" y="370" type="line"/>
    </contour>
    <contour>
      <point x="45" y="179" type="line"/>
      <point x="72" y="179" type="line"/>
      <point x="72" y="260" type="line"/>
      <point x="45" y="260" type="line"/>
    </contour>
    <contour>
      <point x="698" y="180" type="line"/>
      <point x="725" y="180" type="line"/>
      <point x="725" y="260" type="line"/>
      <point x="698" y="260" type="line"/>
    </contour>
    <contour>
      <point x="657" y="67" type="line"/>
      <point x="724" y="67" type="line"/>
      <point x="724" y="136" type="line"/>
      <point x="698" y="136" type="line"/>
      <point x="698" y="92" type="line"/>
      <point x="657" y="92" type="line"/>
    </contour>
    <contour>
      <point x="45" y="69" type="line"/>
      <point x="115" y="69" type="line"/>
      <point x="115" y="94" type="line"/>
      <point x="72" y="94" type="line"/>
      <point x="72" y="135" type="line"/>
      <point x="45" y="135" type="line"/>
    </contour>
    <contour>
      <point x="406" y="68" type="line"/>
      <point x="487" y="68" type="line"/>
      <point x="487" y="94" type="line"/>
      <point x="406" y="94" type="line"/>
    </contour>
    <contour>
      <point x="276" y="68" type="line"/>
      <point x="357" y="68" type="line"/>
      <point x="357" y="94" type="line"/>
      <point x="276" y="94" type="line"/>
    </contour>
    <contour>
      <point x="155" y="66" type="line"/>
      <point x="236" y="66" type="line"/>
      <point x="236" y="93" type="line"/>
      <point x="155" y="93" type="line"/>
    </contour>
  </outline>
</glyph>
<glyph name="uni2048" format="2">
  <advance width="1000" height="1000"/>
  <unicode hex="2048"/>
  <outline>
    <contour>
      <point x="680" y="781" type="line"/>
      <point x="705" y="268" type="line"/>
      <point x="762" y="268" type="line"/>
      <point x="787" y="781" type="line"/>
    </contour>
    <contour>
      <point x="671" y="121" type="curve"/>
      <point x="671" y="73"/>
      <point x="698" y="53"/>
      <point x="733" y="53" type="curve"/>
      <point x="767" y="53"/>
      <point x="795" y="73"/>
      <point x="795" y="121" type="curve"/>
      <point x="795" y="164"/>
      <point x="772" y="188"/>
      <point x="733" y="188" type="curve"/>
      <point x="698" y="188"/>
      <point x="671" y="170"/>
    </contour>
    <contour>
      <point x="206" y="741" type="curve"/>
      <point x="237" y="671" type="line"/>
      <point x="298" y="700"/>
      <point x="335" y="713"/>
      <point x="397" y="713" type="curve"/>
      <point x="476" y="713"/>
      <point x="518" y="677"/>
      <point x="518" y="613" type="curve"/>
      <point x="518" y="553"/>
      <point x="488" y="522"/>
      <point x="418" y="464" type="curve"/>
      <point x="382" y="434"/>
      <point x="360" y="406"/>
      <point x="350" y="383" type="curve"/>
      <point x="340" y="360"/>
      <point x="334" y="331"/>
      <point x="334" y="294" type="curve"/>
      <point x="334" y="267" type="line"/>
      <point x="404" y="267" type="line"/>
      <point x="404" y="284" type="line"/>
      <point x="404" y="314"/>
      <point x="409" y="338"/>
      <point x="420" y="356" type="curve"/>
      <point x="431" y="374"/>
      <point x="452" y="397"/>
      <point x="484" y="424" type="curve"/>
      <point x="556" y="485"/>
      <point x="602" y="524"/>
      <point x="602" y="615" type="curve"/>
      <point x="602" y="727"/>
      <point x="526" y="790"/>
      <point x="403" y="790" type="curve"/>
      <point x="334" y="790"/>
      <point x="268" y="774"/>
    </contour>
    <contour>
      <point x="311" y="120" type="curve"/>
      <point x="311" y="72"/>
      <point x="337" y="52"/>
      <point x="373" y="52" type="curve"/>
      <point x="406" y="52"/>
      <point x="434" y="72"/>
      <point x="434" y="120" type="curve"/>
      <point x="434" y="164"/>
      <point x="412" y="187"/>
      <point x="373" y="187" type="curve"/>
      <point x="332" y="187"/>
      <point x="311" y="165"/>
    </contour>
  </outline>
</glyph>
<glyph name="uni2049" format="2">
  <advance width="1000" height="1000"/>
  <unicode hex="2049"/>
  <outline>
    <contour>
      <point x="226" y="772" type="line"/>
      <point x="251" y="259" type="line"/>
      <point x="308" y="259" type="line"/>
      <point x="333" y="772" type="line"/>
    </contour>
    <contour>
      <point x="217" y="112" type="curve"/>
      <point x="217" y="64"/>
      <point x="244" y="44"/>
      <point x="279" y="44" type="curve"/>
      <point x="313" y="44"/>
      <point x="341" y="64"/>
      <point x="341" y="112" type="curve"/>
      <point x="341" y="155"/>
      <point x="318" y="179"/>
      <point x="279" y="179" type="curve"/>
      <point x="244" y="179"/>
      <point x="217" y="161"/>
    </contour>
    <contour>
      <point x="387" y="732" type="curve"/>
      <point x="418" y="662" type="line"/>
      <point x="479" y="691"/>
      <point x="516" y="704"/>
      <point x="578" y="704" type="curve"/>
      <point x="657" y="704"/>
      <point x="699" y="668"/>
      <point x="699" y="604" type="curve"/>
      <point x="699" y="544"/>
      <point x="669" y="513"/>
      <point x="599" y="455" type="curve"/>
      <point x="563" y="425"/>
      <point x="541" y="397"/>
      <point x="531" y="374" type="curve"/>
      <point x="521" y="351"/>
      <point x="515" y="322"/>
      <point x="515" y="285" type="curve"/>
      <point x="515" y="258" type="line"/>
      <point x="585" y="258" type="line"/>
      <point x="585" y="275" type="line"/>
      <point x="585" y="305"/>
      <point x="590" y="329"/>
      <point x="601" y="347" type="curve"/>
      <point x="612" y="365"/>
      <point x="633" y="388"/>
      <point x="665" y="415" type="curve"/>
      <point x="737" y="476"/>
      <point x="783" y="515"/>
      <point x="783" y="606" type="curve"/>
      <point x="783" y="718"/>
      <point x="707" y="781"/>
      <point x="584" y="781" type="curve"/>
      <point x="515" y="781"/>
      <point x="449" y="765"/>
    </contour>
    <contour>
      <point x="492" y="111" type="curve"/>
      <point x="492" y="63"/>
      <point x="518" y="43"/>
      <point x="554" y="43" type="curve"/>
      <point x="587" y="43"/>
      <point x="615" y="63"/>
      <point x="615" y="111" type="curve"/>
      <point x="615" y="155"/>
      <point x="593" y="178"/>
      <point x="554" y="178" type="curve"/>
      <point x="513" y="178"/>
      <point x="492" y="156"/>
    </contour>
  </outline>
</glyph>
<glyph name="uni25CC" format="2">
  <advance width="588" height="1000"/>
  <unicode hex="25CC"/>
  <outline>
    <contour>
      <point x="499" y="349" type="curve"/>
      <point x="517" y="349"/>
      <point x="526" y="358"/>
      <point x="526" y="376" type="curve"/>
      <point x="526" y="393"/>
      <point x="517" y="402"/>
      <point x="500" y="402" type="curve"/>
      <point x="482" y="402"/>
      <point x="473" y="393"/>
      <point x="473" y="376" type="curve"/>
      <point x="473" y="358"/>
      <point x="482" y="349"/>
    </contour>
    <contour>
      <point x="137" y="107" type="curve"/>
      <point x="155" y="107"/>
      <point x="164" y="116"/>
      <point x="164" y="133" type="curve"/>
      <point x="164" y="151"/>
      <point x="155" y="160"/>
      <point x="137" y="160" type="curve"/>
      <point x="120" y="160"/>
      <point x="111" y="151"/>
      <point x="111" y="133" type="curve"/>
      <point x="111" y="116"/>
      <point x="120" y="107"/>
    </contour>
    <contour>
      <point x="89" y="180" type="curve"/>
      <point x="106" y="180"/>
      <point x="115" y="189"/>
      <point x="115" y="206" type="curve"/>
      <point x="115" y="224"/>
      <point x="106" y="233"/>
      <point x="89" y="233" type="curve"/>
      <point x="71" y="233"/>
      <point x="62" y="224"/>
      <point x="62" y="206" type="curve"/>
      <point x="62" y="189"/>
      <point x="71" y="180"/>
    </contour>
    <contour>
      <point x="209" y="60" type="curve"/>
      <point x="227" y="60"/>
      <point x="236" y="69"/>
      <point x="236" y="87" type="curve"/>
      <point x="236" y="104"/>
      <point x="227" y="112"/>
      <point x="209" y="112" type="curve"/>
      <point x="192" y="112"/>
      <point x="183" y="103"/>
      <point x="183" y="85" type="curve"/>
      <point x="183" y="68"/>
      <point x="192" y="60"/>
    </contour>
    <contour>
      <point x="72" y="265" type="curve"/>
      <point x="89" y="265"/>
      <point x="98" y="274"/>
      <point x="98" y="291" type="curve"/>
      <point x="98" y="308"/>
      <point x="89" y="317"/>
      <point x="72" y="317" type="curve"/>
      <point x="54" y="317"/>
      <point x="45" y="308"/>
      <point x="45" y="291" type="curve"/>
      <point x="45" y="274"/>
      <point x="54" y="265"/>
    </contour>
    <contour>
      <point x="294" y="42" type="curve"/>
      <point x="311" y="42"/>
      <point x="320" y="51"/>
      <point x="320" y="69" type="curve"/>
      <point x="320" y="86"/>
      <point x="311" y="95"/>
      <point x="294" y="95" type="curve"/>
      <point x="277" y="95"/>
      <point x="268" y="86"/>
      <point x="268" y="69" type="curve"/>
      <point x="268" y="51"/>
      <point x="277" y="42"/>
    </contour>
    <contour>
      <point x="90" y="349" type="curve"/>
      <point x="107" y="349"/>
      <point x="115" y="358"/>
      <point x="115" y="376" type="curve"/>
      <point x="115" y="393"/>
      <point x="106" y="402"/>
      <point x="89" y="402" type="curve"/>
      <point x="71" y="402"/>
      <point x="62" y="393"/>
      <point x="62" y="376" type="curve"/>
      <point x="62" y="358"/>
      <point x="71" y="349"/>
    </contour>
    <contour>
      <point x="380" y="60" type="curve"/>
      <point x="397" y="60"/>
      <point x="405" y="68"/>
      <point x="405" y="85" type="curve"/>
      <point x="405" y="103"/>
      <point x="397" y="112"/>
      <point x="380" y="112" type="curve"/>
      <point x="361" y="112"/>
      <point x="352" y="103"/>
      <point x="352" y="85" type="curve"/>
      <point x="352" y="68"/>
      <point x="361" y="60"/>
    </contour>
    <contour>
      <point x="452" y="107" type="curve"/>
      <point x="469" y="107"/>
      <point x="477" y="116"/>
      <point x="477" y="133" type="curve"/>
      <point x="477" y="151"/>
      <point x="469" y="160"/>
      <point x="452" y="160" type="curve"/>
      <point x="434" y="160"/>
      <point x="425" y="151"/>
      <point x="425" y="133" type="curve"/>
      <point x="425" y="116"/>
      <point x="434" y="107"/>
    </contour>
    <contour>
      <point x="137" y="422" type="curve"/>
      <point x="155" y="422"/>
      <point x="164" y="431"/>
      <point x="164" y="448" type="curve"/>
      <point x="164" y="466"/>
      <point x="155" y="475"/>
      <point x="137" y="475" type="curve"/>
      <point x="120" y="475"/>
      <point x="111" y="466"/>
      <point x="111" y="447" type="curve"/>
      <point x="111" y="430"/>
      <point x="120" y="422"/>
    </contour>
    <contour>
      <point x="209" y="470" type="curve"/>
      <point x="227" y="470"/>
      <point x="236" y="479"/>
      <point x="236" y="496" type="curve"/>
      <point x="236" y="514"/>
      <point x="227" y="523"/>
      <point x="209" y="523" type="curve"/>
      <point x="192" y="523"/>
      <point x="183" y="514"/>
      <point x="183" y="496" type="curve"/>
      <point x="183" y="479"/>
      <point x="192" y="470"/>
    </contour>
    <contour>
      <point x="499" y="180" type="curve"/>
      <point x="517" y="180"/>
      <point x="526" y="189"/>
      <point x="526" y="206" type="curve"/>
      <point x="526" y="224"/>
      <point x="517" y="233"/>
      <point x="499" y="233" type="curve"/>
      <point x="482" y="233"/>
      <point x="473" y="224"/>
      <point x="473" y="206" type="curve"/>
      <point x="473" y="189"/>
      <point x="482" y="180"/>
    </contour>
    <contour>
      <point x="294" y="487" type="curve"/>
      <point x="311" y="487"/>
      <point x="320" y="496"/>
      <point x="320" y="514" type="curve"/>
      <point x="320" y="531"/>
      <point x="311" y="540"/>
      <point x="294" y="540" type="curve"/>
      <point x="277" y="540"/>
      <point x="268" y="531"/>
      <point x="268" y="514" type="curve"/>
      <point x="268" y="496"/>
      <point x="277" y="487"/>
    </contour>
    <contour>
      <point x="518" y="265" type="curve"/>
      <point x="535" y="265"/>
      <point x="543" y="274"/>
      <point x="543" y="291" type="curve"/>
      <point x="543" y="308"/>
      <point x="535" y="317"/>
      <point x="518" y="317" type="curve"/>
      <point x="500" y="317"/>
      <point x="491" y="308"/>
      <point x="491" y="291" type="curve"/>
      <point x="491" y="274"/>
      <point x="500" y="265"/>
    </contour>
    <contour>
      <point x="380" y="470" type="curve"/>
      <point x="397" y="470"/>
      <point x="405" y="479"/>
      <point x="405" y="496" type="curve"/>
      <point x="405" y="514"/>
      <point x="397" y="523"/>
      <point x="380" y="523" type="curve"/>
      <point x="361" y="523"/>
      <point x="352" y="514"/>
      <point x="352" y="496" type="curve"/>
      <point x="352" y="479"/>
      <point x="361" y="470"/>
    </contour>
    <contour>
      <point x="452" y="422" type="curve"/>
      <point x="469" y="422"/>
      <point x="477" y="431"/>
      <point x="477" y="448" type="curve"/>
      <point x="477" y="466"/>
      <point x="469" y="475"/>
      <point x="452" y="475" type="curve"/>
      <point x="434" y="475"/>
      <point x="425" y="466"/>
      <point x="425" y="448" type="curve"/>
      <point x="425" y="431"/>
      <point x="434" y="422"/>
    </contour>
  </outline>
</glyph>
<glyph name="uni3001" format="2">
  <advance width="1000" height="1000"/>
  <unicode hex="3001"/>
  <outline>
    <contour>
      <point x="273" y="-56" type="curve"/>
      <point x="341" y="2" type="line"/>
      <point x="279" y="75"/>
      <point x="189" y="166"/>
      <point x="117" y="224" type="curve"/>
      <point x="52" y="167" type="line"/>
      <point x="123" y="109"/>
      <point x="209" y="23"/>
    </contour>
  </outline>
</glyph>
<glyph name="uniFF0D" format="2">
  <advance width="1000" height="1000"/>
  <unicode hex="FF0D"/>
  <outline>
    <contour>
      <point x="863" y="410" type="line"/>
      <point x="137" y="410" type="line"/>
      <point x="137" y="341" type="line"/>
      <point x="863" y="341" type="line"/>
    </contour>
  </outline>
</glyph>
<glyph name="uniFF3D" format="2">
  <advance width="1000" height="1000"/>
  <unicode hex="FF3D"/>
  <outline>
    <contour>
      <point x="288" y="846" type="line"/>
      <point x="288" y="-86" type="line"/>
      <point x="34" y="-86" type="line"/>
      <point x="34" y="-33" type="line"/>
      <point x="219" y="-33" type="line"/>
      <point x="219" y="793" type="line"/>
      <point x="34" y="793" type="line"/>
      <point x="34" y="846" type="line"/>
    </contour>
  </outline>
</glyph>
<glyph name="u11661" format="2">
  <advance width="830" height="1000"/>
  <unicode hex="11661"/>
  <outline>
    <contour>
      <point x="522" y="159" type="curve"/>
      <point x="668" y="159"/>
      <point x="770" y="233"/>
      <point x="770" y="370" type="curve"/>
      <point x="770" y="491"/>
      <point x="684" y="573"/>
      <point x="552" y="573" type="curve"/>
      <point x="456" y="573"/>
      <point x="386" y="526"/>
      <point x="341" y="433" type="curve"/>
      <point x="410" y="393" type="line"/>
      <point x="443" y="461"/>
      <point x="490" y="495"/>
      <point x="552" y="495" type="curve"/>
      <point x="642" y="495"/>
      <point x="690" y="446"/>
      <point x="690" y="370" type="curve"/>
      <point x="690" y="284"/>
      <point x="626" y="237"/>
      <point x="522" y="237" type="curve"/>
      <point x="381" y="237"/>
      <point x="222" y="342"/>
      <point x="60" y="468" type="curve"/>
      <point x="60" y="372" type="line"/>
      <point x="215" y="254"/>
      <point x="371" y="159"/>
    </contour>
  </outline>
</glyph>
<glyph name="u11662" format="2">
  <advance width="656" height="1000"/>
  <unicode hex="11662"/>
  <outline>
    <contour>
      <point x="155" y="-205" type="curve"/>
      <point x="251" y="-205" type="line"/>
      <point x="347" y="-88"/>
      <point x="434" y="32"/>
      <point x="434" y="147" type="curve"/>
      <point x="434" y="228"/>
      <point x="410" y="288"/>
      <point x="360" y="328" type="curve"/>
      <point x="404" y="372"/>
      <point x="434" y="435"/>
      <point x="434" y="496" type="curve"/>
      <point x="434" y="622"/>
      <point x="367" y="710"/>
      <point x="243" y="710" type="curve"/>
      <point x="134" y="710"/>
      <point x="60" y="637"/>
      <point x="60" y="520" type="curve"/>
      <point x="60" y="467"/>
      <point x="84" y="421"/>
      <point x="134" y="383" type="curve"/>
      <point x="182" y="441" type="line"/>
      <point x="151" y="462"/>
      <point x="138" y="493"/>
      <point x="138" y="520" type="curve"/>
      <point x="138" y="592"/>
      <point x="179" y="630"/>
      <point x="243" y="630" type="curve"/>
      <point x="316" y="630"/>
      <point x="356" y="579"/>
      <point x="356" y="496" type="curve"/>
      <point x="356" y="441"/>
      <point x="337" y="399"/>
      <point x="291" y="360" type="curve"/>
      <point x="276" y="363"/>
      <point x="260" y="365"/>
      <point x="243" y="365" type="curve"/>
      <point x="136" y="365"/>
      <point x="60" y="294"/>
      <point x="60" y="177" type="curve"/>
      <point x="60" y="98"/>
      <point x="93" y="39"/>
      <point x="160" y="1" type="curve"/>
      <point x="210" y="65" type="line"/>
      <point x="162" y="90"/>
      <point x="138" y="127"/>
      <point x="138" y="177" type="curve"/>
      <point x="138" y="249"/>
      <point x="179" y="285"/>
      <point x="243" y="285" type="curve"/>
      <point x="316" y="285"/>
      <point x="356" y="233"/>
      <point x="356" y="147" type="curve"/>
      <point x="356" y="40"/>
      <point x="258" y="-86"/>
    </contour>
    <contour>
      <point x="445" y="-45" type="curve"/>
      <point x="529" y="-45" type="line"/>
      <point x="574" y="7"/>
      <point x="596" y="71"/>
      <point x="596" y="148" type="curve"/>
      <point x="596" y="213"/>
      <point x="574" y="271"/>
      <point x="529" y="321" type="curve"/>
      <point x="569" y="366"/>
      <point x="596" y="418"/>
      <point x="596" y="494" type="curve"/>
      <point x="596" y="574"/>
      <point x="569" y="640"/>
      <point x="529" y="683" type="curve"/>
      <point x="445" y="683" type="line"/>
      <point x="494" y="631"/>
      <point x="518" y="573"/>
      <point x="518" y="494" type="curve"/>
      <point x="518" y="419"/>
      <point x="494" y="368"/>
      <point x="445" y="321" type="curve"/>
      <point x="494" y="276"/>
      <point x="518" y="219"/>
      <point x="518" y="148" type="curve"/>
      <point x="518" y="68"/>
      <point x="494" y="4"/>
    </contour>
  </outline>
</glyph>
<glyph name="u11663" format="2">
  <advance width="616" height="1000"/>
  <unicode hex="11663"/>
  <outline>
    <contour>
      <point x="155" y="-240" type="curve"/>
      <point x="251" y="-240" type="line"/>
      <point x="330" y="-158"/>
      <point x="394" y="-71"/>
      <point x="394" y="20" type="curve"/>
      <point x="394" y="82"/>
      <point x="374" y="128"/>
      <point x="332" y="159" type="curve"/>
      <point x="370" y="197"/>
      <point x="394" y="250"/>
      <point x="394" y="300" type="curve"/>
      <point x="394" y="363"/>
      <point x="373" y="411"/>
      <point x="330" y="443" type="curve"/>
      <point x="369" y="482"/>
      <point x="394" y="536"/>
      <point x="394" y="586" type="curve"/>
      <point x="394" y="693"/>
      <point x="327" y="760"/>
      <point x="223" y="760" type="curve"/>
      <point x="128" y="760"/>
      <point x="60" y="701"/>
      <point x="60" y="600" type="curve"/>
      <point x="60" y="559"/>
      <point x="77" y="522"/>
      <point x="111" y="491" type="curve"/>
      <point x="169" y="540" type="line"/>
      <point x="148" y="557"/>
      <point x="138" y="577"/>
      <point x="138" y="600" type="curve"/>
      <point x="138" y="652"/>
      <point x="172" y="680"/>
      <point x="223" y="680" type="curve"/>
      <point x="283" y="680"/>
      <point x="316" y="645"/>
      <point x="316" y="586" type="curve"/>
      <point x="316" y="539"/>
      <point x="298" y="503"/>
      <point x="256" y="472" type="curve"/>
      <point x="246" y="473"/>
      <point x="234" y="474"/>
      <point x="223" y="474" type="curve"/>
      <point x="128" y="474"/>
      <point x="60" y="415"/>
      <point x="60" y="314" type="curve"/>
      <point x="60" y="277"/>
      <point x="76" y="237"/>
      <point x="111" y="205" type="curve"/>
      <point x="169" y="254" type="line"/>
      <point x="148" y="271"/>
      <point x="138" y="291"/>
      <point x="138" y="314" type="curve"/>
      <point x="138" y="366"/>
      <point x="172" y="394"/>
      <point x="223" y="394" type="curve"/>
      <point x="283" y="394"/>
      <point x="316" y="359"/>
      <point x="316" y="300" type="curve"/>
      <point x="316" y="255"/>
      <point x="300" y="220"/>
      <point x="257" y="187" type="curve"/>
      <point x="247" y="188"/>
      <point x="235" y="189"/>
      <point x="223" y="189" type="curve"/>
      <point x="128" y="189"/>
      <point x="60" y="130"/>
      <point x="60" y="29" type="curve"/>
      <point x="60" y="-39"/>
      <point x="93" y="-87"/>
      <point x="160" y="-117" type="curve"/>
      <point x="200" y="-49" type="line"/>
      <point x="159" y="-30"/>
      <point x="138" y="-4"/>
      <point x="138" y="29" type="curve"/>
      <point x="138" y="80"/>
      <point x="172" y="109"/>
      <point x="223" y="109" type="curve"/>
      <point x="283" y="109"/>
      <point x="316" y="77"/>
      <point x="316" y="20" type="curve"/>
      <point x="316" y="-67"/>
      <point x="247" y="-141"/>
    </contour>
    <contour>
      <point x="405" y="-151" type="curve"/>
      <point x="489" y="-151" type="line"/>
      <point x="529" y="-108"/>
      <point x="556" y="-60"/>
      <point x="556" y="12" type="curve"/>
      <point x="556" y="69"/>
      <point x="534" y="116"/>
      <point x="489" y="155" type="curve"/>
      <point x="529" y="191"/>
      <point x="556" y="234"/>
      <point x="556" y="298" type="curve"/>
      <point x="556" y="355"/>
      <point x="534" y="402"/>
      <point x="489" y="441" type="curve"/>
      <point x="529" y="477"/>
      <point x="556" y="520"/>
      <point x="556" y="584" type="curve"/>
      <point x="556" y="641"/>
      <point x="534" y="688"/>
      <point x="489" y="727" type="curve"/>
      <point x="405" y="727" type="line"/>
      <point x="454" y="690"/>
      <point x="478" y="643"/>
      <point x="478" y="584" type="curve"/>
      <point x="478" y="521"/>
      <point x="454" y="480"/>
      <point x="405" y="441" type="curve"/>
      <point x="454" y="404"/>
      <point x="478" y="357"/>
      <point x="478" y="298" type="curve"/>
      <point x="478" y="235"/>
      <point x="454" y="194"/>
      <point x="405" y="155" type="curve"/>
      <point x="454" y="118"/>
      <point x="478" y="71"/>
      <point x="478" y="12" type="curve"/>
      <point x="478" y="-59"/>
      <point x="454" y="-107"/>
    </contour>
  </outline>
</glyph>
<glyph name="u11664" format="2">
  <advance width="858" height="1000"/>
  <unicode hex="11664"/>
  <outline>
    <contour>
      <point x="165" y="-99" type="curve"/>
      <point x="261" y="-99" type="line"/>
      <point x="379" y="53"/>
      <point x="474" y="212"/>
      <point x="474" y="363" type="curve"/>
      <point x="474" y="508"/>
      <point x="400" y="611"/>
      <point x="263" y="611" type="curve"/>
      <point x="140" y="611"/>
      <point x="60" y="525"/>
      <point x="60" y="393" type="curve"/>
      <point x="60" y="297"/>
      <point x="107" y="227"/>
      <point x="200" y="182" type="curve"/>
      <point x="240" y="251" type="line"/>
      <point x="172" y="283"/>
      <point x="138" y="331"/>
      <point x="138" y="393" type="curve"/>
      <point x="138" y="482"/>
      <point x="187" y="531"/>
      <point x="263" y="531" type="curve"/>
      <point x="350" y="531"/>
      <point x="396" y="467"/>
      <point x="396" y="363" type="curve"/>
      <point x="396" y="217"/>
      <point x="291" y="68"/>
    </contour>
    <contour>
      <point x="485" y="151" type="curve"/>
      <point x="569" y="151" type="line"/>
      <point x="609" y="202"/>
      <point x="636" y="278"/>
      <point x="636" y="368" type="curve"/>
      <point x="636" y="458"/>
      <point x="609" y="534"/>
      <point x="569" y="585" type="curve"/>
      <point x="485" y="585" type="line"/>
      <point x="534" y="528"/>
      <point x="558" y="456"/>
      <point x="558" y="368" type="curve"/>
      <point x="558" y="281"/>
      <point x="534" y="208"/>
    </contour>
    <contour>
      <point x="647" y="151" type="curve"/>
      <point x="731" y="151" type="line"/>
      <point x="771" y="202"/>
      <point x="798" y="278"/>
      <point x="798" y="368" type="curve"/>
      <point x="798" y="458"/>
      <point x="771" y="534"/>
      <point x="731" y="585" type="curve"/>
      <point x="647" y="585" type="line"/>
      <point x="696" y="528"/>
      <point x="720" y="456"/>
      <point x="720" y="368" type="curve"/>
      <point x="720" y="281"/>
      <point x="696" y="208"/>
    </contour>
  </outline>
</glyph>
<glyph name="u11666" format="2">
  <advance width="1154" height="1000"/>
  <unicode hex="11666"/>
  <outline>
    <contour>
      <point x="943" y="181" type="curve"/>
      <point x="1027" y="181" type="line"/>
      <point x="1067" y="232"/>
      <point x="1094" y="288"/>
      <point x="1094" y="368" type="curve"/>
      <point x="1094" y="448"/>
      <point x="1067" y="504"/>
      <point x="1027" y="555" type="curve"/>
      <point x="943" y="555" type="line"/>
      <point x="992" y="498"/>
      <point x="1016" y="446"/>
      <point x="1016" y="368" type="curve"/>
      <point x="1016" y="291"/>
      <point x="992" y="238"/>
    </contour>
    <contour>
      <point x="781" y="181" type="curve"/>
      <point x="865" y="181" type="line"/>
      <point x="905" y="232"/>
      <point x="932" y="288"/>
      <point x="932" y="368" type="curve"/>
      <point x="932" y="448"/>
      <point x="905" y="504"/>
      <point x="865" y="555" type="curve"/>
      <point x="781" y="555" type="line"/>
      <point x="830" y="498"/>
      <point x="854" y="446"/>
      <point x="854" y="368" type="curve"/>
      <point x="854" y="291"/>
      <point x="830" y="238"/>
    </contour>
    <contour>
      <point x="522" y="159" type="curve"/>
      <point x="668" y="159"/>
      <point x="770" y="233"/>
      <point x="770" y="370" type="curve"/>
      <point x="770" y="491"/>
      <point x="684" y="573"/>
      <point x="552" y="573" type="curve"/>
      <point x="456" y="573"/>
      <point x="386" y="526"/>
      <point x="341" y="433" type="curve"/>
      <point x="410" y="393" type="line"/>
      <point x="443" y="461"/>
      <point x="490" y="495"/>
      <point x="552" y="495" type="curve"/>
      <point x="642" y="495"/>
      <point x="690" y="446"/>
      <point x="690" y="370" type="curve"/>
      <point x="690" y="284"/>
      <point x="626" y="237"/>
      <point x="522" y="237" type="curve"/>
      <point x="381" y="237"/>
      <point x="222" y="342"/>
      <point x="60" y="468" type="curve"/>
      <point x="60" y="372" type="line"/>
      <point x="215" y="254"/>
      <point x="371" y="159"/>
    </contour>
  </outline>
</glyph>
<glyph name="u11667" format="2">
  <advance width="534" height="1000"/>
  <unicode hex="11667"/>
  <outline>
    <contour>
      <point x="261" y="611" type="curve"/>
      <point x="165" y="611" type="line"/>
      <point x="293" y="484"/>
      <point x="396" y="305"/>
      <point x="396" y="154" type="curve"/>
      <point x="396" y="55"/>
      <point x="351" y="-19"/>
      <point x="258" y="-19" type="curve"/>
      <point x="188" y="-19"/>
      <point x="138" y="25"/>
      <point x="138" y="108" type="curve"/>
      <point x="138" y="176"/>
      <point x="172" y="229"/>
      <point x="240" y="261" type="curve"/>
      <point x="200" y="330" type="line"/>
      <point x="107" y="285"/>
      <point x="60" y="206"/>
      <point x="60" y="110" type="curve"/>
      <point x="60" y="-22"/>
      <point x="141" y="-99"/>
      <point x="258" y="-99" type="curve"/>
      <point x="401" y="-99"/>
      <point x="474" y="14"/>
      <point x="474" y="154" type="curve"/>
      <point x="474" y="310"/>
      <point x="379" y="479"/>
    </contour>
  </outline>
</glyph>
<glyph name="u11668" format="2">
  <advance width="858" height="1000"/>
  <unicode hex="11668"/>
  <outline>
    <contour>
      <point x="485" y="-73" type="curve"/>
      <point x="569" y="-73" type="line"/>
      <point x="609" y="-22"/>
      <point x="636" y="54"/>
      <point x="636" y="144" type="curve"/>
      <point x="636" y="234"/>
      <point x="609" y="310"/>
      <point x="569" y="361" type="curve"/>
      <point x="485" y="361" type="line"/>
      <point x="534" y="304"/>
      <point x="558" y="232"/>
      <point x="558" y="144" type="curve"/>
      <point x="558" y="57"/>
      <point x="534" y="-16"/>
    </contour>
    <contour>
      <point x="647" y="-73" type="curve"/>
      <point x="731" y="-73" type="line"/>
      <point x="771" y="-22"/>
      <point x="798" y="54"/>
      <point x="798" y="144" type="curve"/>
      <point x="798" y="234"/>
      <point x="771" y="310"/>
      <point x="731" y="361" type="curve"/>
      <point x="647" y="361" type="line"/>
      <point x="696" y="304"/>
      <point x="720" y="232"/>
      <point x="720" y="144" type="curve"/>
      <point x="720" y="57"/>
      <point x="696" y="-16"/>
    </contour>
    <contour>
      <point x="261" y="611" type="curve"/>
      <point x="165" y="611" type="line"/>
      <point x="293" y="484"/>
      <point x="396" y="305"/>
      <point x="396" y="154" type="curve"/>
      <point x="396" y="55"/>
      <point x="351" y="-19"/>
      <point x="258" y="-19" type="curve"/>
      <point x="188" y="-19"/>
      <point x="138" y="25"/>
      <point x="138" y="108" type="curve"/>
      <point x="138" y="176"/>
      <point x="172" y="229"/>
      <point x="240" y="261" type="curve"/>
      <point x="200" y="330" type="line"/>
      <point x="107" y="285"/>
      <point x="60" y="206"/>
      <point x="60" y="110" type="curve"/>
      <point x="60" y="-22"/>
      <point x="141" y="-99"/>
      <point x="258" y="-99" type="curve"/>
      <point x="401" y="-99"/>
      <point x="474" y="14"/>
      <point x="474" y="154" type="curve"/>
      <point x="474" y="310"/>
      <point x="379" y="479"/>
    </contour>
  </outline>
</glyph>
<glyph name="u11669" format="2">
  <advance width="708" height="1000"/>
  <unicode hex="11669"/>
  <outline>
    <contour>
      <point x="446" y="169" type="curve"/>
      <point x="368" y="169" type="line"/>
      <point x="362" y="113"/>
      <point x="337" y="53"/>
      <point x="260" y="53" type="curve"/>
      <point x="183" y="53"/>
      <point x="138" y="112"/>
      <point x="138" y="229" type="curve"/>
      <point x="138" y="347"/>
      <point x="191" y="479"/>
      <point x="246" y="570" type="curve"/>
      <point x="150" y="570" type="line"/>
      <point x="92" y="463"/>
      <point x="60" y="342"/>
      <point x="60" y="238" type="curve"/>
      <point x="60" y="84"/>
      <point x="131" y="-27"/>
      <point x="260" y="-27" type="curve"/>
      <point x="363" y="-27"/>
      <point x="445" y="43"/>
    </contour>
    <contour>
      <point x="262" y="389" type="curve"/>
      <point x="340" y="389" type="line"/>
      <point x="338" y="454"/>
      <point x="368" y="506"/>
      <point x="453" y="506" type="curve"/>
      <point x="522" y="506"/>
      <point x="570" y="476"/>
      <point x="570" y="339" type="curve"/>
      <point x="570" y="241"/>
      <point x="548" y="123"/>
      <point x="471" y="-1" type="curve"/>
      <point x="561" y="-1" type="line"/>
      <point x="623" y="106"/>
      <point x="648" y="246"/>
      <point x="648" y="339" type="curve"/>
      <point x="648" y="504"/>
      <point x="573" y="586"/>
      <point x="453" y="586" type="curve"/>
      <point x="342" y="586"/>
      <point x="262" y="516"/>
    </contour>
  </outline>
</glyph>
<glyph name="u1166A" format="2">
  <advance width="858" height="1000"/>
  <unicode hex="1166A"/>
  <outline>
    <contour>
      <point x="736" y="570" type="curve"/>
      <point x="646" y="570" type="line"/>
      <point x="696" y="506"/>
      <point x="730" y="421"/>
      <point x="730" y="303" type="curve"/>
      <point x="730" y="202"/>
      <point x="707" y="94"/>
      <point x="650" y="-1" type="curve"/>
      <point x="740" y="-1" type="line"/>
      <point x="796" y="97"/>
      <point x="808" y="210"/>
      <point x="808" y="302" type="curve"/>
      <point x="808" y="436"/>
      <point x="774" y="513"/>
    </contour>
    <contour>
      <point x="446" y="169" type="curve"/>
      <point x="368" y="169" type="line"/>
      <point x="362" y="113"/>
      <point x="337" y="53"/>
      <point x="260" y="53" type="curve"/>
      <point x="183" y="53"/>
      <point x="138" y="112"/>
      <point x="138" y="229" type="curve"/>
      <point x="138" y="347"/>
      <point x="191" y="479"/>
      <point x="246" y="570" type="curve"/>
      <point x="150" y="570" type="line"/>
      <point x="92" y="463"/>
      <point x="60" y="342"/>
      <point x="60" y="238" type="curve"/>
      <point x="60" y="84"/>
      <point x="131" y="-27"/>
      <point x="260" y="-27" type="curve"/>
      <point x="363" y="-27"/>
      <point x="445" y="43"/>
    </contour>
    <contour>
      <point x="262" y="389" type="curve"/>
      <point x="340" y="389" type="line"/>
      <point x="338" y="454"/>
      <point x="368" y="506"/>
      <point x="453" y="506" type="curve"/>
      <point x="522" y="506"/>
      <point x="570" y="476"/>
      <point x="570" y="339" type="curve"/>
      <point x="570" y="241"/>
      <point x="548" y="123"/>
      <point x="471" y="-1" type="curve"/>
      <point x="561" y="-1" type="line"/>
      <point x="623" y="106"/>
      <point x="648" y="246"/>
      <point x="648" y="339" type="curve"/>
      <point x="648" y="504"/>
      <point x="573" y="586"/>
      <point x="453" y="586" type="curve"/>
      <point x="342" y="586"/>
      <point x="262" y="516"/>
    </contour>
  </outline>
</glyph>
